<svg width="361" height="126" viewBox="0 0 361 126" fill="none" xmlns="http://www.w3.org/2000/svg">
<g clip-path="url(#clip0_15_97)">
<path d="M63.7127 78.1829L56.9107 61.1151H18.6253L11.8233 78.1829H0.865906L31.7665 1.26904H43.6442L74.6647 78.1829H63.7127ZM37.7626 11.1862L21.3864 52.5813H54.0189L37.7626 11.1862Z" fill="#11529F"/>
<path d="M125.971 78.1829V1.26904H135.54V61.3439L179.821 1.26904H189.624V78.1829H180.056V16.8337L135.202 78.1775H125.977L125.971 78.1829Z" fill="#11529F"/>
<path d="M207.612 78.1829V1.26904H238.513C242.358 1.26904 245.778 1.88444 248.773 3.11524C251.769 4.34603 254.29 6.01796 256.327 8.131C258.364 10.2441 259.921 12.7056 261 15.5103C262.072 18.315 262.612 21.294 262.612 24.4472C262.612 27.6005 262.072 30.5794 261 33.3841C259.921 36.1888 258.347 38.6504 256.272 40.7634C254.198 42.8765 251.66 44.5484 248.664 45.7792C245.669 47.01 242.282 47.6254 238.518 47.6254H217.186V78.1829H207.618H207.612ZM237.364 39.0915C241.977 39.0915 245.685 37.7464 248.49 35.056C251.295 32.3657 252.7 28.8312 252.7 24.4472C252.7 20.0632 251.295 16.5287 248.49 13.8384C245.68 11.1481 241.977 9.80293 237.364 9.80293H217.186V39.0915H237.364Z" fill="#11529F"/>
<path d="M310.351 79.566C304.66 79.566 299.47 78.5639 294.787 76.5707C290.098 74.572 286.078 71.7837 282.735 68.2111C279.391 64.6385 276.798 60.4287 274.952 55.5872C273.106 50.7458 272.186 45.4795 272.186 39.7884C272.186 34.0973 273.106 28.8365 274.952 23.9896C276.798 19.1481 279.391 14.9383 282.735 11.3603C286.078 7.78771 290.092 4.99935 294.787 3.00067C299.476 1.00199 304.666 0.00537109 310.351 0.00537109C316.037 0.00537109 321.227 1.00744 325.916 3.00067C330.605 4.99935 334.624 7.78771 337.968 11.3603C341.312 14.9329 343.904 19.1426 345.75 23.9896C347.596 28.8311 348.517 34.0973 348.517 39.7884C348.517 45.4795 347.596 50.7403 345.75 55.5872C343.904 60.4342 341.312 64.6385 337.968 68.2111C334.624 71.7837 330.605 74.572 325.916 76.5707C321.227 78.5694 316.037 79.566 310.351 79.566ZM310.351 71.0321C314.654 71.0321 318.537 70.2424 322 68.6685C325.458 67.0946 328.416 64.8999 330.877 62.0952C333.339 59.2905 335.239 55.9848 336.585 52.1781C337.93 48.3713 338.605 44.2432 338.605 39.783C338.605 35.3227 337.93 31.1728 336.585 27.328C335.239 23.4831 333.339 20.1774 330.877 17.4108C328.416 14.6442 325.458 12.4713 322 10.8974C318.542 9.32348 314.659 8.53381 310.351 8.53381C306.043 8.53381 302.144 9.32348 298.648 10.8974C295.151 12.4713 292.172 14.6442 289.711 17.4108C287.249 20.1774 285.365 23.4831 284.063 27.328C282.756 31.1728 282.103 35.3227 282.103 39.783C282.103 44.2432 282.756 48.3713 284.063 52.1781C285.37 55.9848 287.255 59.2905 289.711 62.0952C292.172 64.8999 295.151 67.0946 298.648 68.6685C302.144 70.2424 306.043 71.0321 310.351 71.0321Z" fill="#11529F"/>
<path d="M108.599 115.352V56.5131L99.5474 78.3625H97.9354L88.8242 56.5131V78.3625H84.5001V50.5171H90.2075L98.7414 71.1574L107.161 50.5171H112.928V115.352H108.604H108.599Z" fill="#1B3662"/>
<path d="M10.4727 102.39L9.33989 99.5474H2.95718L1.82441 102.39H0L5.15192 89.5703H7.12881L12.2971 102.39H10.4727ZM6.14853 91.2259L3.42009 98.126H8.86064L6.14853 91.2259Z" fill="#10519D"/>
<path d="M24.9263 102.39V91.8413L20.5641 102.39H19.9106L15.5647 91.8413V102.39H13.969V89.5703H16.2563L20.2319 99.2206L24.2293 89.5703H26.5166V102.39H24.9209H24.9263Z" fill="#10519D"/>
<path d="M30.808 102.619C30.2689 102.619 29.7787 102.521 29.3267 102.33C28.8802 102.14 28.5371 101.895 28.3083 101.601L28.9836 100.332C29.2124 100.577 29.4738 100.778 29.7624 100.947C30.051 101.116 30.3724 101.198 30.7318 101.198C30.9878 101.198 31.211 101.165 31.3962 101.099C31.5814 101.034 31.7556 100.931 31.9245 100.784C32.0933 100.637 32.2458 100.446 32.3983 100.217C32.5453 99.9885 32.7087 99.7053 32.8884 99.3731L33.1171 98.932L28.1994 89.5703H30.0238L34.043 97.5051L38.0621 89.5703H39.8865L34.2935 100.119C34.0865 100.506 33.8796 100.849 33.6617 101.159C33.4439 101.464 33.1988 101.731 32.932 101.949C32.6651 102.167 32.3601 102.336 32.017 102.45C31.6794 102.564 31.2764 102.624 30.8135 102.624L30.808 102.619Z" fill="#10519D"/>
<path d="M41.5476 102.39V89.5703H46.6995C47.3421 89.5703 47.9085 89.6738 48.4095 89.8807C48.9106 90.0877 49.3299 90.3654 49.6675 90.714C50.0052 91.068 50.2666 91.4764 50.4463 91.9448C50.626 92.4131 50.7132 92.9087 50.7132 93.437C50.7132 93.9652 50.6206 94.4608 50.4463 94.9237C50.2666 95.3921 50.0052 95.8005 49.6567 96.1545C49.3136 96.5085 48.8888 96.7863 48.3877 96.9932C47.8867 97.2002 47.3258 97.2982 46.694 97.2982H43.1378V102.39H41.5421H41.5476ZM46.5034 95.8768C47.2713 95.8768 47.8922 95.6535 48.3605 95.2015C48.8289 94.7549 49.063 94.1613 49.063 93.4315C49.063 92.7018 48.8289 92.1136 48.3605 91.6616C47.8922 91.215 47.2768 90.9863 46.5034 90.9863H43.1378V95.8659H46.5034V95.8768Z" fill="#10519D"/>
<path d="M58.9039 102.618C57.9836 102.618 57.1177 102.461 56.3171 102.139C55.5165 101.818 54.8194 101.366 54.2204 100.783C53.6213 100.2 53.1584 99.5034 52.8153 98.6865C52.4722 97.8696 52.3088 96.971 52.3088 95.9853C52.3088 94.9995 52.4777 94.101 52.8153 93.2841C53.153 92.4672 53.6213 91.7701 54.2204 91.1874C54.8194 90.6046 55.5165 90.1526 56.3171 89.8313C57.1177 89.51 57.9781 89.3521 58.9039 89.3521C59.4703 89.3521 59.9877 89.4174 60.4724 89.5427C60.9516 89.6734 61.3928 89.8476 61.8012 90.0818C62.2097 90.316 62.5691 90.5828 62.8959 90.8878C63.2226 91.1928 63.5113 91.5304 63.7727 91.8844L62.4275 92.636C62.0572 92.0968 61.5616 91.6557 60.9407 91.3017C60.3199 90.9477 59.6446 90.7734 58.9148 90.7734C58.1851 90.7734 57.5588 90.9042 56.9543 91.1601C56.3498 91.4161 55.8324 91.7755 55.3858 92.2384C54.9447 92.7013 54.5962 93.2459 54.3456 93.8831C54.0951 94.5149 53.9699 95.2174 53.9699 95.9853C53.9699 96.7532 54.0951 97.4394 54.3456 98.082C54.5962 98.7246 54.9393 99.2747 55.3858 99.7321C55.827 100.195 56.3498 100.554 56.9543 100.81C57.5588 101.066 58.2123 101.197 58.9148 101.197C59.6174 101.197 60.3199 101.023 60.9407 100.68C61.5616 100.331 62.0572 99.8846 62.4275 99.3346L63.7944 100.086C63.2553 100.816 62.5909 101.42 61.8067 101.9C61.017 102.379 60.053 102.618 58.9148 102.618H58.9039Z" fill="#10519D"/>
<path d="M73.5646 102.39L68.7013 96.6225L67.4161 98.082V102.384H65.8204V89.5645H67.4161V96.1922L73.0853 89.5645H75.084L69.7415 95.6585L75.5469 102.384H73.57L73.5646 102.39Z" fill="#10519D"/>
<path d="M77.3713 102.39V89.5703H78.967V99.5855L86.3463 89.5703H87.9801V102.39H86.3845V92.1681L78.9071 102.39H77.3713Z" fill="#10519D"/>
<path d="M90.9809 102.39V89.5701H92.5765V99.5853L99.9559 89.5701H101.59V102.39H99.994V92.1679L92.5166 102.39H90.9809ZM98.1968 88.3883C97.6141 88.6879 96.9769 88.8404 96.2853 88.8404C95.5936 88.8404 94.9564 88.6879 94.3737 88.3883C93.791 88.0888 93.3009 87.6749 92.9033 87.1467L93.6167 86.5312C93.9217 86.956 94.3029 87.2882 94.7495 87.5388C95.1961 87.7893 95.708 87.9145 96.2853 87.9145C96.8625 87.9145 97.3581 87.7947 97.8156 87.5496C98.2676 87.3046 98.6434 86.9669 98.9375 86.5312L99.6509 87.1467C99.2642 87.6695 98.785 88.0834 98.2023 88.3883H98.1968Z" fill="#10519D"/>
<path d="M125.225 102.39V89.5703H126.821V99.5855L134.2 89.5703H135.834V102.39H134.238V92.1681L126.761 102.39H125.225Z" fill="#10519D"/>
<path d="M147.924 102.39V96.5085H140.431V102.39H138.835V89.5703H140.431V95.0871H147.924V89.5703H149.52V102.39H147.924Z" fill="#10519D"/>
<path d="M158.588 102.619C157.667 102.619 156.801 102.461 156.001 102.14C155.2 101.818 154.503 101.366 153.904 100.784C153.31 100.201 152.842 99.5039 152.499 98.687C152.161 97.8755 151.987 96.9715 151.987 95.9858C151.987 95 152.156 94.1014 152.499 93.2845C152.837 92.4731 153.305 91.7706 153.904 91.1878C154.498 90.6051 155.2 90.1531 156.001 89.8318C156.801 89.5105 157.662 89.3525 158.588 89.3525C159.148 89.3525 159.671 89.4179 160.156 89.5431C160.635 89.6738 161.076 89.8481 161.479 90.0823C161.882 90.3165 162.247 90.5833 162.574 90.8883C162.901 91.1933 163.189 91.5309 163.451 91.8849L162.106 92.6365C161.735 92.0973 161.24 91.6562 160.619 91.3022C159.998 90.9482 159.323 90.7739 158.593 90.7739C157.863 90.7739 157.237 90.9046 156.632 91.1606C156.028 91.4166 155.511 91.776 155.064 92.2389C154.623 92.7018 154.274 93.2464 154.024 93.8836C153.773 94.5153 153.648 95.2179 153.648 95.9858C153.648 96.7536 153.773 97.4398 154.024 98.0825C154.274 98.7251 154.617 99.2752 155.064 99.7326C155.505 100.196 156.028 100.555 156.632 100.811C157.237 101.067 157.885 101.198 158.593 101.198C159.301 101.198 159.998 101.023 160.619 100.68C161.24 100.332 161.735 99.8851 162.106 99.335L163.473 100.087C162.933 100.816 162.269 101.421 161.485 101.9C160.695 102.379 159.731 102.619 158.593 102.619H158.588Z" fill="#10519D"/>
<path d="M168.679 102.39V90.9917H164.622V89.5703H174.348V90.9917H170.275V102.39H168.679Z" fill="#10519D"/>
<path d="M176.461 102.39V89.5703H178.057V99.5855L185.436 89.5703H187.07V102.39H185.474V92.1681L177.997 102.39H176.461Z" fill="#10519D"/>
<path d="M193.24 102.39V90.9917H189.183V89.5703H198.91V90.9917H194.836V102.39H193.24Z" fill="#10519D"/>
<path d="M202.308 102.619C201.769 102.619 201.279 102.521 200.827 102.33C200.38 102.14 200.037 101.895 199.808 101.601L200.484 100.332C200.712 100.577 200.974 100.778 201.262 100.947C201.551 101.116 201.872 101.198 202.232 101.198C202.488 101.198 202.711 101.165 202.896 101.099C203.081 101.034 203.256 100.931 203.424 100.784C203.588 100.637 203.746 100.446 203.893 100.217C204.04 99.9885 204.203 99.7053 204.383 99.3731L204.612 98.932L199.694 89.5703H201.518L205.537 97.5051L209.557 89.5703H211.381L205.788 100.119C205.581 100.506 205.374 100.849 205.156 101.159C204.938 101.464 204.693 101.731 204.426 101.949C204.16 102.167 203.855 102.336 203.512 102.45C203.174 102.564 202.771 102.624 202.308 102.624V102.619Z" fill="#10519D"/>
<path d="M216.223 102.39V90.9917H212.165V89.5703H221.892V90.9917H217.818V102.39H216.223Z" fill="#10519D"/>
<path d="M125.225 125.449V112.629H130.377C131.02 112.629 131.586 112.732 132.087 112.939C132.588 113.146 133.008 113.424 133.345 113.773C133.683 114.127 133.944 114.535 134.124 115.003C134.304 115.472 134.391 115.967 134.391 116.496C134.391 117.024 134.304 117.519 134.124 117.982C133.944 118.451 133.683 118.859 133.334 119.213C132.986 119.567 132.567 119.845 132.066 120.052C131.564 120.259 131.004 120.357 130.372 120.357H126.816V125.449H125.22H125.225ZM130.181 118.935C130.949 118.935 131.57 118.712 132.038 118.26C132.507 117.813 132.741 117.22 132.741 116.49C132.741 115.76 132.507 115.172 132.038 114.72C131.57 114.274 130.955 114.045 130.181 114.045H126.816V118.924H130.181V118.935Z" fill="#10519D"/>
<path d="M144.177 125.449L143.045 122.606H136.662L135.529 125.449H133.705L138.857 112.629H140.834L146.002 125.449H144.177ZM139.853 114.284L137.125 121.185H142.565L139.853 114.284Z" fill="#10519D"/>
<path d="M151.284 125.683C150.718 125.683 150.19 125.628 149.7 125.519C149.204 125.41 148.752 125.258 148.333 125.067C147.919 124.877 147.548 124.653 147.238 124.397C146.928 124.141 146.666 123.864 146.459 123.57L147.401 122.551C147.788 123.052 148.322 123.461 149.013 123.782C149.705 124.103 150.446 124.261 151.241 124.261C152.254 124.261 153.044 124.049 153.615 123.619C154.187 123.188 154.47 122.606 154.47 121.859C154.47 121.462 154.383 121.119 154.209 120.83C154.035 120.542 153.8 120.307 153.506 120.128C153.212 119.948 152.858 119.812 152.45 119.725C152.041 119.632 151.589 119.589 151.105 119.589H148.491V118.167H151.105C151.53 118.167 151.927 118.124 152.308 118.042C152.69 117.96 153.016 117.829 153.299 117.655C153.583 117.481 153.806 117.263 153.975 117.002C154.144 116.74 154.225 116.424 154.225 116.049C154.225 115.673 154.144 115.373 153.986 115.106C153.828 114.84 153.604 114.611 153.321 114.426C153.038 114.241 152.711 114.099 152.341 114.001C151.971 113.903 151.573 113.859 151.148 113.859C149.7 113.859 148.491 114.377 147.516 115.417L146.634 114.42C147.118 113.854 147.755 113.386 148.545 113.01C149.335 112.634 150.239 112.443 151.263 112.443C151.889 112.443 152.483 112.52 153.038 112.672C153.594 112.825 154.084 113.048 154.503 113.337C154.922 113.625 155.255 113.985 155.5 114.415C155.745 114.845 155.87 115.33 155.87 115.863C155.87 116.326 155.777 116.729 155.603 117.072C155.423 117.416 155.2 117.715 154.928 117.955C154.661 118.2 154.361 118.396 154.035 118.543C153.708 118.69 153.398 118.788 153.103 118.842C153.398 118.87 153.719 118.951 154.062 119.093C154.405 119.235 154.726 119.431 155.02 119.687C155.314 119.943 155.56 120.264 155.761 120.645C155.957 121.032 156.061 121.478 156.061 121.99C156.061 122.502 155.946 123.019 155.717 123.472C155.489 123.918 155.167 124.31 154.748 124.632C154.329 124.958 153.822 125.214 153.234 125.399C152.646 125.585 151.992 125.677 151.274 125.677L151.284 125.683Z" fill="#10519D"/>
<path d="M158.626 125.449V112.629H164.333C164.883 112.629 165.384 112.711 165.831 112.869C166.277 113.026 166.658 113.255 166.963 113.544C167.268 113.832 167.508 114.176 167.677 114.584C167.84 114.987 167.927 115.428 167.927 115.902C167.927 116.31 167.868 116.686 167.748 117.018C167.628 117.351 167.459 117.645 167.247 117.895C167.034 118.146 166.795 118.347 166.528 118.511C166.261 118.669 165.978 118.783 165.684 118.848C166.032 118.897 166.354 119.023 166.653 119.213C166.953 119.404 167.219 119.643 167.443 119.927C167.666 120.21 167.846 120.531 167.982 120.885C168.118 121.239 168.183 121.615 168.183 122.001C168.183 122.513 168.102 122.982 167.933 123.407C167.764 123.831 167.524 124.196 167.203 124.501C166.882 124.806 166.495 125.046 166.043 125.215C165.591 125.383 165.068 125.465 164.475 125.465H158.631L158.626 125.449ZM164.066 118.184C164.796 118.184 165.346 117.988 165.722 117.596C166.092 117.204 166.277 116.713 166.277 116.125C166.277 115.537 166.092 115.058 165.722 114.655C165.351 114.252 164.801 114.05 164.066 114.05H160.221V118.184H164.066ZM164.142 124.027C164.899 124.027 165.482 123.831 165.902 123.439C166.321 123.047 166.528 122.508 166.528 121.816C166.528 121.522 166.479 121.239 166.375 120.972C166.272 120.705 166.125 120.471 165.923 120.27C165.722 120.074 165.477 119.91 165.183 119.79C164.889 119.671 164.54 119.611 164.142 119.611H160.221V124.033H164.142V124.027Z" fill="#10519D"/>
<path d="M170.716 125.449V112.629H172.311V122.644L179.691 112.629H181.325V125.449H179.729V115.227L172.252 125.449H170.716Z" fill="#10519D"/>
<path d="M187.495 125.449V114.05H183.438V112.629H193.164V114.05H189.091V125.449H187.495Z" fill="#10519D"/>
<path d="M195.277 125.449V112.629H196.873V122.644L204.252 112.629H205.886V125.449H204.29V115.227L196.813 125.449H195.277Z" fill="#10519D"/>
<path d="M208.288 125.449L211.746 120.221C211.31 120.182 210.891 120.074 210.488 119.894C210.085 119.714 209.731 119.469 209.42 119.164C209.116 118.859 208.865 118.478 208.68 118.031C208.495 117.585 208.402 117.073 208.402 116.495C208.402 115.918 208.5 115.374 208.702 114.9C208.903 114.426 209.181 114.018 209.54 113.68C209.9 113.342 210.325 113.081 210.82 112.901C211.316 112.721 211.855 112.634 212.443 112.634H217.595V125.454H215.999V120.362H213.423L210.156 125.454H208.293L208.288 125.449ZM215.994 118.935V114.056H212.612C211.855 114.056 211.239 114.279 210.766 114.726C210.292 115.172 210.052 115.76 210.052 116.485C210.052 117.209 210.286 117.803 210.766 118.255C211.239 118.707 211.855 118.935 212.612 118.935H215.994Z" fill="#10519D"/>
<path d="M231.368 125.683C230.42 125.683 229.554 125.514 228.776 125.182C227.991 124.85 227.322 124.387 226.766 123.788C226.211 123.189 225.775 122.491 225.47 121.685C225.165 120.879 225.007 120.003 225.007 119.055C225.007 118.107 225.159 117.231 225.47 116.425C225.78 115.619 226.211 114.916 226.766 114.322C227.322 113.729 227.991 113.26 228.776 112.928C229.554 112.596 230.42 112.427 231.368 112.427C232.315 112.427 233.181 112.596 233.96 112.928C234.739 113.26 235.409 113.723 235.97 114.322C236.531 114.922 236.961 115.619 237.266 116.425C237.571 117.231 237.729 118.107 237.729 119.055C237.729 120.003 237.576 120.879 237.266 121.685C236.955 122.491 236.525 123.194 235.97 123.788C235.414 124.381 234.744 124.85 233.96 125.182C233.176 125.514 232.315 125.683 231.368 125.683ZM231.368 124.261C232.087 124.261 232.735 124.131 233.307 123.869C233.878 123.608 234.374 123.243 234.788 122.775C235.196 122.306 235.512 121.756 235.741 121.119C235.964 120.487 236.079 119.796 236.079 119.055C236.079 118.314 235.964 117.623 235.741 116.98C235.518 116.337 235.202 115.787 234.788 115.325C234.38 114.862 233.884 114.502 233.307 114.241C232.729 113.979 232.081 113.849 231.368 113.849C230.654 113.849 230.001 113.979 229.418 114.241C228.835 114.502 228.34 114.867 227.931 115.325C227.523 115.787 227.207 116.337 226.989 116.98C226.771 117.623 226.663 118.314 226.663 119.055C226.663 119.796 226.771 120.487 226.989 121.119C227.207 121.756 227.523 122.306 227.931 122.775C228.34 123.243 228.835 123.608 229.418 123.869C230.001 124.131 230.649 124.261 231.368 124.261Z" fill="#10519D"/>
<path d="M248.55 112.634V114.056H241.824V117.726H245.38C246.007 117.726 246.573 117.83 247.074 118.037C247.575 118.244 247.995 118.521 248.343 118.87C248.686 119.224 248.953 119.632 249.133 120.101C249.312 120.569 249.4 121.065 249.4 121.593C249.4 122.121 249.312 122.617 249.133 123.08C248.953 123.548 248.692 123.957 248.354 124.31C248.016 124.664 247.597 124.942 247.096 125.149C246.595 125.356 246.028 125.454 245.386 125.454H240.234V112.634H248.555H248.55ZM241.824 119.148V124.027H245.19C245.958 124.027 246.579 123.804 247.047 123.352C247.515 122.905 247.749 122.312 247.749 121.582C247.749 120.852 247.515 120.264 247.047 119.812C246.579 119.366 245.963 119.137 245.19 119.137H241.824V119.148Z" fill="#10519D"/>
<path d="M251.507 125.449V112.629H256.659C257.302 112.629 257.868 112.732 258.369 112.939C258.87 113.146 259.29 113.424 259.627 113.773C259.965 114.127 260.226 114.535 260.406 115.003C260.586 115.472 260.673 115.967 260.673 116.496C260.673 117.024 260.586 117.519 260.406 117.982C260.226 118.451 259.965 118.859 259.616 119.213C259.268 119.567 258.848 119.845 258.347 120.052C257.846 120.259 257.285 120.357 256.654 120.357H253.097V125.449H251.502H251.507ZM256.463 118.935C257.231 118.935 257.852 118.712 258.32 118.26C258.788 117.813 259.023 117.22 259.023 116.49C259.023 115.76 258.788 115.172 258.32 114.72C257.852 114.274 257.236 114.045 256.463 114.045H253.097V118.924H256.463V118.935Z" fill="#10519D"/>
<path d="M270.459 125.449L269.326 122.606H262.944L261.811 125.449H259.987L265.139 112.629H267.115L272.284 125.449H270.459ZM266.135 114.284L263.407 121.185H268.847L266.135 114.284Z" fill="#10519D"/>
<path d="M277.566 125.683C277 125.683 276.472 125.628 275.982 125.519C275.486 125.41 275.034 125.258 274.615 125.067C274.201 124.877 273.83 124.653 273.52 124.397C273.21 124.141 272.948 123.864 272.741 123.57L273.683 122.551C274.07 123.052 274.604 123.461 275.295 123.782C275.987 124.103 276.728 124.261 277.523 124.261C278.536 124.261 279.325 124.049 279.897 123.619C280.469 123.188 280.752 122.606 280.752 121.859C280.752 121.462 280.665 121.119 280.491 120.83C280.317 120.542 280.082 120.307 279.788 120.128C279.494 119.948 279.14 119.812 278.732 119.725C278.323 119.632 277.871 119.589 277.387 119.589H274.773V118.167H277.387C277.811 118.167 278.209 118.124 278.59 118.042C278.971 117.96 279.298 117.829 279.581 117.655C279.865 117.481 280.088 117.263 280.257 117.002C280.425 116.74 280.507 116.424 280.507 116.049C280.507 115.673 280.425 115.373 280.268 115.106C280.11 114.84 279.886 114.611 279.603 114.426C279.32 114.241 278.993 114.099 278.623 114.001C278.252 113.903 277.855 113.859 277.43 113.859C275.982 113.859 274.773 114.377 273.798 115.417L272.915 114.42C273.4 113.854 274.037 113.386 274.827 113.01C275.617 112.634 276.521 112.443 277.545 112.443C278.171 112.443 278.764 112.52 279.32 112.672C279.875 112.825 280.366 113.048 280.785 113.337C281.204 113.625 281.536 113.985 281.781 114.415C282.027 114.845 282.152 115.33 282.152 115.863C282.152 116.326 282.059 116.729 281.885 117.072C281.705 117.416 281.482 117.715 281.21 117.955C280.943 118.2 280.643 118.396 280.317 118.543C279.99 118.69 279.679 118.788 279.385 118.842C279.679 118.87 280.001 118.951 280.344 119.093C280.687 119.235 281.008 119.431 281.302 119.687C281.596 119.943 281.841 120.264 282.043 120.645C282.239 121.032 282.342 121.478 282.342 121.99C282.342 122.502 282.228 123.019 281.999 123.472C281.771 123.918 281.449 124.31 281.03 124.632C280.611 124.958 280.104 125.214 279.516 125.399C278.928 125.585 278.274 125.677 277.555 125.677L277.566 125.683Z" fill="#10519D"/>
<path d="M290.751 125.683C289.803 125.683 288.938 125.514 288.159 125.182C287.375 124.85 286.705 124.387 286.149 123.788C285.594 123.189 285.158 122.491 284.853 121.685C284.548 120.879 284.39 120.003 284.39 119.055C284.39 118.107 284.543 117.231 284.853 116.425C285.163 115.619 285.594 114.916 286.149 114.322C286.705 113.729 287.375 113.26 288.159 112.928C288.938 112.596 289.803 112.427 290.751 112.427C291.699 112.427 292.565 112.596 293.343 112.928C294.122 113.26 294.792 113.723 295.353 114.322C295.914 114.922 296.344 115.619 296.649 116.425C296.954 117.231 297.112 118.107 297.112 119.055C297.112 120.003 296.96 120.879 296.649 121.685C296.339 122.491 295.908 123.194 295.353 123.788C294.797 124.381 294.128 124.85 293.343 125.182C292.559 125.514 291.699 125.683 290.751 125.683ZM290.751 124.261C291.47 124.261 292.118 124.131 292.69 123.869C293.262 123.608 293.757 123.243 294.171 122.775C294.58 122.306 294.895 121.756 295.124 121.119C295.347 120.487 295.462 119.796 295.462 119.055C295.462 118.314 295.347 117.623 295.124 116.98C294.901 116.337 294.585 115.787 294.171 115.325C293.763 114.862 293.267 114.502 292.69 114.241C292.113 113.979 291.464 113.849 290.751 113.849C290.038 113.849 289.384 113.979 288.801 114.241C288.219 114.502 287.723 114.867 287.315 115.325C286.906 115.787 286.59 116.337 286.372 116.98C286.155 117.623 286.046 118.314 286.046 119.055C286.046 119.796 286.155 120.487 286.372 121.119C286.59 121.756 286.906 122.306 287.315 122.775C287.723 123.243 288.219 123.608 288.801 123.869C289.384 124.131 290.032 124.261 290.751 124.261Z" fill="#10519D"/>
<path d="M299.612 125.449V112.629H305.319C305.869 112.629 306.37 112.711 306.817 112.869C307.263 113.026 307.645 113.255 307.95 113.544C308.254 113.832 308.494 114.176 308.663 114.584C308.826 114.987 308.913 115.428 308.913 115.902C308.913 116.31 308.854 116.686 308.734 117.018C308.614 117.351 308.445 117.645 308.233 117.895C308.02 118.146 307.781 118.347 307.514 118.511C307.247 118.669 306.964 118.783 306.67 118.848C307.018 118.897 307.34 119.023 307.639 119.213C307.939 119.404 308.205 119.643 308.429 119.927C308.652 120.21 308.832 120.531 308.968 120.885C309.104 121.239 309.169 121.615 309.169 122.001C309.169 122.513 309.088 122.982 308.919 123.407C308.75 123.831 308.51 124.196 308.189 124.501C307.868 124.806 307.481 125.046 307.029 125.215C306.577 125.383 306.054 125.465 305.461 125.465H299.617L299.612 125.449ZM305.052 118.184C305.782 118.184 306.332 117.988 306.708 117.596C307.078 117.204 307.263 116.713 307.263 116.125C307.263 115.537 307.078 115.058 306.708 114.655C306.337 114.252 305.787 114.05 305.052 114.05H301.207V118.184H305.052ZM305.128 124.027C305.885 124.027 306.468 123.831 306.888 123.439C307.307 123.047 307.514 122.508 307.514 121.816C307.514 121.522 307.465 121.239 307.361 120.972C307.258 120.705 307.111 120.471 306.909 120.27C306.708 120.074 306.463 119.91 306.169 119.79C305.875 119.671 305.526 119.611 305.128 119.611H301.207V124.033H305.128V124.027Z" fill="#10519D"/>
<path d="M320.846 125.449L319.713 122.606H313.33L312.197 125.449H310.373L315.525 112.629H317.502L322.67 125.449H320.846ZM316.522 114.284L313.793 121.185H319.234L316.522 114.284Z" fill="#10519D"/>
<path d="M333.437 125.449V119.567H325.943V125.449H324.347V112.629H325.943V118.146H333.437V112.629H335.032V125.449H333.437Z" fill="#10519D"/>
<path d="M338.028 125.449V112.629H339.623V122.644L347.003 112.629H348.637V125.449H347.041V115.227L339.564 125.449H338.028Z" fill="#10519D"/>
<path d="M351.038 125.449L354.496 120.221C354.061 120.182 353.641 120.074 353.238 119.894C352.835 119.714 352.481 119.469 352.171 119.164C351.866 118.859 351.616 118.478 351.43 118.031C351.245 117.585 351.153 117.073 351.153 116.495C351.153 115.918 351.251 115.374 351.452 114.9C351.654 114.426 351.931 114.018 352.291 113.68C352.65 113.342 353.075 113.081 353.571 112.901C354.066 112.721 354.605 112.634 355.194 112.634H360.345V125.454H358.75V120.362H356.174L352.906 125.454H351.044L351.038 125.449ZM358.744 118.935V114.056H355.362C354.605 114.056 353.99 114.279 353.516 114.726C353.042 115.172 352.803 115.76 352.803 116.485C352.803 117.209 353.037 117.803 353.516 118.255C353.99 118.707 354.605 118.935 355.362 118.935H358.744Z" fill="#10519D"/>
</g>
<defs>
<clipPath id="clip0_15_97">
<rect width="360.34" height="125.683" fill="white"/>
</clipPath>
</defs>
</svg>
