<?xml version="1.0" encoding="utf-8"?>
<!-- Generator: Adobe Illustrator 26.0.3, SVG Export Plug-In . SVG Version: 6.00 Build 0)  -->
<svg version="1.1" id="Слой_1" xmlns="http://www.w3.org/2000/svg" xmlns:xlink="http://www.w3.org/1999/xlink" x="0px" y="0px"
	 viewBox="0 0 226.8 64.4" style="enable-background:new 0 0 226.8 64.4;" xml:space="preserve">
<style type="text/css">
	.st0{fill:none;stroke:#B57F4B;stroke-width:1.4133;stroke-miterlimit:22.9256;}
	.st1{fill:#002C4A;}
</style>
<line class="st0" x1="73.3" y1="9.2" x2="73.3" y2="52.6"/>
<g>
	<path class="st1" d="M189.4,45.7h-3v7h-1.7v-7h-3v-1.4h7.6L189.4,45.7L189.4,45.7z M174.7,48h3.3c0.6,0,0.8-0.4,0.8-1.1
		c0-0.5-0.1-0.9-0.4-1.1c-0.3-0.2-0.8-0.3-1.5-0.3c-0.8,0-1.4,0.2-1.7,0.5C174.9,46.4,174.7,47,174.7,48z M178.5,49.2h-3.8
		c0.1,0.9,0.3,1.5,0.7,1.7c0.4,0.3,1,0.4,1.8,0.4c0.7,0,1.7-0.1,2.9-0.2l0.2,1.1c-0.8,0.3-1.9,0.5-3.3,0.5c-1.5,0-2.5-0.3-3.1-1
		S173,50,173,48.4s0.3-2.8,0.9-3.4c0.6-0.7,1.6-1,3-1c1.3,0,2.2,0.2,2.8,0.7s0.9,1.2,0.9,2.1C180.5,48.5,179.9,49.2,178.5,49.2z
		 M171.7,45.7h-3v7H167v-7h-3v-1.4h7.6L171.7,45.7L171.7,45.7z M162.4,52.7h-1.5v-5.3c0-0.1,0-0.4,0-0.6c0-0.3,0-0.4,0-0.5l0,0
		c-0.1,0.3-0.3,0.7-0.6,1l-4,5.4H155v-8.4h1.5v5.3c0,0.3,0,0.7-0.1,1.1h0.1c0.2-0.4,0.4-0.8,0.6-1l4-5.4h1.3L162.4,52.7L162.4,52.7z
		 M152.8,51.2l0.2,1.1c-0.9,0.3-1.8,0.5-2.9,0.5c-1.5,0-2.5-0.3-3.1-1s-0.9-1.8-0.9-3.4c0-1.6,0.3-2.7,0.9-3.4c0.6-0.7,1.6-1,3.1-1
		c1.1,0,2,0.1,2.8,0.4l-0.2,1.1c-0.9-0.1-1.6-0.1-2.3-0.1c-1,0-1.6,0.2-2,0.6c-0.4,0.4-0.5,1.2-0.5,2.4s0.2,1.9,0.5,2.4
		c0.4,0.4,1,0.6,2,0.6C151.3,51.5,152.1,51.5,152.8,51.2z M138.1,46.8V51c1.1,0.3,2,0.4,2.5,0.4c0.7,0,1.2-0.2,1.5-0.6
		c0.3-0.4,0.4-1.2,0.4-2.3s-0.1-1.9-0.4-2.3c-0.3-0.4-0.7-0.7-1.3-0.7c-0.4,0-0.8,0.1-1.2,0.3C139.2,46,138.7,46.4,138.1,46.8z
		 M137.8,44.4l0.1,1.3c0.4-0.5,1-0.8,1.6-1.1s1.3-0.4,1.9-0.4c1,0,1.7,0.4,2.2,1.1c0.5,0.7,0.7,1.9,0.7,3.3c0,1.6-0.3,2.7-0.8,3.3
		c-0.5,0.7-1.3,1-2.4,1c-1.1,0-2.1-0.3-3-0.8c0,0.6,0.1,1.1,0.1,1.7V56h-1.6V44.4H137.8z M128.4,48h3.3c0.6,0,0.8-0.4,0.8-1.1
		c0-0.5-0.1-0.9-0.4-1.1c-0.3-0.2-0.8-0.3-1.5-0.3c-0.8,0-1.4,0.2-1.7,0.5S128.5,47,128.4,48z M132.2,49.2h-3.8
		c0.1,0.9,0.3,1.5,0.7,1.7c0.4,0.3,1,0.4,1.8,0.4c0.7,0,1.7-0.1,2.9-0.2l0.2,1.1c-0.8,0.3-1.9,0.5-3.3,0.5c-1.5,0-2.5-0.3-3.1-1
		s-0.9-1.8-0.9-3.4c0-1.6,0.3-2.8,0.9-3.4c0.6-0.7,1.6-1,3-1c1.3,0,2.2,0.2,2.8,0.7s0.9,1.2,0.9,2.1
		C134.3,48.5,133.6,49.2,132.2,49.2z M119.2,51.5h2.1c0.7,0,1.3-0.1,1.5-0.2c0.3-0.2,0.4-0.5,0.4-1s-0.2-0.8-0.5-1s-0.8-0.3-1.6-0.3
		H119v2.5H119.2z M119.2,47.8h2.1c0.7,0,1.2-0.1,1.4-0.2c0.3-0.2,0.4-0.5,0.4-0.9s-0.1-0.7-0.4-0.9c-0.3-0.1-0.8-0.2-1.6-0.2h-1.8
		L119.2,47.8L119.2,47.8z M122.8,48.4L122.8,48.4c0.8,0.1,1.3,0.3,1.6,0.7c0.3,0.4,0.5,0.9,0.5,1.6c0,0.8-0.3,1.4-0.8,1.7
		s-1.4,0.5-2.6,0.5c-1.7,0-3,0-4-0.1v-8.4c0.9-0.1,2-0.1,3.5-0.1c1.3,0,2.2,0.2,2.8,0.5c0.5,0.3,0.8,0.9,0.8,1.8
		c0,0.6-0.1,1-0.4,1.4C123.9,48.2,123.4,48.4,122.8,48.4z M115,52.7h-1.5v-5.3c0-0.1,0-0.4,0-0.6c0-0.3,0-0.4,0-0.5l0,0
		c-0.1,0.3-0.3,0.7-0.6,1l-4,5.4h-1.3v-8.4h1.5v5.3c0,0.3,0,0.7-0.1,1.1h0.1c0.2-0.4,0.4-0.8,0.6-1l4-5.4h1.3V52.7z M104.9,44.4v8.4
		h-1.6V49h-4.1v3.8h-1.6v-8.4h1.6v3.3h4.1v-3.3H104.9z M96.5,40.9l-3.1,8.9c-0.4,1-0.7,1.7-1.1,2.2s-0.9,0.8-1.6,0.8
		c-0.7,0.1-1.5,0-2.2-0.3l0.2-1.3c0.4,0,0.7,0,0.9,0c0.2,0,0.4,0,0.6,0s0.4,0,0.5-0.1s0.2-0.1,0.3-0.2c0.1-0.1,0.2-0.2,0.3-0.3
		c0.1-0.1,0.2-0.3,0.2-0.4c0.1-0.1,0.2-0.3,0.3-0.6l0.2-0.5h-0.6c-0.3,0-0.6-0.1-0.8-0.2c-0.2-0.1-0.3-0.4-0.5-0.7l-2.7-7.5h1.7
		l2.3,6.7c0.1,0.2,0.2,0.3,0.4,0.3h0.7l2.4-7h1.6C96.5,40.7,96.5,40.9,96.5,40.9z M226.8,37h-1.5v-5.3c0-0.1,0-0.4,0-0.6
		c0-0.3,0-0.4,0-0.5l0,0c-0.1,0.3-0.3,0.7-0.6,1l-4,5.4h-1.3v-8.4h1.5v5.3c0,0.3,0,0.7-0.1,1.1h0.1c0.2-0.4,0.4-0.8,0.6-1l4-5.4h1.3
		V37z M224.4,24.9h1.3c0.1,0.7-0.2,1.3-0.6,1.7c-0.5,0.5-1.1,0.7-2,0.7c-0.8,0-1.5-0.2-2-0.7s-0.7-1-0.6-1.7h1.3
		c0,1,0.5,1.5,1.4,1.5C223.9,26.4,224.4,25.9,224.4,24.9z M208.4,35.7h1.8c0.7,0,1.1-0.1,1.3-0.3s0.4-0.6,0.4-1.1s-0.1-0.9-0.4-1.1
		c-0.2-0.2-0.7-0.3-1.3-0.3h-1.8V35.7z M216.7,28.6V37H215v-8.4H216.7z M208.4,31.8h1.8c1.3,0,2.2,0.2,2.7,0.6
		c0.5,0.4,0.7,1.1,0.7,2.1s-0.2,1.7-0.7,2.1c-0.5,0.4-1.3,0.6-2.4,0.6c-1.6,0-2.8,0-3.7-0.1l0,0v-8.4h1.6L208.4,31.8L208.4,31.8z
		 M204.2,28.6V37h-1.6v-3.8h-4.1V37h-1.6v-8.4h1.6v3.3h4.1v-3.3H204.2z M194.2,28.6V37h-1.6v-3.8h-4.1V37h-1.6v-8.4h1.6v3.3h4.1
		v-3.3H194.2z M178.8,32.2h3.3c0.6,0,0.8-0.4,0.8-1.1c0-0.5-0.1-0.9-0.4-1.1c-0.3-0.2-0.8-0.3-1.5-0.3c-0.8,0-1.4,0.2-1.7,0.5
		C179,30.7,178.8,31.2,178.8,32.2z M182.6,33.5h-3.8c0.1,0.9,0.3,1.5,0.7,1.7c0.4,0.3,1,0.4,1.8,0.4c0.7,0,1.7-0.1,2.9-0.2l0.2,1.1
		c-0.8,0.3-1.9,0.5-3.3,0.5c-1.5,0-2.5-0.3-3.1-1s-0.9-1.8-0.9-3.4c0-1.6,0.3-2.8,0.9-3.4c0.6-0.7,1.6-1,3-1c1.3,0,2.2,0.2,2.8,0.7
		s0.9,1.2,0.9,2.1C184.6,32.8,183.9,33.5,182.6,33.5z M169.5,35.8h2.1c0.7,0,1.3-0.1,1.5-0.2c0.3-0.2,0.4-0.5,0.4-1s-0.2-0.8-0.5-1
		s-0.8-0.3-1.6-0.3h-2.1v2.5H169.5z M169.5,32h2.1c0.7,0,1.2-0.1,1.4-0.2c0.3-0.2,0.4-0.5,0.4-0.9s-0.1-0.7-0.4-0.9
		c-0.3-0.1-0.8-0.2-1.6-0.2h-1.8L169.5,32L169.5,32z M173.2,32.5L173.2,32.5c0.8,0.1,1.3,0.3,1.6,0.7s0.5,0.9,0.5,1.6
		c0,0.8-0.3,1.4-0.8,1.7s-1.4,0.5-2.6,0.5c-1.7,0-3,0-4-0.1v-8.4c0.9-0.1,2-0.1,3.5-0.1c1.3,0,2.2,0.2,2.8,0.5
		c0.5,0.3,0.8,0.9,0.8,1.8c0,0.6-0.1,1-0.4,1.4C174.3,32.4,173.8,32.5,173.2,32.5z M166.2,30h-3v7h-1.7v-7h-3v-1.4h7.6L166.2,30
		L166.2,30z M157.4,35.5l0.2,1.1c-0.9,0.3-1.8,0.5-2.9,0.5c-1.5,0-2.5-0.3-3.1-1s-0.9-1.8-0.9-3.4c0-1.6,0.3-2.7,0.9-3.4
		c0.6-0.7,1.6-1,3.1-1c1.1,0,2,0.1,2.8,0.4l-0.2,1.1c-0.9-0.1-1.6-0.1-2.3-0.1c-1,0-1.6,0.2-2,0.6s-0.5,1.2-0.5,2.4
		c0,1.2,0.2,1.9,0.5,2.4c0.4,0.4,1,0.6,2,0.6C155.8,35.8,156.7,35.7,157.4,35.5z M142.6,31v4.2c1.1,0.3,2,0.4,2.5,0.4
		c0.7,0,1.2-0.2,1.5-0.6c0.3-0.4,0.4-1.2,0.4-2.3c0-1.1-0.1-1.9-0.4-2.3c-0.3-0.4-0.7-0.7-1.3-0.7c-0.4,0-0.8,0.1-1.2,0.3
		C143.7,30.2,143.2,30.6,142.6,31z M142.4,28.6l0.1,1.3c0.4-0.5,1-0.8,1.6-1.1c0.6-0.3,1.3-0.4,1.9-0.4c1,0,1.7,0.4,2.2,1.1
		s0.7,1.9,0.7,3.3c0,1.6-0.3,2.7-0.8,3.3c-0.5,0.7-1.3,1-2.4,1c-1.1,0-2.1-0.3-3-0.8c0,0.6,0.1,1.1,0.1,1.7v2.3H141V28.6H142.4z
		 M132.7,34v0.4c0,0.4,0.1,0.7,0.3,0.9s0.5,0.3,0.9,0.3c1,0,1.9-0.4,2.8-1.2V33h-3c-0.4,0-0.6,0.1-0.8,0.3
		C132.8,33.5,132.7,33.8,132.7,34z M131.6,30l-0.2-1.2c1.5-0.3,2.8-0.4,4.1-0.4c1,0,1.8,0.2,2.2,0.6c0.5,0.4,0.7,1.1,0.7,2.1V37
		h-1.3l-0.2-1.3c-1,1-2.1,1.5-3.3,1.5c-0.8,0-1.4-0.2-1.9-0.6c-0.5-0.4-0.7-1-0.7-1.7V34c0-0.7,0.2-1.2,0.6-1.5
		c0.4-0.4,1-0.5,1.8-0.5h3.4v-0.7c0-0.5-0.1-0.9-0.4-1.1c-0.2-0.2-0.7-0.3-1.3-0.3C134.4,29.8,133.3,29.9,131.6,30z M126.8,29.9
		h-1.6c-0.6,0-1,0.3-1,1c-0.1,2-0.5,3.5-1.2,4.8h3.9v-5.8C126.9,29.9,126.8,29.9,126.8,29.9z M129.6,35.5v3.8h-1.1l-0.1-2.5h-6.6
		l-0.1,2.5h-1.1v-3.8h1c0.7-1.4,1-3.1,1.2-5c0.1-1.3,0.8-2,2.2-2h3.5v7H129.6z M120.4,28.6l-3.3,8.8c-0.4,1.2-0.9,2-1.6,2.5
		c-0.8,0.6-1.9,0.8-3.3,0.5l0.2-1.2c0.9,0.1,1.6,0,2-0.3s0.8-0.8,1.1-1.6l0.1-0.3h-0.4c-0.3,0-0.5-0.1-0.6-0.4l-2.9-7.9h1.8l2.1,6.1
		c0.2,0.4,0.3,0.8,0.3,1h0.2c0-0.1,0.1-0.2,0.1-0.3s0.1-0.3,0.1-0.4c0-0.1,0.1-0.2,0.1-0.3l2.1-6.1h1.9L120.4,28.6L120.4,28.6z
		 M110.7,35.5l0.2,1.1c-0.9,0.3-1.8,0.5-2.9,0.5c-1.5,0-2.5-0.3-3.1-1s-0.9-1.8-0.9-3.4c0-1.6,0.3-2.7,0.9-3.4c0.6-0.7,1.6-1,3.1-1
		c1.1,0,2,0.1,2.8,0.4l-0.2,1.1c-0.9-0.1-1.6-0.1-2.3-0.1c-1,0-1.6,0.2-2,0.6s-0.5,1.2-0.5,2.4c0,1.2,0.2,1.9,0.5,2.4
		c0.4,0.4,1,0.6,2,0.6C109.2,35.8,110,35.7,110.7,35.5z M99.9,30.4c-0.3-0.4-0.9-0.6-1.8-0.6s-1.5,0.2-1.8,0.6s-0.5,1.2-0.5,2.4
		c0,1.2,0.2,1.9,0.5,2.4c0.3,0.4,0.9,0.6,1.8,0.6s1.4-0.2,1.8-0.6c0.3-0.4,0.5-1.2,0.5-2.4C100.4,31.6,100.3,30.8,99.9,30.4z
		 M95.1,29.4c0.6-0.7,1.6-1,3.1-1c1.4,0,2.5,0.3,3.1,1s0.9,1.8,0.9,3.4c0,1.6-0.3,2.7-0.9,3.4s-1.6,1-3.1,1s-2.5-0.3-3.1-1
		s-0.9-1.8-0.9-3.4C94.2,31.2,94.5,30.1,95.1,29.4z M88.4,37v-9.5c0-0.7,0.2-1.2,0.6-1.7c0.4-0.4,1-0.7,1.6-0.7
		c2.3,0,3.9,0.1,4.9,0.2l-0.1,1.3h-4.3c-0.4,0-0.7,0.1-0.8,0.3c-0.2,0.2-0.2,0.5-0.2,0.9V37H88.4z M171.9,21.4h-2.8v-3.8
		c0-0.3,0-0.8,0.1-1.5h-0.1c-0.2,0.5-0.4,1-0.7,1.4l-2.7,3.9H163v-8.5h2.8v4c0,0.3,0,0.7-0.1,1.3h0.1c0.1-0.4,0.4-0.8,0.7-1.2
		l2.7-4.1h2.7V21.4z M168.5,9.1h2c0.1,0.8-0.1,1.4-0.7,2c-0.6,0.6-1.3,0.8-2.3,0.8s-1.7-0.3-2.3-0.8c-0.6-0.6-0.8-1.2-0.7-2h2
		c0,0.5,0,0.9,0.2,1.1c0.2,0.2,0.4,0.3,0.8,0.3c0.4,0,0.6-0.1,0.8-0.3C168.5,9.9,168.5,9.6,168.5,9.1z M161.2,21.4h-2.8v-3.8
		c0-0.3,0-0.8,0.1-1.5h-0.1c-0.2,0.5-0.4,1-0.7,1.4l-2.7,3.9h-2.7v-8.5h2.8v4c0,0.3,0,0.7-0.1,1.3h0.1c0.1-0.4,0.4-0.8,0.7-1.2
		l2.7-4.1h2.7V21.4z M148.1,16.9L148.1,16.9c0.2,0.1,0.4,0.1,0.5,0.2c0.1,0,0.3,0.1,0.4,0.1c0.2,0.1,0.3,0.1,0.4,0.1
		c0.1,0,0.2,0.1,0.3,0.2s0.2,0.2,0.3,0.3c0,0.1,0.1,0.2,0.2,0.4c0.1,0.2,0.2,0.4,0.2,0.5s0.1,0.4,0.2,0.7c0.1,0.3,0.2,0.6,0.3,0.9
		c0.1,0.2,0.2,0.6,0.3,1.1H148c-0.5-1.6-0.8-2.6-0.9-2.9c-0.2-0.3-0.5-0.5-0.9-0.5h-0.7c0.1,0.2,0.1,0.5,0.1,0.7v2.7h-3.1v-8.5h3.1
		v2c0,0.3,0,0.7-0.1,1.1h0.4c0.6,0,1-0.1,1.2-0.4c0.2-0.3,0.5-1.2,0.8-2.6h3.1c-0.5,1.7-0.8,2.7-1,2.9c-0.2,0.5-0.5,0.8-0.9,0.9
		C149,16.8,148.6,16.8,148.1,16.9z M141,19l0.3,2c-0.9,0.4-2,0.7-3.5,0.7c-1.6,0-2.8-0.3-3.4-1c-0.7-0.7-1-1.8-1-3.5
		c0-1.6,0.3-2.8,1-3.5s1.8-1,3.4-1c1.4,0,2.5,0.2,3.4,0.6l-0.3,1.9h-2.5c-0.7,0-1.1,0.1-1.3,0.4c-0.2,0.3-0.4,0.8-0.4,1.6
		c0,0.8,0.1,1.3,0.4,1.6c0.2,0.3,0.7,0.4,1.3,0.4C139.3,19.1,140.2,19.1,141,19z M126.2,15.5v3.7c0.7,0.2,1.1,0.3,1.5,0.3
		c0.5,0,0.8-0.1,1-0.4s0.3-0.9,0.3-1.8s-0.1-1.5-0.2-1.8c-0.2-0.3-0.5-0.4-0.9-0.4C127.4,15,126.8,15.2,126.2,15.5z M125.6,12.9
		l0.2,1.2c0.3-0.4,0.8-0.7,1.4-1s1.2-0.4,1.9-0.4c2,0,3,1.5,3,4.6c0,1.7-0.3,2.8-0.8,3.4s-1.3,1-2.5,1c-1.1,0-2-0.3-2.7-0.8
		c0.1,0.6,0.1,1.2,0.1,1.8v1.9h-3.1V12.9H125.6z M122.2,12.9l-2.8,8.4c-0.3,0.9-0.7,1.7-1.1,2.2c-0.5,0.5-1.1,0.9-1.8,1.1
		c-0.9,0.4-2.1,0.4-3.5,0.2l0.3-2c1.1,0,1.9-0.1,2.4-0.4c0.3-0.2,0.6-0.5,0.9-1H116c-0.5,0-0.8-0.2-1-0.7l-2.6-7.8h3.3L117,18
		c0.1,0.6,0.2,1.1,0.2,1.5h0.2c0.1-0.5,0.3-1,0.4-1.5l1.3-5.1H122.2z M107.4,12.9h2.7c0.7,0,1,0.4,1.1,1.1l0.2,7.4h-2.8l-0.2-6.3
		h-0.2l-1,4.1c-0.1,0.6-0.5,0.9-1.2,0.9h-1.4c-0.7,0-1.1-0.3-1.2-0.9l-1-4.1h-0.2l-0.2,6.3h-2.8l0.2-7.4c0-0.7,0.4-1.1,1.1-1.1h2.6
		c0.7,0,1,0.3,1.1,1L105,17c0,0.1,0.1,0.5,0.2,1.3h0.1c0-0.1,0-0.3,0.1-0.6c0-0.3,0.1-0.5,0.1-0.7l0.7-3.2
		C106.4,13.2,106.8,12.9,107.4,12.9z M93.9,16.2l-0.8-3C93,12.6,93,12.2,93,12h-0.5c-0.1,0.4-0.2,0.8-0.2,1.2l-0.8,3H93.9z
		 M94.5,18.6h-3.6l-0.7,2.8h-3.3l3.2-11c0.1-0.3,0.2-0.5,0.4-0.6c0.2-0.2,0.4-0.2,0.7-0.2h3c0.3,0,0.5,0.1,0.7,0.2
		c0.2,0.2,0.3,0.4,0.4,0.6l3.2,11h-3.3L94.5,18.6z"/>
	<path class="st1" d="M10.3,36.2L10.3,36.2v5.1l-9.1-9.1l9.1-9.1v7l19.3-19.3l17.5,17.5l-3.3,0.3c-2.5,0-6.4-0.8-10.7-1.9
		c-3.7-0.9-8.2-0.6-11.4,1.1l0.1,4.6c7.2-2.7,13.6-0.9,20.2,0.2c4.3,0.7,8.6,1.3,13.3-0.2l-23.1-23H24l8.2-8.2l31.1,31.1l-8.1,8.1
		v-4L10.3,36.2z M32.2,63.2L32.2,63.2l-9.8-9.8h19.7L32.2,63.2z M46.7,41.2L45,46.9c-0.2,0.7-0.5,1.2-0.8,1.6
		c-0.3,0.3-0.7,0.5-1.3,0.6c-0.5,0.1-1.2,0-2.1-0.2l0.2-1.4c0.7,0,1.2,0,1.4,0s0.4-0.2,0.5-0.4l0.1-0.2h-0.4c-0.3,0-0.5-0.1-0.7-0.2
		c-0.2-0.2-0.3-0.4-0.4-0.7L40,41.4h2.1l1,3.8c0,0.1,0.1,0.1,0.2,0.1h0.2l1.1-4H46.7L46.7,41.2z M34.6,48.9v-6
		c0-0.5,0.2-0.9,0.5-1.2s0.7-0.5,1.2-0.5c1.7,0,2.9,0,3.5,0.1l-0.1,1.5h-2.6c-0.3,0-0.5,0.2-0.5,0.5v5.5h-2
		C34.6,48.8,34.6,48.9,34.6,48.9z M30.9,43.4h1.7c0.4,0,0.7,0.2,0.7,0.7l0.1,4.8h-1.8l-0.1-4h-0.1l-0.6,2.7
		c-0.1,0.4-0.3,0.6-0.7,0.6h-0.9c-0.4,0-0.7-0.2-0.8-0.6l-0.6-2.7h-0.1l-0.1,4h-1.8l0.1-4.8c0-0.5,0.2-0.7,0.7-0.7h1.7
		c0.4,0,0.7,0.2,0.7,0.6l0.5,2c0,0.1,0.1,0.3,0.1,0.8h0.1c0-0.1,0-0.2,0-0.4s0-0.3,0.1-0.4l0.5-2C30.2,43.5,30.5,43.4,30.9,43.4z
		 M22.2,45.5l-0.5-1.9c-0.1-0.4-0.1-0.6-0.1-0.8h-0.3c-0.1,0.3-0.1,0.5-0.2,0.8l-0.5,1.9H22.2z M22.6,47h-2.3l-0.5,1.8h-2.1l2.1-7.1
		c0-0.2,0.1-0.3,0.2-0.4c0.1-0.1,0.3-0.1,0.4-0.1h1.9c0.2,0,0.3,0,0.4,0.1s0.2,0.2,0.3,0.4l2.1,7.1H23L22.6,47z M55.2,23V9.3H41.5
		L32.2,0l-9.3,9.3H10.3v12.6L0,32.2l10.3,10.3v11h11l11,11l11-11h12v-12l9.2-9.2L55.2,23z"/>
</g>
<g id="Layer_2">
</g>
</svg>
