<svg width="1627" height="2382" viewBox="0 0 1627 2382" fill="none" xmlns="http://www.w3.org/2000/svg">
<g filter="url(#filter0_d_9_110)">
<g clip-path="url(#clip0_9_110)">
<path d="M739.63 1952.75C837.27 1978.5 934.91 2004.25 1032.55 2029.99C1032.25 2031.94 1031.95 2033.88 1031.65 2035.83C980.31 2030.35 928.63 2027.01 877.72 2018.84C812.95 2008.44 748.86 1993.82 684.33 1981.82C673.02 1979.72 659.93 1978.47 649.42 1982.03C523.78 2024.51 395.48 2046.71 262.42 2036.99C254.6 2036.42 245.16 2040.21 238.44 2044.82C86.84 2148.88 -75.3 2234.47 -238.96 2317.33C-278.83 2337.52 -320.25 2354.66 -362.05 2373.7C-378.05 2348.04 -393.05 2324 -409 2298.42C-369.8 2280.38 -331.28 2263.22 -293.24 2245.05C-126.17 2165.28 36.19 2077.06 191.74 1976.39C310.98 1899.21 422.89 1813 523.25 1712.32C532.17 1703.37 539.46 1690.26 542.07 1677.94C592.54 1439.31 611.96 1198.23 596.94 954.59C596.46 946.77 596.47 938.93 598.81 930.95C625.55 1071.09 631.72 1212.73 626.52 1361.87C688.83 1266.41 747.21 1176.99 805.59 1087.56C807.14 1088.36 808.69 1089.16 810.24 1089.96C807.17 1097.15 804.51 1104.55 800.98 1111.5C755.59 1200.68 712.14 1290.93 663.98 1378.6C620.74 1457.32 607.81 1542.59 596.85 1636.39C616.5 1614.54 632.57 1597.55 647.68 1579.74C811.83 1386.09 940.24 1169.87 1049.85 941.82C1056.79 927.39 1062.78 912.43 1070.64 898.52C1139.34 777.04 1135.18 648.9 1106.02 518.38C1104.31 510.73 1102.33 503.13 1102.33 495.14C1133.94 568.24 1145 645.29 1143.08 724.81C1145.17 725.16 1147.25 725.52 1149.34 725.87C1206.69 579.84 1264.04 433.82 1321.39 287.79C1233.49 587.7 1134.27 883.35 997.07 1166.35C1065.9 1104.4 1134.39 1042.05 1203.66 980.6C1273.61 918.55 1344.34 857.38 1414.72 795.83C1416.09 797.22 1417.46 798.61 1418.83 800C1402.84 816.36 1387.01 832.88 1370.85 849.06C1236.77 983.32 1101.79 1116.69 969.09 1252.31C936.4 1285.72 907.62 1324.21 882.97 1364.04C771.63 1543.95 643.49 1709.93 486.15 1852.12C446.45 1888 403.88 1920.71 362.64 1954.89C357.23 1959.38 351.88 1963.93 341.48 1972.68C356.41 1972.65 365.41 1972.97 374.38 1972.55C519.46 1965.75 656.59 1927.16 788.77 1868.8C941.3 1801.46 1080.07 1710.99 1215.5 1614.91C1222.03 1610.28 1228.68 1605.8 1235.44 1601.51C1237.18 1600.4 1239.55 1600.29 1246.06 1598.5C1089.68 1738.19 928.47 1863.02 738.75 1946.7C739.05 1948.72 739.35 1950.74 739.65 1952.76L739.63 1952.75Z" fill="#5FA9E9"/>
<path d="M989.63 1863.96C1042.74 1806.28 1137.06 1814.37 1205.83 1881.52C1137.65 1939.39 1027.54 1931.18 989.63 1863.96Z" fill="#5FA9E9"/>
<path d="M1368.46 918.45C1393.21 858.58 1468.28 842.02 1547.68 878.03C1500.89 942.36 1422.82 960.51 1368.46 918.45Z" fill="#5FA9E9"/>
<path d="M577.74 2070.87C645.2 2063.55 692.71 2105.9 713.94 2190.13C637.85 2193.09 560.94 2131.89 577.74 2070.87Z" fill="#5FA9E9"/>
<path d="M955.85 1732.78C916.64 1685.32 934.36 1614.77 1008.76 1558.37C1038.32 1639.72 1015.42 1716.39 955.85 1732.78Z" fill="#5FA9E9"/>
<path d="M548.5 653.32C611.53 710.76 623.57 786.73 578.05 832.89C520.9 806.69 507.59 729.28 548.5 653.32Z" fill="#5FA9E9"/>
<path d="M995.3 969.54C933.64 950.81 917.43 867.88 948.6 793.55C1020.83 851.39 1036.2 930.31 995.3 969.54Z" fill="#5FA9E9"/>
<path d="M1399.08 1707.96C1353.16 1730.9 1311.47 1754 1263.45 1737.55C1244.65 1731.11 1229.62 1713.68 1212.87 1701.25C1230.91 1689.5 1247.59 1671.61 1267.28 1667.22C1315.81 1656.41 1356.2 1680.34 1399.08 1707.96Z" fill="#5FA9E9"/>
<path d="M1622.6 595.41C1612.07 637.4 1602.57 675.82 1572.27 701.6C1555.66 715.74 1532.5 723.22 1511.18 730.44C1494.98 735.93 1488.74 725.78 1489.87 709.28C1491.72 682.23 1502.75 659.75 1522.49 642.06C1549.85 617.55 1583.1 604.95 1622.59 595.41H1622.6Z" fill="#5FA9E9"/>
<path d="M1076.7 2039.42C1126.23 1994.31 1190.23 2002.87 1257.04 2062.46C1201.07 2109.66 1107.44 2098.35 1076.7 2039.42Z" fill="#5FA9E9"/>
<path d="M1425.34 551.83C1386.03 628.11 1320.42 659.86 1260.81 632.56C1268.43 569.87 1339.96 534.24 1425.34 551.83Z" fill="#5FA9E9"/>
<path d="M1245.16 1128.35C1213.38 1200.96 1140.66 1236.69 1082.15 1208.43C1085.65 1148.21 1160.96 1110.25 1245.16 1128.35Z" fill="#5FA9E9"/>
<path d="M1432.59 1424.11C1417.96 1476.05 1402.1 1523.15 1351.95 1545.52C1336.52 1552.4 1316.81 1549.68 1299.06 1551.36C1301.04 1533.91 1298.43 1514.15 1305.84 1499.42C1330.89 1449.61 1379.24 1435.84 1432.59 1424.11Z" fill="#5FA9E9"/>
<path d="M532.54 1247.14C466.6 1265.68 413.48 1205.01 395.3 1128.81C480.31 1130.06 542.68 1188.22 532.54 1247.14Z" fill="#5FA9E9"/>
<path d="M1508.61 304.58C1501.41 380.38 1448.51 446.74 1383.86 433.52C1366.79 370.31 1434.27 315.09 1508.61 304.58Z" fill="#5FA9E9"/>
<path d="M1382.67 0C1421.09 54.03 1418.6 123.49 1382.92 158.21C1368.15 172.58 1355.41 173.23 1349.66 152.97C1343.59 131.58 1335.59 107 1340.79 87.04C1348.44 57.65 1367.04 31.12 1382.68 0L1382.67 0Z" fill="#5FA9E9"/>
<path d="M1410.21 1016.58C1345.6 1067.76 1275.88 1064.81 1245.58 1020.47C1273.36 972.55 1333.2 970.72 1410.21 1016.58Z" fill="#5FA9E9"/>
<path d="M807.4 1226.01C786.96 1173.39 814.65 1121.38 875.9 1095.13C894.85 1151.79 861.85 1216.19 807.4 1226.01Z" fill="#5FA9E9"/>
<path d="M437.93 841.62C509.64 850 549 886.39 547.72 941.59C494.82 951.67 447.06 908.77 437.93 841.62Z" fill="#5FA9E9"/>
<path d="M1335.33 820.29C1305.68 779.33 1318.65 733.32 1370.14 692.42C1397.53 739.68 1381.9 799.11 1335.33 820.29Z" fill="#5FA9E9"/>
<path d="M1016.99 289.73C1071.68 328.92 1086.63 367.25 1065.39 410.75C1020.15 403.7 998.89 352.07 1016.99 289.73Z" fill="#5FA9E9"/>
<path d="M661.62 1048.15C643.51 1003.43 665.17 965.51 724.33 936.16C737.26 994.1 705.27 1044.83 661.62 1048.15Z" fill="#5FA9E9"/>
<path d="M455.99 996.65C510.46 995.58 549.17 1026.6 554.8 1075.82C519.48 1098.59 467.36 1055.51 455.99 996.65Z" fill="#5FA9E9"/>
<path d="M1233.99 793.11C1250.51 830.46 1268.22 862.99 1247.51 900.06C1243.26 907.67 1234.39 912.7 1227.65 918.92C1221.15 911.43 1211.95 904.97 1208.61 896.27C1193.99 858.24 1211.67 827.45 1234 793.12L1233.99 793.11Z" fill="#5FA9E9"/>
<path d="M1177.84 1465.15C1211.8 1507.69 1210.37 1556.61 1174.27 1586.67C1137.1 1563.75 1143.44 1505.6 1177.84 1465.15Z" fill="#5FA9E9"/>
<path d="M1355.25 301.42C1352.02 255.01 1382.82 223.33 1439.99 214.29C1438.46 267.74 1400.19 307.09 1355.25 301.42Z" fill="#5FA9E9"/>
<path d="M982.14 497.8C1039.33 488.38 1074.93 506.29 1090.74 551.18C1056.19 576 1010.76 554.19 982.14 497.8Z" fill="#5FA9E9"/>
<path d="M1267.6 311.88C1228 300.54 1219.24 237.52 1244.97 195.06C1286.79 224.86 1296.89 276.96 1267.6 311.88Z" fill="#5FA9E9"/>
<path d="M1050.79 745.32C1084.21 794.66 1082.7 837.23 1046.48 866.55C1010.81 838.83 1012.49 791.6 1050.79 745.32Z" fill="#5FA9E9"/>
<path d="M1166.51 435.49C1201.04 476.52 1199.05 529.13 1162.02 554.63C1127.42 526.47 1129.27 477.33 1166.51 435.49Z" fill="#5FA9E9"/>
<path d="M632.77 920.84C614.3 880.01 635.43 841.07 688.74 817.67C701.3 858.47 676.56 919.41 632.77 920.84Z" fill="#5FA9E9"/>
<path d="M887.19 950.67C895.94 1001.13 875.65 1037.84 837.05 1043.81C819.77 1009.75 837.76 975.44 887.19 950.67Z" fill="#5FA9E9"/>
<path d="M1117.29 425.42C1090.28 399.45 1092.21 364.01 1121.19 332.39C1147.9 367.91 1146.97 400.41 1117.29 425.42Z" fill="#5FA9E9"/>
</g>
</g>
<defs>
<filter id="filter0_d_9_110" x="-413" y="0" width="2039.6" height="2381.69" filterUnits="userSpaceOnUse" color-interpolation-filters="sRGB">
<feFlood flood-opacity="0" result="BackgroundImageFix"/>
<feColorMatrix in="SourceAlpha" type="matrix" values="0 0 0 0 0 0 0 0 0 0 0 0 0 0 0 0 0 0 127 0" result="hardAlpha"/>
<feOffset dy="4"/>
<feGaussianBlur stdDeviation="2"/>
<feComposite in2="hardAlpha" operator="out"/>
<feColorMatrix type="matrix" values="0 0 0 0 0 0 0 0 0 0 0 0 0 0 0 0 0 0 0.25 0"/>
<feBlend mode="normal" in2="BackgroundImageFix" result="effect1_dropShadow_9_110"/>
<feBlend mode="normal" in="SourceGraphic" in2="effect1_dropShadow_9_110" result="shape"/>
</filter>
<clipPath id="clip0_9_110">
<rect width="2031.6" height="2373.69" fill="white" transform="translate(-409)"/>
</clipPath>
</defs>
</svg>
