<svg width="1271" height="1746" viewBox="0 0 1271 1746" fill="none" xmlns="http://www.w3.org/2000/svg">
<g opacity="0.5" clip-path="url(#clip0_212_2)">
<path d="M2813.42 929.52C2782.2 951.673 2753.18 976.802 2720.23 994.696C2655.17 1030.07 2590.28 1067.84 2521.12 1093.14C2398.24 1138.11 2277.83 1120.5 2163.49 1057.95C2106.44 1026.73 2049.04 996.139 1991.82 965.258C1845.52 886.316 1693.2 883.981 1537.98 932.009C1483.08 949.003 1428.77 945.587 1376.3 929.802C1285.24 902.379 1193.04 886.233 1098.25 879.035C1018.25 872.967 947.858 842.055 893.314 779.037C851.218 730.403 794.61 708.337 730.991 701.023C731.345 702.941 731.277 705.319 731.897 705.51C802.268 727.753 852.462 773.847 895.83 832.801C937.664 889.648 1001.65 916.149 1068.86 932.033C1105.77 940.751 1144.11 943.354 1181.02 951.994C1233.05 964.172 1284.36 979.41 1335.97 993.319C1336.08 996.504 1336.19 999.714 1336.32 1002.89C1299.58 1015.82 1263.05 1029.44 1226.03 1041.57C1126.95 1074.04 1026.29 1093.54 921.979 1071.18C893.014 1064.97 863.876 1057.53 836.441 1046.53C735.134 1005.89 629.715 989.774 521.226 986.202C413.144 982.632 304.387 980.916 199.364 943.56C207.168 947.815 214.728 952.675 222.828 956.188C302.358 990.702 387.225 1000.04 472.212 1009.89C539.4 1017.66 606.234 1028.48 673.159 1038.41C685.603 1040.26 697.714 1044.43 710.069 1052.67C626.359 1080.54 543.385 1111.14 458.491 1134.8C428.289 1143.21 393.402 1134.8 360.847 1134.05C416.119 1163.74 473.644 1160.1 531.976 1142.81C580.93 1128.29 629.645 1113.02 678.78 1099.21C738.212 1082.5 797.144 1080.55 856.265 1103.56C964.865 1145.82 1076.81 1146.49 1187.52 1117.12C1300.42 1087.19 1411.09 1048.92 1523.35 1016.39C1651.56 979.203 1780.03 962.243 1906.41 1024.65C1911.28 1027.05 1916.01 1029.79 1924.87 1034.56C1909.62 1041.99 1897.4 1047.53 1885.53 1053.76C1827.81 1084.1 1776.55 1124.56 1740.46 1177.68C1681.57 1264.31 1597.16 1300.9 1499.77 1316.8C1448.58 1325.14 1396.8 1330.01 1336.59 1337.53C1364.94 1340.88 1385.51 1344.03 1406.18 1345.65C1481.87 1351.59 1556.44 1343.61 1630.28 1326.83C1680.32 1315.46 1717.71 1285.12 1754.44 1250.97C1801.1 1207.57 1850.19 1166.37 1901.3 1128.35C1921.96 1113.01 1950.21 1106.54 1975.96 1099.79C2010.3 1090.8 2042.03 1096.56 2074.01 1116.21C2190.68 1187.78 2314.97 1231.9 2455.14 1211.66C2561.03 1196.36 2656.64 1154.74 2747.21 1099.77C2751.19 1097.35 2755.03 1094.76 2758.97 1092.28C2845.64 1037.95 2847.41 1032.81 2813.39 929.5L2813.42 929.52Z" fill="white"/>
<path d="M662.867 902.021C715.375 911.263 760.83 915.907 802.405 887.465C824.638 872.264 845.633 826.159 835.423 822.782C811.046 814.698 784.014 809.038 758.787 811.21C742.57 812.606 725.593 827.496 712.762 840.195C695.313 857.487 681.494 878.457 662.842 902.026L662.867 902.021Z" fill="white"/>
<path d="M467.787 1185.63C392.078 1188.97 356.762 1243.01 366.356 1338.63C444.386 1330.11 493.178 1257.78 467.787 1185.63Z" fill="white"/>
<path d="M491.65 623.258C524.04 688.566 583.01 719.556 631.536 701.758C660.298 691.201 663.285 683.018 647.232 657.523C632.477 634.103 611.329 618.453 583.754 617.828C553.983 617.152 524.134 621.144 491.65 623.258Z" fill="white"/>
<path d="M1112.3 1263.75C1137.54 1300.59 1161.75 1330.58 1201.19 1343C1228.05 1351.44 1273.43 1340.02 1277.69 1324.71C1281.78 1310.07 1254.88 1273.51 1231.09 1263.36C1193.08 1247.14 1154.9 1253.66 1112.27 1263.75L1112.3 1263.75Z" fill="white"/>
<path d="M210.443 777.68C186.537 849.428 209.437 916.491 257.443 936.587C284.31 947.822 291.292 944.191 296.814 915.064C304.17 876.466 289.219 846.341 260.562 821.574C244.555 807.746 228.713 793.71 210.443 777.68Z" fill="white"/>
<path d="M282.557 1136.09C235.135 1086.84 162.838 1103.41 113.107 1174.92C186.464 1214.83 256.349 1198.83 282.557 1136.09Z" fill="white"/>
<path d="M48.6203 977.129C96.1742 1013.89 145.193 1016.91 176.028 988.827C190.584 975.554 190.67 965.567 174.394 953.722C145.666 932.835 116.865 938.643 88.2695 952.298C75.3024 958.486 63.6814 967.553 48.6403 977.1L48.6203 977.129Z" fill="white"/>
<path d="M609.315 754.296C645.408 777.892 678.726 800.5 721.061 780.158C730.938 775.407 742.047 765.086 744.178 755.434C745.521 749.36 732.499 738.058 723.851 732.128C694.125 711.756 653.518 719.442 609.291 754.301L609.315 754.296Z" fill="white"/>
<path d="M91.7453 852.558C130.019 806.259 86.5826 742.536 39.321 726.881C18.2916 790.95 36.8172 836.692 91.7453 852.558Z" fill="white"/>
<path d="M1240.38 1444.14C1293.5 1455.02 1337.87 1436.62 1352.95 1398.81C1361.06 1378.43 1354.33 1369.81 1333.93 1367.3C1293.08 1362.28 1253.4 1394.63 1240.38 1444.14Z" fill="white"/>
<path d="M217.624 1272.94C253.195 1277.07 286.429 1278.05 311.091 1253.98C323.371 1242.01 326.839 1221.03 334.317 1204.13C316.022 1201.99 295.708 1193.74 279.817 1198.97C246.622 1209.89 229.293 1238.55 217.624 1272.94Z" fill="white"/>
<path d="M1054.83 848.705C1076.82 797.66 1051.17 755.193 986.481 733.018C969.81 791.093 997.984 840.062 1054.83 848.705Z" fill="white"/>
<path d="M558.669 1251.98C619.789 1239.18 651.993 1187.01 629.98 1146.74C578.672 1145.37 554.125 1180.78 558.669 1251.98Z" fill="white"/>
<path d="M835.38 940.125C885.458 976.93 938.958 970.905 962.375 925.802C939.049 888.197 881.036 889.613 835.38 940.125Z" fill="white"/>
<path d="M813.56 601.946C802.361 645.884 809.015 674.311 833.641 691.303C854.567 705.747 865.067 700.932 868.105 675.418C871.526 646.755 851.998 619.792 813.56 601.946Z" fill="white"/>
<path d="M374.693 1036.77C392.478 1089.65 420.751 1108.07 462.418 1093.88C462.093 1048.95 424.575 1024.52 374.693 1036.77Z" fill="white"/>
</g>
<g opacity="0.3" clip-path="url(#clip1_212_2)">
<path d="M2382.51 641.826C2356.34 652.259 2331.23 665.202 2304.56 672.289C2251.89 686.316 2198.92 702.078 2145.07 708.185C2049.37 719.051 1966.29 685.571 1895.36 621.01C1859.96 588.789 1824.21 556.953 1788.63 524.944C1697.67 443.112 1589.12 415.033 1469.77 422.477C1427.55 425.113 1389.3 413.255 1354.5 392.866C1294.12 357.464 1230.97 329.928 1164.41 308.345C1108.24 290.136 1063.25 255.82 1035.16 201.287C1013.48 159.201 976.813 133.602 932.575 117.34C932.496 118.774 932.034 120.463 932.445 120.707C978.925 148.818 1006.84 190.491 1027.64 240.18C1047.7 288.095 1088.88 318.146 1134.2 341.16C1159.09 353.794 1186.06 362.303 1210.97 374.883C1246.08 392.615 1280.13 412.41 1314.64 431.308C1314.16 433.605 1313.69 435.92 1313.23 438.218C1284.71 441.091 1256.21 444.501 1227.63 446.764C1151.13 452.805 1075.75 449.302 1005.01 415.228C985.371 405.758 965.817 395.39 948.101 382.763C882.681 336.132 810.07 306.324 733.088 284.96C656.396 263.667 578.9 243.584 510.254 198.656C515.099 203.052 519.664 207.839 524.848 211.756C575.752 250.232 634.838 271.626 693.921 293.406C740.632 310.615 786.564 329.939 832.713 348.648C841.294 352.125 849.234 357.208 856.642 365.249C791.934 370.666 727.276 378.171 662.45 380.374C639.389 381.151 615.892 369.091 592.735 362.913C627.123 393.732 668.902 401.102 713.625 398.843C751.16 396.944 788.652 394.472 826.193 393.109C871.602 391.459 914.093 400.287 952.394 426.99C1022.75 476.05 1102.7 495.937 1186.99 494.122C1272.93 492.288 1358.73 484.103 1444.67 480.297C1542.83 475.926 1637.66 486.068 1717.24 552.616C1720.31 555.181 1723.21 557.959 1728.73 562.909C1716.53 565.575 1706.83 567.419 1697.26 569.824C1650.71 581.514 1607.03 601.567 1572 633.305C1514.86 685.065 1448.14 696.604 1375.72 691.089C1337.66 688.183 1299.78 682.687 1255.4 677.627C1275.1 684.943 1289.27 690.756 1303.77 695.5C1356.88 712.877 1411.61 720.092 1467.33 720.891C1505.1 721.439 1537.1 706.219 1569.3 688.153C1610.2 665.201 1652.45 644.24 1695.61 625.91C1713.04 618.518 1734.37 618.788 1753.96 618.428C1780.08 617.948 1801.78 627.568 1821.25 647.168C1892.29 718.593 1973.55 771.701 2077.32 781.523C2155.72 788.934 2231.32 775.746 2305.64 752.125C2308.9 751.088 2312.1 749.899 2315.35 748.806C2386.76 724.97 2388.92 721.604 2382.49 641.806L2382.51 641.826Z" fill="white"/>
<path d="M848.998 249.303C884.955 265.017 916.663 276.22 951.333 263.083C969.872 256.065 992.883 226.726 986.165 222.54C970.13 212.531 951.775 203.796 933.354 200.976C921.512 199.162 906.787 206.87 895.407 213.729C879.928 223.073 866.408 235.677 848.98 249.302L848.998 249.303Z" fill="white"/>
<path d="M1245.28 819.347C1279.54 814.614 1308.85 807.138 1331.47 783.88C1345.18 769.793 1353.11 733.558 1345.32 725.091C1337.36 716.43 1301.22 721.779 1285.85 734.798C1260.95 755.884 1252.38 785.151 1245.28 819.347Z" fill="white"/>
<path d="M660.287 418.345C605.554 407.608 570.922 440.143 561.207 510.203C618.5 517.633 665.941 474.354 660.287 418.345Z" fill="white"/>
<path d="M774.858 20.2196C786.703 72.5499 823.511 104.941 861.308 100.623C883.712 98.0581 887.267 92.7227 880.204 71.7033C873.711 52.3929 861.297 37.5318 841.681 32.304C820.503 26.6585 798.46 24.3393 774.858 20.2196Z" fill="white"/>
<path d="M1107.76 585.965C1119.43 616.697 1131.54 642.345 1157.6 658.068C1175.35 668.761 1209.79 668.462 1215.5 658.248C1220.96 648.482 1208.06 617.665 1192.8 606.279C1168.42 588.087 1139.98 586.135 1107.74 585.964L1107.76 585.965Z" fill="white"/>
<path d="M546.939 81.9226C517.399 129.099 522.152 181.039 553.007 203.737C570.277 216.431 575.9 215.045 584.9 195.167C596.854 168.834 591.382 144.694 575.178 122.01C566.126 109.343 557.228 96.5561 546.939 81.9226Z" fill="white"/>
<path d="M536.382 350.796C511 307.345 456.413 306.664 408.442 349.194C453.995 390.455 506.758 391.128 536.382 350.796Z" fill="white"/>
<path d="M396.608 196.532C424.249 231.073 458.789 241.731 485.714 226.988C498.427 220.018 500.22 212.89 490.632 201.595C473.704 181.674 452.096 180.835 429.274 185.645C418.926 187.822 409.041 192.293 396.627 196.514L396.608 196.532Z" fill="white"/>
<path d="M836.305 134.351C858.031 157.487 877.943 179.434 911.752 172.224C919.641 170.538 929.377 165.082 932.574 158.546C934.588 154.435 927.233 144.093 922.075 138.352C904.344 118.626 873.966 117.083 836.286 134.35L836.305 134.351Z" fill="white"/>
<path d="M449.053 114.903C484.456 88.4217 464.435 35.3096 433.343 15.9177C407.193 58.1003 412.513 94.0315 449.053 114.903Z" fill="white"/>
<path d="M1168.1 737.205C1204.21 754.199 1239.14 748.728 1256.48 724.295C1265.81 711.129 1262.49 703.792 1248.34 698.46C1219.99 687.792 1186 704.045 1168.1 737.205Z" fill="white"/>
<path d="M466.21 437.423C490.937 446.545 514.54 453.006 536.353 440.066C547.212 433.639 553.331 419.226 561.61 408.435C548.894 403.735 535.793 394.311 523.521 395.295C497.883 397.351 480.518 414.85 466.21 437.423Z" fill="white"/>
<path d="M1138.61 279.123C1163.19 246.423 1152.21 211.599 1109.78 184.522C1087.79 223.173 1099.45 263.085 1138.61 279.123Z" fill="white"/>
<path d="M713.792 481.56C759.73 483 791.811 451.266 783.046 418.648C746.584 408.769 722.885 429.847 713.792 481.56Z" fill="white"/>
<path d="M965.79 306.468C995.23 341.477 1034.54 346.443 1059.11 318.241C1048.95 287.297 1007.2 278.252 965.79 306.468Z" fill="white"/>
<path d="M1008.81 60.7862C993.186 90.2732 993.017 111.761 1007.69 128.184C1020.15 142.145 1028.5 140.521 1035.09 122.797C1042.51 102.888 1033.21 80.2155 1008.81 60.7862Z" fill="white"/>
<path d="M619.506 295.727C623.06 336.631 640.089 354.715 672.353 351.789C679.912 319.59 657.31 295.613 619.506 295.727Z" fill="white"/>
</g>
<defs>
<clipPath id="clip0_212_2">
<rect width="2734" height="1049" fill="white" transform="matrix(-0.983334 0.181806 0.181806 0.983334 2688.44 217.1)"/>
</clipPath>
<clipPath id="clip1_212_2">
<rect width="2012.25" height="772.073" fill="white" transform="matrix(-0.998489 -0.054946 -0.054946 0.998489 2416.63 110.565)"/>
</clipPath>
</defs>
</svg>
