<svg width="1920" height="1852" viewBox="0 0 1920 1852" fill="none" xmlns="http://www.w3.org/2000/svg">
<rect width="1920" height="1080" fill="url(#paint0_diamond_213_25)"/>
<g opacity="0.5" clip-path="url(#clip0_213_25)">
<path d="M3339.34 1202.25C3302.74 1213.49 3267.31 1228.25 3230.41 1234.9C3157.54 1248.08 3084.07 1263.57 3010.47 1265.9C2879.68 1270.04 2770.87 1215.53 2681.94 1120.27C2637.56 1072.73 2592.66 1025.67 2548.02 978.393C2433.88 857.533 2289.98 807.522 2127.53 804.423C2070.07 803.331 2019.58 783.049 1974.71 751.597C1896.85 696.987 1814.37 652.725 1726.63 616.148C1652.58 585.288 1595.44 533.848 1563.42 456.898C1538.71 397.512 1491.88 358.798 1433.77 331.891C1433.51 333.824 1432.7 336.061 1433.22 336.436C1493.06 379.637 1526.26 439.152 1548.94 508.736C1570.82 575.839 1623.27 621.079 1682.1 657.25C1714.4 677.107 1749.99 691.608 1782.33 711.394C1827.91 739.284 1871.84 769.85 1916.49 799.252C1915.59 802.31 1914.69 805.392 1913.81 808.453C1874.87 809.195 1835.91 810.666 1796.96 810.574C1692.7 810.307 1591 797.239 1498.97 743.285C1473.42 728.293 1448.08 712.093 1425.49 693.038C1342.05 622.666 1247.01 574.283 1145.12 536.851C1043.62 499.548 940.891 463.794 852.893 395.372C858.968 401.86 864.621 408.847 871.209 414.724C935.893 472.449 1013.54 507.944 1091.15 543.963C1152.5 572.426 1212.57 603.666 1273 634.097C1284.23 639.754 1294.43 647.514 1303.57 659.22C1215.34 659.411 1126.96 662.433 1038.93 658.259C1007.61 656.765 977.126 637.839 946.448 626.914C989.613 672.448 1045.38 687.04 1106.19 688.92C1157.23 690.494 1208.27 691.286 1259.26 693.586C1320.93 696.366 1377.5 713.013 1426.42 753.403C1516.27 827.608 1622.35 863.368 1736.69 870.218C1853.28 877.225 1970.36 875.616 2087.17 879.951C2220.57 884.872 2347.87 909.077 2448.29 1007.98C2452.16 1011.8 2455.79 1015.88 2462.71 1023.19C2445.89 1025.45 2432.55 1026.88 2419.33 1029.08C2355 1039.77 2293.64 1062.1 2242.7 1101.21C2159.6 1165 2067.98 1173.25 1970.52 1157.79C1919.29 1149.65 1868.6 1138.02 1809.07 1126.27C1834.94 1138.36 1853.48 1147.79 1872.59 1155.82C1942.6 1185.21 2015.91 1201.03 2091.29 1208.26C2142.37 1213.17 2187.39 1196.1 2232.98 1175.19C2290.91 1148.62 2350.44 1124.9 2410.9 1104.85C2435.33 1096.76 2464.18 1099.48 2490.75 1101.16C2526.18 1103.39 2554.49 1118.82 2578.7 1147.51C2667.01 1252.08 2771.19 1332.97 2910.63 1357.73C3015.97 1376.42 3119.81 1366.91 3223.05 1343.13C3227.59 1342.09 3232.05 1340.83 3236.57 1339.71C3335.91 1315.32 3339.21 1311 3339.32 1202.23L3339.34 1202.25Z" fill="white"/>
<path d="M1306.02 501.364C1352.98 526.614 1394.68 545.287 1443.08 531.326C1468.96 523.869 1503.36 486.679 1494.73 480.269C1474.12 464.945 1450.23 451.089 1425.59 445.235C1409.76 441.472 1388.96 450.283 1372.8 458.315C1350.8 469.259 1331.1 484.835 1306 501.36L1306.02 501.364Z" fill="white"/>
<path d="M1779.71 1317.07C1826.63 1314.44 1867.15 1307.56 1900.35 1278.56C1920.47 1261 1935.21 1212.8 1925.6 1200.48C1915.77 1187.87 1866.24 1191.12 1843.99 1207.05C1807.94 1232.86 1793.1 1271.54 1779.71 1317.07Z" fill="white"/>
<path d="M1031.81 709.44C958.871 688.856 908.382 729.09 887.488 822.891C964.253 839.279 1033.28 785.911 1031.81 709.44Z" fill="white"/>
<path d="M1230.92 182.956C1241.18 255.129 1287.45 303.057 1339.11 301.384C1369.73 300.384 1375.14 293.551 1367.89 264.307C1361.23 237.44 1346.06 215.945 1320.08 206.699C1292.02 196.716 1262.43 191.141 1230.92 182.956Z" fill="white"/>
<path d="M1619.25 985.842C1631.66 1028.75 1645.24 1064.82 1678.79 1088.99C1701.65 1105.43 1748.32 1108.82 1757.17 1095.62C1765.64 1083 1751.58 1039.84 1732.17 1022.74C1701.17 995.413 1662.87 989.629 1619.23 985.838L1619.25 985.842Z" fill="white"/>
<path d="M915.461 241.345C870.249 301.969 870.95 372.83 910.227 406.974C932.211 426.072 939.98 424.815 954.362 398.891C973.458 364.55 968.714 331.256 949.275 298.748C938.416 280.596 927.778 262.297 915.461 241.345Z" fill="white"/>
<path d="M871.474 604.283C841.9 542.64 768.055 535.69 698.396 587.987C755.528 648.892 826.904 655.629 871.474 604.283Z" fill="white"/>
<path d="M699.229 379.946C732.846 429.774 778.442 448.021 816.532 431.03C834.517 422.995 837.732 413.539 825.995 397.185C805.272 368.339 776.103 364.817 744.667 368.81C730.413 370.616 716.534 375.579 699.257 379.924L699.229 379.946Z" fill="white"/>
<path d="M1301.53 344.296C1328.39 378.025 1352.93 409.945 1399.51 403.915C1410.38 402.502 1424.17 396.189 1429.22 387.692C1432.4 382.347 1423.58 367.53 1417.23 359.186C1395.4 330.515 1354.43 325.071 1301.5 344.293L1301.53 344.296Z" fill="white"/>
<path d="M779.263 275.197C830.13 243.246 808.882 169.111 768.919 139.418C728.849 193.653 732.086 242.898 779.263 275.197Z" fill="white"/>
<path d="M1684.27 1197.31C1731.29 1224.31 1779.2 1220.76 1805.38 1189.59C1819.47 1172.79 1815.78 1162.49 1797.2 1153.7C1759.99 1136.13 1712.17 1154.38 1684.27 1197.31Z" fill="white"/>
<path d="M766.882 713.843C799.36 728.927 830.609 740.283 861.577 725.168C876.991 717.664 886.869 698.822 899.272 685.123C882.572 677.354 865.872 663.146 849.143 663.124C814.198 663.076 788.751 684.856 766.882 713.843Z" fill="white"/>
<path d="M1694.92 573.727C1731.81 532.159 1720.79 483.789 1666.32 442.436C1632.27 492.347 1643.66 547.684 1694.92 573.727Z" fill="white"/>
<path d="M1097.28 800.952C1159.33 807.976 1206.28 768.544 1198.01 723.406C1149.72 706.001 1115.3 731.928 1097.28 800.952Z" fill="white"/>
<path d="M1457.87 591.673C1493.87 642.333 1546.56 653.398 1582.94 617.921C1572.59 574.895 1517.07 558.037 1457.87 591.673Z" fill="white"/>
<path d="M1543.26 263.726C1518.84 301.931 1516.24 331.011 1534.29 354.871C1549.63 375.152 1561.11 373.874 1572 350.602C1584.24 324.46 1574.16 292.731 1543.26 263.726Z" fill="white"/>
<path d="M1865.22 1041.6C1865.93 1075.78 1870.12 1103.97 1896.24 1121.59C1905.41 1127.78 1920.15 1125.76 1932.33 1127.48C1932.99 1115.88 1938.28 1101.41 1933.26 1093.3C1924.08 1078.38 1909.53 1066.34 1895.79 1054.81C1889.07 1049.16 1879.09 1047.37 1865.2 1041.57L1865.22 1041.6Z" fill="white"/>
<path d="M990.12 538.889C990.416 594.673 1011.48 621.042 1055.49 620.642C1069.29 577.874 1041.33 542.91 990.12 538.889Z" fill="white"/>
</g>
<g opacity="0.5" clip-path="url(#clip1_213_25)">
<path d="M3462.42 1035.42C3431.2 1057.57 3402.18 1082.7 3369.23 1100.6C3304.17 1135.97 3239.28 1173.74 3170.12 1199.04C3047.24 1244.01 2926.82 1226.4 2812.49 1163.85C2755.44 1132.63 2698.04 1102.04 2640.82 1071.16C2494.52 992.216 2342.2 989.881 2186.98 1037.91C2132.08 1054.9 2077.77 1051.49 2025.3 1035.7C1934.24 1008.28 1842.04 992.133 1747.25 984.936C1667.25 978.868 1596.86 947.956 1542.31 884.937C1500.22 836.304 1443.61 814.238 1379.99 806.923C1380.35 808.841 1380.28 811.22 1380.9 811.41C1451.27 833.654 1501.46 879.747 1544.83 938.701C1586.66 995.548 1650.65 1022.05 1717.86 1037.93C1754.77 1046.65 1793.11 1049.25 1830.02 1057.89C1882.05 1070.07 1933.36 1085.31 1984.97 1099.22C1985.08 1102.4 1985.19 1105.61 1985.32 1108.8C1948.58 1121.72 1912.05 1135.34 1875.03 1147.47C1775.95 1179.94 1675.29 1199.44 1570.98 1177.08C1542.01 1170.87 1512.88 1163.43 1485.44 1152.43C1384.13 1111.79 1278.71 1095.67 1170.23 1092.1C1062.14 1088.53 953.387 1086.82 848.364 1049.46C856.168 1053.72 863.728 1058.57 871.827 1062.09C951.357 1096.6 1036.22 1105.94 1121.21 1115.79C1188.4 1123.56 1255.23 1134.38 1322.16 1144.31C1334.6 1146.16 1346.71 1150.33 1359.07 1158.58C1275.36 1186.44 1192.38 1217.04 1107.49 1240.7C1077.29 1249.11 1042.4 1240.7 1009.85 1239.96C1065.12 1269.64 1122.64 1266 1180.98 1248.71C1229.93 1234.19 1278.64 1218.92 1327.78 1205.11C1387.21 1188.4 1446.14 1186.45 1505.26 1209.46C1613.86 1251.72 1725.81 1252.39 1836.52 1223.02C1949.42 1193.09 2060.09 1154.82 2172.35 1122.29C2300.56 1085.1 2429.03 1068.14 2555.41 1130.55C2560.28 1132.95 2565.01 1135.69 2573.87 1140.46C2558.62 1147.89 2546.4 1153.43 2534.53 1159.66C2476.8 1190 2425.55 1230.46 2389.46 1283.58C2330.57 1370.21 2246.16 1406.8 2148.77 1422.7C2097.58 1431.04 2045.8 1435.91 1985.58 1443.43C2013.94 1446.78 2034.51 1449.93 2055.17 1451.55C2130.87 1457.5 2205.44 1449.51 2279.28 1432.73C2329.32 1421.36 2366.71 1391.03 2403.44 1356.87C2450.1 1313.47 2499.19 1272.27 2550.3 1234.25C2570.96 1218.91 2599.21 1212.44 2624.96 1205.69C2659.3 1196.7 2691.03 1202.46 2723.01 1222.11C2839.67 1293.69 2963.97 1337.8 3104.14 1317.56C3210.03 1302.26 3305.64 1260.64 3396.21 1205.67C3400.19 1203.25 3404.03 1200.66 3407.97 1198.18C3494.64 1143.85 3496.41 1138.71 3462.39 1035.4L3462.42 1035.42Z" fill="white"/>
<path d="M1311.87 1007.92C1364.37 1017.16 1409.83 1021.81 1451.4 993.365C1473.64 978.165 1494.63 932.059 1484.42 928.682C1460.05 920.598 1433.01 914.938 1407.79 917.11C1391.57 918.506 1374.59 933.396 1361.76 946.095C1344.31 963.387 1330.49 984.358 1311.84 1007.93L1311.87 1007.92Z" fill="white"/>
<path d="M1116.79 1291.53C1041.08 1294.87 1005.76 1348.91 1015.36 1444.53C1093.39 1436.01 1142.18 1363.68 1116.79 1291.53Z" fill="white"/>
<path d="M1140.65 729.158C1173.04 794.467 1232.01 825.457 1280.54 807.658C1309.3 797.101 1312.28 788.918 1296.23 763.423C1281.48 740.003 1260.33 724.353 1232.75 723.728C1202.98 723.052 1173.13 727.044 1140.65 729.158Z" fill="white"/>
<path d="M1761.29 1369.65C1786.54 1406.49 1810.75 1436.48 1850.19 1448.9C1877.05 1457.34 1922.43 1445.92 1926.69 1430.61C1930.78 1415.97 1903.88 1379.41 1880.09 1369.26C1842.08 1353.04 1803.9 1359.56 1761.27 1369.65L1761.29 1369.65Z" fill="white"/>
<path d="M859.443 883.58C835.537 955.329 858.437 1022.39 906.443 1042.49C933.31 1053.72 940.292 1050.09 945.814 1020.96C953.17 982.366 938.218 952.242 909.561 927.475C893.555 913.647 877.713 899.61 859.443 883.58Z" fill="white"/>
<path d="M931.557 1241.99C884.135 1192.74 811.838 1209.31 762.107 1280.82C835.463 1320.73 905.349 1304.73 931.557 1241.99Z" fill="white"/>
<path d="M697.62 1083.03C745.174 1119.79 794.193 1122.81 825.028 1094.73C839.584 1081.45 839.67 1071.47 823.394 1059.62C794.666 1038.73 765.865 1044.54 737.269 1058.2C724.302 1064.39 712.681 1073.45 697.64 1083L697.62 1083.03Z" fill="white"/>
<path d="M1258.31 860.197C1294.41 883.792 1327.73 906.4 1370.06 886.058C1379.94 881.307 1391.05 870.987 1393.18 861.334C1394.52 855.261 1381.5 843.959 1372.85 838.028C1343.13 817.656 1302.52 825.342 1258.29 860.201L1258.31 860.197Z" fill="white"/>
<path d="M740.745 958.458C779.019 912.16 735.582 848.436 688.321 832.781C667.291 896.85 685.817 942.593 740.745 958.458Z" fill="white"/>
<path d="M1889.38 1550.04C1942.5 1560.92 1986.87 1542.52 2001.95 1504.71C2010.06 1484.33 2003.33 1475.71 1982.93 1473.2C1942.08 1468.19 1902.4 1500.53 1889.38 1550.04Z" fill="white"/>
<path d="M866.624 1378.84C902.195 1382.97 935.428 1383.95 960.09 1359.88C972.371 1347.92 975.838 1326.93 983.316 1310.03C965.022 1307.89 944.707 1299.64 928.817 1304.87C895.621 1315.79 878.293 1344.45 866.624 1378.84Z" fill="white"/>
<path d="M1703.83 954.605C1725.82 903.56 1700.17 861.093 1635.48 838.919C1618.81 896.993 1646.98 945.962 1703.83 954.605Z" fill="white"/>
<path d="M1207.67 1357.88C1268.79 1345.08 1300.99 1292.91 1278.98 1252.64C1227.67 1251.27 1203.12 1286.68 1207.67 1357.88Z" fill="white"/>
<path d="M1484.38 1046.03C1534.46 1082.83 1587.96 1076.81 1611.38 1031.7C1588.05 994.097 1530.04 995.513 1484.38 1046.03Z" fill="white"/>
<path d="M1462.56 707.846C1451.36 751.784 1458.01 780.212 1482.64 797.203C1503.57 811.648 1514.07 806.832 1517.1 781.318C1520.53 752.655 1501 725.692 1462.56 707.846Z" fill="white"/>
<path d="M1023.69 1142.67C1041.48 1195.55 1069.75 1213.97 1111.42 1199.78C1111.09 1154.85 1073.58 1130.42 1023.69 1142.67Z" fill="white"/>
</g>
<defs>
<radialGradient id="paint0_diamond_213_25" cx="0" cy="0" r="1" gradientUnits="userSpaceOnUse" gradientTransform="translate(94.9999 384.5) rotate(6.03679) scale(1835.18 3262.54)">
<stop stop-color="#56A5E8"/>
<stop offset="0.467261" stop-color="#A5C2EF" stop-opacity="0.666667"/>
<stop offset="0.987828" stop-color="#CDDDF6"/>
</radialGradient>
<clipPath id="clip0_213_25">
<rect width="2734" height="1049" fill="white" transform="matrix(-0.99072 -0.135917 -0.135917 0.99072 3444.21 486.596)"/>
</clipPath>
<clipPath id="clip1_213_25">
<rect width="2734" height="1049" fill="white" transform="matrix(-0.983334 0.181806 0.181806 0.983334 3337.44 323)"/>
</clipPath>
</defs>
</svg>
