<svg width="196" height="73" viewBox="0 0 196 73" fill="none" xmlns="http://www.w3.org/2000/svg">
<g clip-path="url(#clip0_5_358)">
<path d="M44.9801 64.28V63.14H40.8501V58.11H41.6701V62.38H44.2701V58.11H45.0901V62.38H45.7201V64.29H44.9701L44.9801 64.28Z" fill="#030303"/>
<path d="M50.5701 58.1V58.85H47.9201V60.22H50.3501V60.97H47.9201V62.39H50.6101V63.14H47.1001V58.11H50.5701V58.1Z" fill="#030303"/>
<path d="M56.3901 58.1V63.13H55.5701V60.99H52.9201V63.13H52.1001V58.1H52.9201V60.24H55.5701V58.1H56.3901Z" fill="#030303"/>
<path d="M61.7901 58.1V58.85H60.1301V63.13H59.3101V58.85H57.6401V58.1H61.7901Z" fill="#030303"/>
<path d="M64.8401 58.1C66.0301 58.1 66.9901 58.47 66.9901 59.75C66.9901 61.03 66.0301 61.4 64.8401 61.4H63.8601V63.13H63.0401V58.1H64.8401ZM64.8801 58.85H63.8601V60.66H64.8801C65.5701 60.66 66.1501 60.49 66.1501 59.75C66.1501 59.01 65.5701 58.84 64.8801 58.84V58.85Z" fill="#030303"/>
<path d="M74.8901 58.1V63.13H74.0701V60.99H71.4201V63.13H70.6001V58.1H71.4201V60.24H74.0701V58.1H74.8901Z" fill="#030303"/>
<path d="M80.1201 58.1V58.85H77.4701V60.22H79.9001V60.97H77.4701V62.39H80.1601V63.14H76.6501V58.11H80.1201V58.1Z" fill="#030303"/>
<path d="M81.6501 63.13V58.1H85.8801V63.13H85.0601V58.85H82.4701V63.13H81.6501Z" fill="#030303"/>
<path d="M89.4301 58.1C90.6201 58.1 91.5801 58.47 91.5801 59.75C91.5801 61.03 90.6201 61.4 89.4301 61.4H88.4501V63.13H87.6301V58.1H89.4301ZM89.4701 58.85H88.4501V60.66H89.4701C90.1601 60.66 90.7401 60.49 90.7401 59.75C90.7401 59.01 90.1601 58.84 89.4701 58.84V58.85Z" fill="#030303"/>
<path d="M96.4201 58.1V58.85H93.7701V60.22H96.2001V60.97H93.7701V62.39H96.4601V63.14H92.9501V58.11H96.4201V58.1Z" fill="#030303"/>
<path d="M99.7401 58.1C100.93 58.1 101.89 58.47 101.89 59.75C101.89 61.03 100.93 61.4 99.7401 61.4H98.7601V63.13H97.9401V58.1H99.7401ZM99.7801 58.85H98.7601V60.66H99.7801C100.47 60.66 101.05 60.49 101.05 59.75C101.05 59.01 100.47 58.84 99.7801 58.84V58.85Z" fill="#030303"/>
<path d="M103.26 63.13V58.1H104.08V59.83H105.06C106.25 59.83 107.21 60.2 107.21 61.48C107.21 62.76 106.25 63.13 105.06 63.13H103.26ZM104.08 62.38H105.1C105.8 62.38 106.37 62.21 106.37 61.47C106.37 60.73 105.79 60.56 105.1 60.56H104.08V62.37V62.38ZM107.7 63.13V58.1H108.52V63.13H107.7Z" fill="#030303"/>
<path d="M112.41 58.1C113.46 58.1 114.14 58.52 114.14 59.37C114.14 59.98 113.77 60.34 113.35 60.48C113.8 60.61 114.34 60.95 114.34 61.74C114.34 62.88 113.23 63.13 112.43 63.13H110.29V58.1H112.42H112.41ZM112.32 58.81H111.1V60.18H112.44C112.91 60.18 113.3 59.99 113.3 59.5C113.3 59.01 112.93 58.81 112.32 58.81ZM112.46 60.88H111.1V62.41H112.34C112.9 62.41 113.5 62.34 113.5 61.65C113.5 60.96 112.91 60.88 112.46 60.88Z" fill="#030303"/>
<path d="M120.08 58.1V63.13H119.26V60.99H116.61V63.13H115.79V58.1H116.61V60.24H119.26V58.1H120.08Z" fill="#030303"/>
<path d="M124.17 58.01C125.94 58.01 126.82 59.29 126.82 60.62C126.82 61.95 125.94 63.23 124.17 63.23C122.4 63.23 121.52 61.95 121.52 60.62C121.52 59.29 122.39 58.01 124.17 58.01ZM124.17 58.78C122.95 58.78 122.36 59.66 122.36 60.62C122.36 61.58 122.96 62.46 124.17 62.46C125.38 62.46 125.98 61.58 125.98 60.62C125.98 59.66 125.39 58.78 124.17 58.78Z" fill="#030303"/>
<path d="M128.26 63.13V58.1H131.67V58.85H129.08V63.13H128.26Z" fill="#030303"/>
<path d="M135.02 58.01C136.79 58.01 137.67 59.29 137.67 60.62C137.67 61.95 136.79 63.23 135.02 63.23C133.25 63.23 132.37 61.95 132.37 60.62C132.37 59.29 133.24 58.01 135.02 58.01ZM135.02 58.78C133.8 58.78 133.21 59.66 133.21 60.62C133.21 61.58 133.81 62.46 135.02 62.46C136.23 62.46 136.83 61.58 136.83 60.62C136.83 59.66 136.24 58.78 135.02 58.78Z" fill="#030303"/>
<path d="M141.35 63.13V58.1H145.58V63.13H144.76V58.85H142.17V63.13H141.35Z" fill="#030303"/>
<path d="M149.66 58.01C151.43 58.01 152.31 59.29 152.31 60.62C152.31 61.95 151.43 63.23 149.66 63.23C147.89 63.23 147.01 61.95 147.01 60.62C147.01 59.29 147.88 58.01 149.66 58.01ZM149.66 58.78C148.44 58.78 147.85 59.66 147.85 60.62C147.85 61.58 148.45 62.46 149.66 62.46C150.87 62.46 151.47 61.58 151.47 60.62C151.47 59.66 150.88 58.78 149.66 58.78Z" fill="#030303"/>
<path d="M155.88 58.1C156.93 58.1 157.61 58.52 157.61 59.37C157.61 59.98 157.24 60.34 156.82 60.48C157.27 60.61 157.81 60.95 157.81 61.74C157.81 62.88 156.7 63.13 155.9 63.13H153.76V58.1H155.89H155.88ZM155.79 58.81H154.57V60.18H155.91C156.38 60.18 156.77 59.99 156.77 59.5C156.77 59.01 156.4 58.81 155.79 58.81ZM155.93 60.88H154.57V62.41H155.81C156.37 62.41 156.97 62.34 156.97 61.65C156.97 60.96 156.38 60.88 155.93 60.88Z" fill="#030303"/>
<path d="M159.26 63.13V58.1H160.08V59.83H161.06C162.25 59.83 163.21 60.2 163.21 61.48C163.21 62.76 162.25 63.13 161.06 63.13H159.26ZM160.08 62.38H161.1C161.8 62.38 162.37 62.21 162.37 61.47C162.37 60.73 161.79 60.56 161.1 60.56H160.08V62.37V62.38ZM163.7 63.13V58.1H164.52V63.13H163.7Z" fill="#030303"/>
<path d="M166.28 63.13V58.1H167.1V62.37H169.06V58.1H169.88V62.37H171.84V58.1H172.66V63.13H166.28Z" fill="#030303"/>
<path d="M177.89 58.1V58.85H175.24V60.22H177.67V60.97H175.24V62.39H177.93V63.14H174.42V58.11H177.89V58.1Z" fill="#030303"/>
<path d="M183.71 58.1V63.13H182.89V60.99H180.24V63.13H179.42V58.1H180.24V60.24H182.89V58.1H183.71Z" fill="#030303"/>
<path d="M188.94 63.13V60C188.94 59.82 188.94 59.63 188.94 59.45L186.23 63.13H185.46V58.1H186.28V61.23C186.28 61.42 186.28 61.61 186.28 61.78L188.99 58.1H189.76V63.13H188.94Z" fill="#030303"/>
<path d="M191.07 63.13L192.52 61.24C191.84 61.05 191.33 60.57 191.33 59.74C191.33 58.58 192.26 58.1 193.3 58.1H195.26V63.13H194.44V61.35H193.39L192.04 63.13H191.07ZM193.29 60.62H194.45V58.84H193.29C192.66 58.84 192.17 59.11 192.17 59.73C192.17 60.35 192.66 60.61 193.29 60.61V60.62Z" fill="#030303"/>
<path d="M40.8501 71.76V66.73H45.0801V71.76H44.2601V67.48H41.6701V71.76H40.8501Z" fill="#030303"/>
<path d="M50.3101 66.73V67.48H47.6601V68.85H50.0901V69.6H47.6601V71.02H50.3501V71.77H46.8401V66.74H50.3101V66.73Z" fill="#030303"/>
<path d="M51.3801 72.91V71.02H51.9801C52.6201 69.86 52.7801 68.22 52.7801 66.73H56.0201V71.02H56.6601V72.91H55.9101V71.77H52.1101V72.91H51.3601H51.3801ZM52.8801 71.02H55.2201V67.49H53.6001C53.5201 68.74 53.3601 70.11 52.8801 71.02Z" fill="#030303"/>
<path d="M57.4801 71.76L59.6101 66.73H60.5101L62.6301 71.76H61.7701L61.3201 70.67H58.8001L58.3501 71.76H57.4801ZM59.0801 69.96H61.0401L60.1601 67.81C60.1301 67.73 60.1001 67.65 60.0701 67.53C60.0301 67.65 60.0001 67.73 59.9801 67.81L59.1001 69.96H59.0801Z" fill="#030303"/>
<path d="M63.8301 71.76V66.73H67.2401V67.48H64.6501V71.76H63.8301Z" fill="#030303"/>
<path d="M70.6001 66.64C72.3701 66.64 73.2501 67.92 73.2501 69.25C73.2501 70.58 72.3701 71.86 70.6001 71.86C68.8301 71.86 67.9501 70.58 67.9501 69.25C67.9501 67.92 68.8201 66.64 70.6001 66.64ZM70.6001 67.41C69.3801 67.41 68.7901 68.29 68.7901 69.25C68.7901 70.21 69.3901 71.09 70.6001 71.09C71.8101 71.09 72.4101 70.21 72.4101 69.25C72.4101 68.29 71.8201 67.41 70.6001 67.41Z" fill="#030303"/>
<path d="M74.6801 71.76V66.73H78.0901V67.48H75.5001V71.76H74.6801Z" fill="#030303"/>
<path d="M82.8101 71.76V68.63C82.8101 68.45 82.8101 68.26 82.8101 68.08L80.1001 71.76H79.3301V66.73H80.1501V69.86C80.1501 70.05 80.1501 70.24 80.1501 70.41L82.8601 66.73H83.6301V71.76H82.8101Z" fill="#030303"/>
<path d="M88.3201 71.76V69.87C87.8401 70.03 87.3801 70.1 86.9401 70.1C85.8101 70.1 85.0901 69.53 85.0901 68.38V66.73H85.9101V68.38C85.9101 69.06 86.4101 69.33 87.1401 69.34C87.5201 69.34 87.9201 69.27 88.3201 69.11V66.73H89.1401V71.76H88.3201Z" fill="#030303"/>
<path d="M94.3701 66.73V67.48H91.7201V68.85H94.1501V69.6H91.7201V71.02H94.4101V71.77H90.9001V66.74H94.3701V66.73Z" fill="#030303"/>
<path d="M98.1801 66.64C98.6801 66.64 99.1801 66.75 99.6101 66.97V67.77C99.2601 67.53 98.7901 67.4 98.3201 67.4C97.3601 67.4 96.3601 67.97 96.3501 69.3C96.3501 70.54 97.3701 71.11 98.3301 71.11C98.8501 71.11 99.3101 70.97 99.6501 70.72V71.53C99.2301 71.74 98.7201 71.86 98.1901 71.86C96.8901 71.86 95.5101 71.01 95.5201 69.29C95.5201 67.5 96.8601 66.64 98.1901 66.64H98.1801Z" fill="#030303"/>
<path d="M101.1 71.76V66.73H101.92V68.83H102.91L104.31 66.73H105.24L103.57 69.18L105.37 71.76H104.44L102.92 69.58H101.91V71.76H101.09H101.1Z" fill="#030303"/>
<path d="M108.61 66.64C110.38 66.64 111.26 67.92 111.26 69.25C111.26 70.58 110.38 71.86 108.61 71.86C106.84 71.86 105.96 70.58 105.96 69.25C105.96 67.92 106.83 66.64 108.61 66.64ZM108.61 67.41C107.39 67.41 106.8 68.29 106.8 69.25C106.8 70.21 107.4 71.09 108.61 71.09C109.82 71.09 110.42 70.21 110.42 69.25C110.42 68.29 109.83 67.41 108.61 67.41Z" fill="#030303"/>
<path d="M112.7 71.76V66.73H116.11V67.48H113.52V71.76H112.7Z" fill="#030303"/>
<path d="M119.47 66.64C121.24 66.64 122.12 67.92 122.12 69.25C122.12 70.58 121.24 71.86 119.47 71.86C117.7 71.86 116.82 70.58 116.82 69.25C116.82 67.92 117.69 66.64 119.47 66.64ZM119.47 67.41C118.25 67.41 117.66 68.29 117.66 69.25C117.66 70.21 118.26 71.09 119.47 71.09C120.68 71.09 121.28 70.21 121.28 69.25C121.28 68.29 120.69 67.41 119.47 67.41Z" fill="#030303"/>
<path d="M131.1 66.73V71.76H130.28V68.24L128.69 70.63H128.2L126.61 68.24V71.77H125.79V66.74H126.53L128.44 69.62L130.35 66.74H131.09L131.1 66.73Z" fill="#030303"/>
<path d="M132.29 71.76L134.42 66.73H135.32L137.44 71.76H136.58L136.13 70.67H133.61L133.16 71.76H132.29ZM133.89 69.96H135.85L134.97 67.81C134.94 67.73 134.91 67.65 134.88 67.53C134.84 67.65 134.81 67.73 134.79 67.81L133.91 69.96H133.89Z" fill="#030303"/>
<path d="M140.78 66.64C141.28 66.64 141.78 66.75 142.21 66.97V67.77C141.86 67.53 141.39 67.4 140.92 67.4C139.96 67.4 138.96 67.97 138.95 69.3C138.95 70.54 139.97 71.11 140.93 71.11C141.45 71.11 141.91 70.97 142.25 70.72V71.53C141.83 71.74 141.32 71.86 140.79 71.86C139.49 71.86 138.11 71.01 138.12 69.29C138.12 67.5 139.46 66.64 140.79 66.64H140.78Z" fill="#030303"/>
<path d="M147.34 66.73V67.48H145.68V71.76H144.86V67.48H143.19V66.73H147.34Z" fill="#030303"/>
<path d="M152.06 66.73V67.48H149.41V68.85H151.84V69.6H149.41V71.02H152.1V71.77H148.59V66.74H152.06V66.73Z" fill="#030303"/>
<path d="M155.38 66.73C156.57 66.73 157.53 67.1 157.53 68.38C157.53 69.66 156.57 70.03 155.38 70.03H154.4V71.76H153.58V66.73H155.38ZM155.42 67.48H154.4V69.29H155.42C156.11 69.29 156.69 69.12 156.69 68.38C156.69 67.64 156.11 67.47 155.42 67.47V67.48Z" fill="#030303"/>
<path d="M161.26 66.64C161.76 66.64 162.26 66.75 162.69 66.97V67.77C162.34 67.53 161.87 67.4 161.4 67.4C160.44 67.4 159.44 67.97 159.43 69.3C159.43 70.54 160.45 71.11 161.41 71.11C161.93 71.11 162.39 70.97 162.73 70.72V71.53C162.31 71.74 161.8 71.86 161.27 71.86C159.97 71.86 158.59 71.01 158.6 69.29C158.6 67.5 159.94 66.64 161.27 66.64H161.26Z" fill="#030303"/>
<path d="M167.82 66.73V67.48H166.16V71.76H165.34V67.48H163.67V66.73H167.82Z" fill="#030303"/>
<path d="M171.2 66.73C172.25 66.73 172.93 67.15 172.93 68C172.93 68.61 172.56 68.97 172.14 69.11C172.59 69.24 173.13 69.58 173.13 70.37C173.13 71.51 172.02 71.76 171.22 71.76H169.08V66.73H171.21H171.2ZM171.11 67.44H169.89V68.81H171.23C171.7 68.81 172.09 68.62 172.09 68.13C172.09 67.64 171.72 67.44 171.11 67.44ZM171.25 69.51H169.89V71.04H171.13C171.69 71.04 172.29 70.97 172.29 70.28C172.29 69.59 171.7 69.51 171.25 69.51Z" fill="#030303"/>
<path d="M173.87 71.76L176 66.73H176.9L179.02 71.76H178.16L177.71 70.67H175.19L174.74 71.76H173.87ZM175.47 69.96H177.43L176.55 67.81C176.52 67.73 176.49 67.65 176.46 67.53C176.42 67.65 176.39 67.73 176.37 67.81L175.49 69.96H175.47Z" fill="#030303"/>
<path d="M28.81 54.99V47.63H0V13.74H7.62V41.09H23.37V13.74H30.99V41.09H35.51V54.99H28.8H28.81Z" fill="#030303"/>
<path d="M72.0499 13.74V47.63H64.4299V33.98H48.4799V47.63H40.8599V13.74H48.4799V27.39H64.4299V13.74H72.0499Z" fill="#030303"/>
<path d="M79.6699 47.63V13.74H110.61V47.63H103.04V20.28H87.2899V47.63H79.6699Z" fill="#030303"/>
<path d="M118.24 47.63V13.74H149.18V47.63H141.61V20.28H125.86V47.63H118.24Z" fill="#030303"/>
<path d="M195.27 13.74V47.63H187.65V26.76L178.25 40.36H173.83L164.43 26.71V47.63H156.81V13.74H163.87L176.06 31.36L188.2 13.74H195.26H195.27Z" fill="#030303"/>
<path d="M149.18 0H118.24V6.62H149.18V0Z" fill="#030303"/>
</g>
<defs>
<clipPath id="clip0_5_358">
<rect width="195.27" height="72.91" fill="white"/>
</clipPath>
</defs>
</svg>
