<svg width="288" height="260" viewBox="0 0 288 260" fill="none" xmlns="http://www.w3.org/2000/svg">
<path fill-rule="evenodd" clip-rule="evenodd" d="M45.68 166.1V186.83C45.68 192.9 42.4 196.91 35.88 196.91C29.36 196.91 26.14 192.9 26.14 186.83V166.1C26.14 159.97 29.3 156.02 35.88 156.02C42.46 156.02 45.68 159.97 45.68 166.1ZM35.88 192.84C39.35 192.84 40.93 190.73 40.93 187.06V165.86C40.93 162.26 39.29 160.07 35.88 160.07C32.47 160.07 30.83 162.26 30.83 165.86V187.06C30.83 190.73 32.41 192.84 35.88 192.84ZM226.15 156.23C219.64 156.23 216.41 160.18 216.41 166.31V187.03C216.41 193.1 219.64 197.11 226.15 197.11C232.66 197.11 235.96 193.1 235.96 187.03V166.31C235.96 160.23 232.73 156.23 226.15 156.23ZM231.21 187.26C231.21 190.93 229.62 193.05 226.15 193.05C222.68 193.05 221.1 190.93 221.1 187.26V166.08C221.1 162.48 222.74 160.3 226.15 160.3C229.56 160.3 231.21 162.48 231.21 166.08V187.26ZM97.67 196.71H92.92V156.63H112.89V196.71H108.14V160.69H97.66V196.71H97.67ZM100.37 218.22C93.76 218.22 90.66 222.29 90.66 228.46V249.52C90.66 255.69 93.75 259.76 100.37 259.76C106.99 259.76 110.15 255.69 110.15 249.52V244.45H105.57V249.74C105.57 253.41 104.02 255.62 100.5 255.62C96.98 255.62 95.42 253.41 95.42 249.74V228.22C95.42 224.55 97.03 222.34 100.5 222.34C103.97 222.34 105.57 224.55 105.57 228.22V232.11H110.15V228.45C110.15 222.28 107.06 218.21 100.37 218.21V218.22ZM9.11 248.98L12.94 237.76L19.86 218.62H25.24V259.34H20.91V226.93L16.21 240.55L9.84 259.34H4.83V218.62H9.1V248.98H9.11ZM44.54 236.95H55.18V218.62H60.01V259.34H55.18V241.01H44.54V259.34H39.71V218.62H44.54V236.95ZM71.99 218.62L63.71 259.34H68.16L69.83 251.14H80.8L82.48 259.34H87.3L79.02 218.62H72H71.99ZM70.44 247.25L75.21 223.79L80.09 247.25H70.44ZM121.15 222.75H113.17V218.62H133.95V222.75H125.97V259.34H121.15V222.75ZM144.55 218.62L136.27 259.34H140.72L142.39 251.14H153.36L155.03 259.34H159.85L151.57 218.62H144.56H144.55ZM143 247.25L147.77 223.79L152.65 247.25H143ZM182.73 229.57C182.73 233.9 181.43 236.54 177.66 237.65C181.87 238.76 183.46 241.9 183.5 246.38V249.82C183.5 255.93 180.35 259.36 173.6 259.36H163.62V218.64H173.33C180.08 218.64 182.73 221.66 182.73 227.66V229.58V229.57ZM173.25 222.76H168.49V235.91H172.2C176.01 235.91 178.01 234.75 178.01 230.5V228.12C178.01 224.51 176.71 222.76 173.25 222.76ZM173.62 255.22C177.14 255.22 178.76 253.45 178.76 249.69V246.09C178.76 241.56 176.83 240.04 172.69 240.04H168.49V255.23H173.62V255.22ZM203.33 236.96H192.69V218.63H187.86V259.35H192.69V241.02H203.33V259.35H208.15V218.63H203.33V236.96ZM217.36 248.99L221.19 237.77L228.12 218.63H233.5V259.35H229.17V226.94L224.47 240.56L218.1 259.35H213.09V218.63H217.35V248.99H217.36ZM259.6 218.63H254.71L243.21 238.29V218.63H238.39V259.35H243.21V245.68L245.74 241.66L255.02 259.35H259.97L248.65 237.18L259.61 218.63H259.6ZM270.72 218.63H277.7L286.02 259.35H281.19L279.52 251.15H268.55L266.87 259.35H262.42L270.71 218.63H270.72ZM273.93 223.79L269.17 247.25H278.82L273.93 223.79ZM117.74 196.71H135.28V192.65H122.49V178.38H132.91V174.37H122.49V160.69H135.28V156.63H117.74V196.71ZM165.28 192.76V202.21H160.65V196.71H143.24V202.21H138.68V192.76H141.41C142.88 191.22 143.18 189.38 143.3 186.92L144.95 156.62H162.06V192.75H165.28V192.76ZM145.99 192.76H157.24L157.29 160.69H149.38L147.98 186.87C147.75 189.73 147.32 191.45 145.99 192.76ZM183.24 156.63H176.36L168.2 196.71H172.59L174.23 188.64H185.01L186.66 196.71H191.45L183.26 156.63H183.24ZM174.84 184.79L179.52 161.66L184.33 184.79H174.84ZM199.85 196.72H195.16V156.64H212.15V160.7H199.85V196.72ZM245.2 160.7H257.5V156.64H240.51V196.72H245.2V160.7ZM277.71 188.65H266.94L265.29 196.72H260.9L269.06 156.64H275.93L284.09 196.72H279.34L277.7 188.65H277.71ZM277.03 184.81L272.22 161.68L267.53 184.81H277.03ZM21.88 160.5H9.59V196.51H4.9V156.43H21.88V160.5ZM53.76 196.52H71.17V202.02H75.8V192.57H72.58V156.48H55.47L53.83 186.78C53.7 189.24 53.4 191.07 51.93 192.62H49.2V202.07H53.76V196.52ZM58.45 186.67L59.86 160.49H67.77V192.56H56.51C57.86 191.25 58.29 189.53 58.47 186.67H58.45ZM90.11 137.3C90.98 137.7 91.86 138.08 92.75 138.45L92.21 136.72C91.49 136.93 90.79 137.12 90.13 137.31M95.68 135.64L97.31 140.15C99.22 140.79 101.16 141.35 103.13 141.83L100.45 133.92C98.82 134.57 97.23 135.15 95.67 135.67M98.01 115.72C84.81 128.79 64.77 136.66 64.77 136.66C64.77 136.66 84.21 132.65 101.43 119.29C118.65 105.93 114.93 91.07 114.93 91.07C114.93 91.07 111.22 102.65 98.01 115.72ZM132.65 33.59C133.16 35.67 140.37 60.18 140.37 60.18L130.26 32.56C130.26 32.56 124.33 37.14 124.33 42.91C124.33 51.85 137.89 61.99 141 67.87C144.11 73.76 147.27 82.78 147.27 82.78C147.27 82.78 147.5 77.13 146.09 72.66C144.68 68.19 134.7 31.62 134.7 31.62H134.63C134.21 31.62 132.17 31.72 132.62 33.58M129.4 28.01C129.4 28.41 129.56 28.8 129.84 29.08C130.12 29.36 130.51 29.52 130.91 29.52C131.11 29.52 131.31 29.48 131.49 29.4C131.67 29.32 131.84 29.21 131.98 29.07C132.12 28.93 132.23 28.76 132.31 28.58C132.39 28.4 132.42 28.2 132.42 28C132.42 27.8 132.38 27.61 132.31 27.42C132.23 27.24 132.12 27.07 131.98 26.93C131.84 26.79 131.67 26.68 131.49 26.6C131.31 26.52 131.11 26.49 130.91 26.49C130.71 26.49 130.51 26.53 130.33 26.6C130.15 26.68 129.98 26.79 129.84 26.93C129.7 27.07 129.59 27.24 129.51 27.42C129.43 27.6 129.39 27.8 129.39 28L129.4 28.01ZM44.19 72.44C45.76 71.22 47.15 69.78 48.32 68.17C48.25 69.43 48.22 70.69 48.22 71.97C48.22 80.14 49.6 88.26 52.33 95.97H13.97L44.19 72.44ZM225.96 72.44C228.45 70.51 230.48 68.05 231.89 65.23C233.3 62.41 234.05 59.31 234.1 56.16V55.26C233.96 51.3 232.84 47.44 230.85 44.02H269.53L254.4 64.64H259.13C265.4 64.64 271.42 67.15 275.86 71.59C280.3 76.03 282.79 82.05 282.8 88.33C282.8 94.61 280.3 100.63 275.86 105.07C271.42 109.51 265.41 112.01 259.13 112.02C252.86 112.02 246.84 109.51 242.4 105.08C237.96 100.64 235.47 94.62 235.46 88.34H230.7C230.7 90.93 231.06 93.5 231.75 95.99H195.78L225.98 72.44H225.96ZM191.92 71.96C191.92 66.62 191.33 61.29 190.16 56.08H190.41C190.4 53.44 190.92 50.83 191.96 48.4C193 45.97 194.52 43.78 196.43 41.97C198.33 40.14 200.58 38.73 203.05 37.8C205.52 36.88 208.15 36.47 210.78 36.61C215.65 36.86 220.26 38.92 223.69 42.39C227.12 45.86 229.12 50.5 229.31 55.38V56.1C229.27 58.53 228.69 60.92 227.6 63.08C226.51 65.25 224.94 67.14 223.02 68.62L187.77 96.04C190.52 88.3 191.92 80.14 191.91 71.93M51.58 50.11C50.29 45.07 47.42 40.58 43.4 37.29C39.38 34 34.41 32.07 29.22 31.8C25.94 31.63 22.66 32.14 19.58 33.29C16.5 34.44 13.69 36.21 11.32 38.49C8.94 40.75 7.05 43.47 5.76 46.49C4.47 49.51 3.81 52.76 3.82 56.04H8.67C8.66 53.4 9.18 50.79 10.22 48.36C11.26 45.93 12.78 43.74 14.69 41.93C16.59 40.1 18.85 38.68 21.32 37.76C23.79 36.84 26.42 36.43 29.05 36.57C33.92 36.82 38.53 38.88 41.95 42.36C45.38 45.83 47.38 50.47 47.57 55.35V56.07C47.53 58.5 46.95 60.89 45.86 63.05C44.77 65.22 43.2 67.11 41.28 68.59L0 100.71H53.69V99.46C56.95 107.32 61.59 114.55 67.37 120.79C67.48 124.25 67.85 127.69 68.45 131.1C68.45 131.1 68.45 129.47 70.22 123.68C72.39 117.17 78.41 100.55 86.16 94.17C95.88 86.17 108.74 83.73 116.35 82.64C123.96 81.54 126.46 80.05 128.97 70.48C131.48 60.91 122.23 48.03 117.99 41.44C113.75 34.85 114.11 27.33 114.11 27.33C114.11 27.33 113.91 27.49 112.74 27.45C111.56 27.41 109.1 26.36 109.1 26.36C110.08 26.4 111.06 26.22 111.96 25.82C113.08 25.21 114.11 24.45 115.02 23.55C114.13 23.47 113.27 23.15 112.55 22.61C111.93 22 111.43 21.28 111.06 20.49C111.06 20.49 114.75 21.62 117.53 19.74C120.31 17.86 125.49 16.48 131.21 19.07C136.93 21.66 136.35 30.61 136.35 30.61C136.35 30.61 147.2 69.37 149.06 77.54C150.92 85.7 147.73 89.94 147.73 89.94C147.73 89.94 147.81 89.24 147.1 86.56C146.69 85.01 144.5 79.55 141.74 73.36C141.7 73.29 141.65 73.19 141.58 73.07C140.43 70.76 139.01 67.89 139.01 67.89C139.39 69.98 139.65 72.08 139.81 74.2C140.02 77.07 140.6 79.91 141.53 82.63C142.39 85.17 146.1 91.81 145.37 98.66C143.92 112.47 134.65 118.83 103.83 132.41L107.66 142.72C111.77 143.44 115.93 143.8 120.09 143.81C134.07 143.81 147.74 139.73 159.44 132.08C171.14 124.42 180.35 113.52 185.94 100.7H233.56C236.05 105.83 240.02 110.09 244.96 112.93C249.9 115.77 255.57 117.07 261.26 116.66C268.05 116.14 274.43 113.2 279.25 108.39C284.07 103.57 287.01 97.19 287.54 90.4C288.07 83.27 285.91 76.21 281.48 70.6C277.05 64.99 270.68 61.25 263.64 60.12L279.03 39.16H227.26C222.99 34.72 217.18 32.09 211.03 31.79C207.75 31.62 204.47 32.13 201.39 33.28C198.31 34.43 195.5 36.2 193.13 38.48C190.66 40.83 188.72 43.67 187.42 46.82C182.3 33.08 173.11 21.22 161.07 12.86C149.04 4.48 134.73 0 120.08 0C104.83 0 89.98 4.85 77.67 13.86C65.36 22.86 56.23 35.55 51.6 50.09" fill="url(#paint0_radial_15_51)"/>
<defs>
<radialGradient id="paint0_radial_15_51" cx="0" cy="0" r="1" gradientUnits="userSpaceOnUse" gradientTransform="translate(143.8 129.88) scale(137.02 137.02)">
<stop stop-color="#4B0D1B"/>
<stop offset="0.99" stop-color="#77151E"/>
</radialGradient>
</defs>
</svg>
