<svg width="1327" height="1411" viewBox="0 0 1327 1411" fill="none" xmlns="http://www.w3.org/2000/svg">
<g opacity="0.5" clip-path="url(#clip0_10_2)">
<path d="M2746.34 1087.25C2709.74 1098.49 2674.31 1113.25 2637.41 1119.9C2564.54 1133.08 2491.07 1148.57 2417.47 1150.9C2286.68 1155.04 2177.87 1100.53 2088.94 1005.27C2044.56 957.727 1999.66 910.669 1955.02 863.393C1840.88 742.533 1696.98 692.522 1534.53 689.423C1477.07 688.331 1426.58 668.049 1381.71 636.597C1303.85 581.987 1221.37 537.725 1133.63 501.148C1059.58 470.288 1002.44 418.848 970.419 341.898C945.71 282.512 898.884 243.798 840.773 216.891C840.507 218.824 839.696 221.061 840.225 221.436C900.063 264.637 933.259 324.152 955.939 393.736C977.824 460.839 1030.27 506.079 1089.1 542.25C1121.4 562.107 1156.99 576.608 1189.33 596.394C1234.91 624.284 1278.84 654.85 1323.49 684.252C1322.59 687.31 1321.69 690.392 1320.81 693.453C1281.87 694.195 1242.91 695.666 1203.96 695.574C1099.7 695.307 997.997 682.239 905.97 628.285C880.419 613.293 855.084 597.093 832.488 578.038C749.047 507.666 654.01 459.283 552.12 421.851C450.616 384.548 347.891 348.794 259.893 280.372C265.968 286.86 271.621 293.847 278.209 299.724C342.893 357.449 420.544 392.944 498.149 428.963C559.504 457.426 619.57 488.666 679.998 519.097C691.235 524.754 701.425 532.514 710.57 544.22C622.344 544.411 533.958 547.433 445.928 543.259C414.613 541.765 384.126 522.839 353.448 511.914C396.613 557.448 452.376 572.04 513.189 573.92C564.227 575.494 615.271 576.286 666.26 578.586C727.933 581.366 784.499 598.013 833.417 638.403C923.272 712.608 1029.35 748.368 1143.69 755.218C1260.28 762.225 1377.36 760.616 1494.17 764.951C1627.57 769.872 1754.87 794.077 1855.29 892.983C1859.16 896.796 1862.79 900.879 1869.71 908.19C1852.89 910.453 1839.55 911.879 1826.33 914.08C1762 924.77 1700.64 947.102 1649.7 986.213C1566.6 1050 1474.98 1058.25 1377.52 1042.79C1326.29 1034.65 1275.6 1023.02 1216.07 1011.27C1241.94 1023.36 1260.48 1032.79 1279.59 1040.82C1349.6 1070.21 1422.91 1086.03 1498.29 1093.26C1549.37 1098.17 1594.39 1081.1 1639.98 1060.19C1697.91 1033.62 1757.44 1009.9 1817.9 989.849C1842.33 981.763 1871.18 984.484 1897.75 986.16C1933.18 988.395 1961.49 1003.82 1985.7 1032.51C2074.01 1137.08 2178.19 1217.97 2317.63 1242.73C2422.97 1261.42 2526.81 1251.91 2630.05 1228.13C2634.59 1227.09 2639.05 1225.83 2643.57 1224.71C2742.91 1200.32 2746.21 1196 2746.32 1087.23L2746.34 1087.25Z" fill="white"/>
<path d="M713.021 386.364C759.978 411.614 801.68 430.287 850.08 416.326C875.96 408.869 910.361 371.679 901.726 365.269C881.117 349.945 857.226 336.089 832.592 330.235C816.755 326.472 795.964 335.283 779.796 343.315C757.803 354.259 738.102 369.835 712.997 386.36L713.021 386.364Z" fill="white"/>
<path d="M1186.71 1202.07C1233.63 1199.44 1274.15 1192.56 1307.35 1163.56C1327.47 1146 1342.21 1097.8 1332.6 1085.48C1322.77 1072.87 1273.24 1076.12 1250.99 1092.05C1214.94 1117.86 1200.1 1156.54 1186.71 1202.07Z" fill="white"/>
<path d="M438.805 594.44C365.871 573.856 315.382 614.09 294.488 707.891C371.253 724.279 440.276 670.911 438.805 594.44Z" fill="white"/>
<path d="M637.919 67.9558C648.181 140.129 694.45 188.057 746.11 186.384C776.732 185.384 782.136 178.551 774.892 149.307C768.232 122.44 753.061 100.945 727.075 91.6994C699.02 81.7157 669.426 76.1409 637.919 67.9558Z" fill="white"/>
<path d="M1026.25 870.842C1038.66 913.746 1052.24 949.817 1085.79 973.986C1108.65 990.426 1155.32 993.825 1164.17 980.624C1172.64 968.001 1158.58 924.844 1139.17 907.741C1108.17 880.413 1069.87 874.629 1026.23 870.838L1026.25 870.842Z" fill="white"/>
<path d="M322.461 126.345C277.249 186.969 277.95 257.83 317.227 291.974C339.211 311.072 346.98 309.815 361.362 283.891C380.458 249.55 375.714 216.256 356.275 183.748C345.416 165.596 334.778 147.297 322.461 126.345Z" fill="white"/>
<path d="M278.474 489.283C248.9 427.64 175.055 420.69 105.396 472.987C162.528 533.892 233.904 540.629 278.474 489.283Z" fill="white"/>
<path d="M106.229 264.946C139.846 314.774 185.442 333.021 223.532 316.03C241.517 307.995 244.732 298.539 232.995 282.185C212.272 253.339 183.103 249.817 151.667 253.81C137.413 255.616 123.534 260.579 106.257 264.924L106.229 264.946Z" fill="white"/>
<path d="M708.526 229.296C735.393 263.025 759.934 294.945 806.514 288.915C817.383 287.502 831.169 281.189 836.221 272.692C839.402 267.347 830.584 252.53 824.234 244.186C802.401 215.515 761.433 210.071 708.501 229.293L708.526 229.296Z" fill="white"/>
<path d="M186.263 160.197C237.13 128.246 215.882 54.1114 175.919 24.4178C135.849 78.6531 139.086 127.898 186.263 160.197Z" fill="white"/>
<path d="M1091.27 1082.31C1138.29 1109.31 1186.2 1105.76 1212.38 1074.59C1226.47 1057.79 1222.78 1047.49 1204.2 1038.7C1166.99 1021.13 1119.17 1039.38 1091.27 1082.31Z" fill="white"/>
<path d="M173.882 598.843C206.36 613.927 237.609 625.283 268.577 610.168C283.991 602.664 293.869 583.822 306.272 570.123C289.572 562.354 272.872 548.146 256.143 548.124C221.198 548.076 195.751 569.856 173.882 598.843Z" fill="white"/>
<path d="M1101.92 458.727C1138.81 417.159 1127.79 368.789 1073.32 327.436C1039.27 377.347 1050.66 432.684 1101.92 458.727Z" fill="white"/>
<path d="M504.28 685.952C566.33 692.976 613.278 653.544 605.01 608.406C556.724 591.001 522.304 616.928 504.28 685.952Z" fill="white"/>
<path d="M864.866 476.673C900.868 527.333 953.556 538.398 989.943 502.921C979.594 459.895 924.066 443.037 864.866 476.673Z" fill="white"/>
<path d="M950.26 148.726C925.839 186.931 923.238 216.011 941.289 239.871C956.626 260.152 968.106 258.874 978.996 235.602C991.238 209.46 981.156 177.731 950.26 148.726Z" fill="white"/>
<path d="M1272.22 926.601C1272.93 960.781 1277.12 988.974 1303.24 1006.59C1312.41 1012.78 1327.15 1010.76 1339.33 1012.48C1339.99 1000.88 1345.28 986.409 1340.26 978.298C1331.08 963.379 1316.53 951.335 1302.79 939.807C1296.07 934.164 1286.09 932.366 1272.2 926.573L1272.22 926.601Z" fill="white"/>
<path d="M397.12 423.889C397.416 479.673 418.479 506.042 462.495 505.642C476.286 462.874 448.327 427.91 397.12 423.889Z" fill="white"/>
</g>
<defs>
<clipPath id="clip0_10_2">
<rect width="2734" height="1049" fill="white" transform="matrix(-0.99072 -0.135917 -0.135917 0.99072 2851.21 371.596)"/>
</clipPath>
</defs>
</svg>
