<svg width="642" height="102" viewBox="0 0 642 102" fill="none" xmlns="http://www.w3.org/2000/svg">
<g clip-path="url(#clip0_15_271)">
<path fill-rule="evenodd" clip-rule="evenodd" d="M7.2126 14.9227L7.02678 14.9502C6.31791 17.8132 8.94693 19.2723 10.6744 20.4904C11.4177 21.0135 11.7205 21.3714 12.2711 22.0389C12.9937 21.0617 14.2876 19.9536 15.898 18.7768C12.7184 16.7534 9.41492 14.613 7.2126 14.9227ZM6.82031 85.6654C7.47412 87.7714 7.86641 88.845 9.77968 90.3384C9.83474 90.2902 9.89668 90.2352 9.9655 90.1733C11.397 88.9276 12.5532 87.8884 13.6888 86.1678C13.3447 86.0301 12.9662 85.8581 12.5945 85.5828C10.7363 85.6516 8.56152 85.6723 6.82031 85.6585V85.6654ZM32.8834 9.32743C33.8194 9.07967 34.8036 9.69907 35.0651 10.7039C35.3266 11.7087 34.7829 12.7273 33.8469 12.975C32.9109 13.2228 31.9336 12.6034 31.6652 11.5986C31.4037 10.5938 31.9474 9.57519 32.8834 9.32743ZM2.54643 37.4483C2.14038 37.8888 1.96144 38.1572 1.65862 38.6183C-2.53955 45.0394 2.57396 53.2224 2.50514 60.4282C2.95248 68.2189 -1.52786 83.0777 2.91807 83.7934C5.28557 83.8347 8.38946 83.9242 10.7776 83.8691C10.6881 83.8003 10.6055 83.7315 10.523 83.6558C7.61865 81.7976 11.3282 67.4274 10.3991 60.3249C9.58009 46.0442 5.65033 39.6919 10.9084 37.5722C7.99029 37.4896 5.23739 37.524 2.53955 37.4483H2.54643ZM29.7589 7.31781L29.2083 5.26001L30.977 5.08108L30.1924 3.2504L32.3191 2.67917L32.5531 4.65438L34.1704 3.92486L34.721 5.98265L32.9522 6.16159L33.7299 7.9785L31.6033 8.54973L31.3693 6.58829L29.752 7.31781H29.7589ZM79.2423 18.0197C79.3042 18.0748 80.9491 19.5889 81.0041 19.6439C87.1362 25.5145 80.6394 29.6645 79.139 35.652H70.1852C70.4536 31.6741 71.6924 29.5544 72.7385 28.0678C73.9085 26.4092 75.2024 24.5923 74.2044 22.9956C75.7942 21.7568 78.5609 20.4079 79.084 17.9853C79.1321 17.9922 79.1872 18.0059 79.2354 18.0197H79.2423ZM77.267 14.9296L77.4529 14.9571C78.1617 17.8201 75.5327 19.2792 73.8053 20.4973C73.062 21.0204 72.7592 21.3783 72.2086 22.0458C71.486 21.0686 70.1921 19.9605 68.5816 18.7836C71.7612 16.7603 75.0647 14.6199 77.267 14.9296ZM77.6593 85.6723C77.0055 87.7782 76.6132 88.8519 74.7 90.3453C74.6449 90.2971 74.583 90.2421 74.5141 90.1801C73.0826 88.9344 71.9264 87.8952 70.7908 86.1747C71.135 86.037 71.5135 85.865 71.8851 85.5897C73.7433 85.6585 75.9181 85.6791 77.6593 85.6654V85.6723ZM51.5962 9.32743C50.6603 9.07967 49.6761 9.69907 49.4146 10.7039C49.153 11.7087 49.6967 12.7273 50.6327 12.975C51.5687 13.2228 52.546 12.6034 52.8144 11.5986C53.0759 10.5938 52.5322 9.57519 51.5962 9.32743ZM58.5955 21.6811C63.3924 20.7933 71.892 12.6034 76.4412 13.2434C74.1632 12.0734 72.1398 10.7658 70.3848 9.33431C67.9622 8.76308 62.8281 11.8807 61.0731 13.1471C59.3044 14.4203 58.6299 14.4754 58.6299 14.4754C60.3092 13.1953 60.7428 11.8532 61.197 9.51325C61.8026 6.43688 62.2637 6.0033 62.5941 5.89318C63.709 5.52842 59.3663 3.82162 58.5955 8.38456C58.2583 10.3942 58.7125 11.1581 58.1 11.2751C57.4875 11.3921 57.8109 10.4355 57.3705 9.51325C56.93 8.59103 55.3471 8.9489 54.4593 10.4905C54.0945 11.1237 53.95 11.8601 53.9156 12.5621C53.888 13.0507 53.9156 13.4912 53.9637 13.9798C53.4682 14.0762 49.6967 14.5992 47.3499 12.5414C47.9211 12.0872 48.2859 11.3852 48.2859 10.5938C48.2859 9.67842 47.7972 8.88696 47.0746 8.46026C47.7697 7.64816 47.4462 6.02394 45.9528 5.97577C46.0629 6.5057 45.8909 7.02875 45.471 7.27652C44.9205 7.60686 44.1497 7.33157 43.7505 6.66399C43.3582 5.99642 43.4821 5.19119 44.0395 4.86084C44.4043 4.64061 44.8654 4.68879 45.2508 4.94343C45.4366 4.61996 45.7257 3.79409 44.5901 2.9407C43.9569 2.46582 43.4477 2.23871 43.2137 2.0873C42.725 1.77071 42.3878 1.28207 42.2433 0.724609C42.1056 1.28207 41.7615 1.77071 41.2729 2.0873C41.0389 2.23871 40.5296 2.4727 39.8964 2.9407C38.7608 3.78721 39.0499 4.61308 39.2357 4.94343C39.6211 4.69567 40.0822 4.64749 40.447 4.86084C40.9976 5.19119 41.1283 5.99642 40.736 6.66399C40.3438 7.33157 39.5729 7.60686 39.0155 7.27652C38.5957 7.02875 38.4236 6.5057 38.5337 5.97577C37.0334 6.02394 36.7099 7.64816 37.4119 8.46026C36.6893 8.88696 36.2006 9.6853 36.2006 10.5938C36.2006 11.3852 36.5654 12.0872 37.1366 12.5414C34.7898 14.5924 31.0183 14.0693 30.5228 13.9798C30.571 13.4912 30.5985 13.0576 30.571 12.5621C30.5366 11.8601 30.392 11.1237 30.0273 10.4905C29.1395 8.9489 27.5565 8.59103 27.1161 9.51325C26.6756 10.4355 26.9991 11.3921 26.3866 11.2751C25.774 11.1581 26.2283 10.3873 25.891 8.38456C25.1202 3.82162 20.7844 5.52842 21.8924 5.89318C22.2228 6.0033 22.6908 6.43688 23.2895 9.51325C23.7438 11.8532 24.1705 13.1953 25.8566 14.4754C25.8566 14.4754 25.1822 14.4203 23.4134 13.1471C21.6584 11.8807 16.5243 8.76308 14.1017 9.33431C12.3468 10.7658 10.3234 12.0666 8.04535 13.2434C12.5945 12.6034 21.0941 20.7933 25.891 21.6811C29.222 18.5703 35.2991 16.485 42.2501 16.4643C49.2012 16.485 55.2714 18.5703 58.6093 21.6811H58.5955ZM81.9332 37.4483C82.3393 37.8888 82.5182 38.1572 82.821 38.6183C87.0192 45.0394 81.9057 53.2224 81.9745 60.4282C81.5272 68.2189 86.0075 83.0777 81.5616 83.7934C79.1941 83.8347 76.0902 83.9242 73.702 83.8691C73.7915 83.8003 73.8741 83.7315 73.9567 83.6558C76.861 81.7976 73.1515 67.4274 74.0806 60.3249C74.8996 46.0442 78.8293 39.6919 73.5713 37.5722C76.4894 37.4896 79.2423 37.524 81.9401 37.4483H81.9332ZM42.2364 88.4871C43.1173 86.271 45.1889 84.0412 47.8248 83.8072H62.5253C65.2713 83.8072 66.7579 82.9194 66.985 79.2236V59.6161C66.7441 59.6298 66.3862 59.7055 65.932 59.8569C65.4433 60.0221 64.8996 60.2699 64.3284 60.6277C63.475 61.1646 62.6354 61.6257 61.782 61.9629C60.8047 62.3483 59.8205 62.5754 58.7951 62.5685H58.7744C57.7421 62.5685 56.7717 62.3345 55.8151 61.9491C54.9892 61.6188 54.1633 61.1577 53.303 60.6209C52.7938 60.3043 52.2776 60.0359 51.7683 59.85C51.3347 59.6918 50.9149 59.6023 50.5226 59.6023C50.1234 59.6023 49.6967 59.6918 49.2563 59.85C48.7608 60.029 48.2377 60.2974 47.7215 60.6277C46.875 61.1577 46.0423 61.6188 45.1958 61.9629C44.2322 62.3483 43.255 62.5754 42.2226 62.5754C41.1972 62.5754 40.213 62.3552 39.2426 61.9629C38.3961 61.6257 37.5565 61.1646 36.7031 60.6277C36.2006 60.3112 35.6914 60.0428 35.189 59.8638C34.7554 59.7055 34.3356 59.6092 33.9502 59.6092C33.5647 59.6092 33.1312 59.6986 32.6769 59.8638C32.147 60.0496 31.6239 60.318 31.1284 60.6346C30.2819 61.1646 29.4492 61.6257 28.6026 61.9698C27.6391 62.3552 26.6618 62.5823 25.6295 62.5823C24.6041 62.5823 23.6199 62.3621 22.6495 61.9698C21.803 61.6326 20.9633 61.1714 20.1099 60.6346C19.5387 60.2767 18.995 60.029 18.5064 59.8638C18.0521 59.7124 17.7012 59.6367 17.4534 59.6229V79.2305C17.6805 82.9262 19.174 83.8209 21.9131 83.8141H36.6136C39.2495 84.0412 41.3279 86.271 42.202 88.494L42.2364 88.4871ZM54.7277 7.31781L55.2783 5.26001L53.5095 5.08108L54.2941 3.2504L52.1675 2.67917L51.9335 4.65438L50.3161 3.92486L49.7656 5.98265L51.5343 6.16159L50.7566 7.9785L52.8832 8.54973L53.1172 6.58829L54.7346 7.31781H54.7277ZM41.4518 93.0294H43.2618C53.3099 92.8573 62.7455 91.2262 67.6044 88.8243C68.0792 88.6179 68.4096 88.4252 68.6298 88.2462C68.8363 88.0948 69.0221 87.9021 69.1598 87.6888C70.4811 89.1478 71.8783 90.5724 73.4268 91.9145C73.9911 92.644 73.7227 93.3597 72.6904 94.048C66.3174 98.3562 54.4455 100.965 42.2639 101.082H42.2226H41.7959H41.7822C29.7589 100.903 18.0934 98.3081 11.7962 94.0548C10.7638 93.3666 10.4954 92.6509 11.0598 91.9213C12.6083 90.5724 14.0054 89.1547 15.3268 87.6956C15.4713 87.9159 15.6502 88.1017 15.8567 88.2531C16.0769 88.432 16.4073 88.6247 16.8822 88.8312C21.7754 91.2538 31.3142 92.8849 41.4518 93.0363V93.0294ZM30.2062 25.893H17.4878V50.5934C18.2104 50.6072 19.1464 50.7517 20.165 51.0958C20.984 51.3711 21.8993 51.7909 22.8353 52.3828C23.4547 52.7682 24.0259 53.0917 24.5628 53.305C24.9688 53.4702 25.3405 53.5597 25.6639 53.5597C25.9805 53.5597 26.3453 53.4633 26.7513 53.2981C27.2744 53.0848 27.8456 52.7682 28.465 52.3828C29.284 51.8666 30.1374 51.4331 31.0045 51.1234C31.9543 50.7861 32.9591 50.5865 34.0052 50.5934C35.0238 50.5934 36.0079 50.8068 36.9439 51.144C37.818 51.4606 38.6507 51.8942 39.4353 52.3828C40.0547 52.7682 40.6259 53.0917 41.1559 53.305C41.5619 53.4702 41.9336 53.5597 42.2501 53.5597C42.5667 53.5597 42.9315 53.4633 43.3375 53.2981C43.8606 53.0848 44.4387 52.7682 45.0512 52.3828C45.8358 51.8873 46.6823 51.4537 47.577 51.1371C48.5336 50.793 49.5316 50.5934 50.5433 50.5934C51.5687 50.5934 52.5598 50.7999 53.5095 51.1371C54.3836 51.4537 55.2232 51.8873 56.0147 52.3828C56.6203 52.7613 57.1846 53.0779 57.7283 53.2981C58.1344 53.4633 58.4991 53.5597 58.802 53.5597H58.8088C59.1323 53.5597 59.4971 53.4702 59.9031 53.305C60.4331 53.0917 61.0112 52.7682 61.6306 52.3828C62.5734 51.7909 63.4819 51.378 64.3009 51.0958C65.3195 50.7517 66.2554 50.6072 66.9781 50.5934V25.893H30.1924H30.2062ZM28.4306 22.3555L29.2496 23.9866H55.2301L56.0559 22.3555C52.5804 20.3115 47.6802 19.0245 42.2433 19.0108C36.8063 19.0245 31.8992 20.3046 28.4306 22.3555ZM5.23739 18.0197C5.17545 18.0748 3.53059 19.5889 3.47554 19.6439C-2.65655 25.5145 3.8403 29.6645 5.34063 35.652H14.2944C14.026 31.6741 12.7872 29.5544 11.7411 28.0678C10.5711 26.4092 9.27728 24.5923 10.2752 22.9956C8.6854 21.7568 5.91874 20.4079 5.39568 17.9853C5.34751 17.9922 5.29245 18.0059 5.24427 18.0197H5.23739ZM27.4877 31.6122L29.3459 33.6768L31.8924 33.3809L31.6997 36.1132L33.7093 37.6479L31.5827 39.451L31.8855 41.9218L29.0638 41.736L27.4808 43.6905L25.6226 41.6327L23.0762 41.9287L23.2689 39.1964L21.2524 37.6617L23.379 35.8585L23.0762 33.3878L25.891 33.5736L27.4739 31.619L27.4877 31.6122ZM56.9988 31.6122L55.1406 33.6768L52.5942 33.3809L52.7869 36.1132L50.7773 37.6479L52.9039 39.451L52.6011 41.9218L55.4228 41.736L57.0057 43.6905L58.8639 41.6327L61.4103 41.9287L61.2176 39.1964L63.2341 37.6617L61.1075 35.8585L61.4103 33.3878L58.5955 33.5736L57.0126 31.619L56.9988 31.6122ZM42.2433 31.6259L43.8124 33.5598L46.6273 33.374L46.3244 35.8447L48.4511 37.6479L46.4346 39.1826L46.6273 41.9149L44.0808 41.619L42.2364 43.663L40.3919 41.619L37.8455 41.9149L38.0382 39.1826L36.0217 37.6479L38.1483 35.8447L37.8455 33.374L40.6603 33.5598L42.2295 31.6259H42.2433Z" fill="#2A4293"/>
<path d="M125.34 43.5455V24.2408L117.356 43.5455H116.159L108.21 24.2408V43.5455H105.292V20.0908H109.476L116.757 37.7438L124.073 20.0908H128.258V43.5455H125.34Z" fill="#2A4293"/>
<path d="M133.743 43.5455V20.0908H136.661V38.4114L150.164 20.0908H153.151V43.5455H150.233V24.8396L136.551 43.5455H133.736H133.743Z" fill="#2A4293"/>
<path d="M175.277 43.5455V32.7817H161.561V43.5455H158.643V20.0908H161.561V30.1871H175.277V20.0908H178.195V43.5455H175.277Z" fill="#2A4293"/>
<path d="M183.68 43.5455V20.0908H186.599V38.4114L200.102 20.0908H203.088V43.5455H200.17V24.8396L186.488 43.5455H183.674H183.68Z" fill="#2A4293"/>
<path d="M219.695 43.9656C218.009 43.9656 216.433 43.6696 214.967 43.0846C213.501 42.4996 212.221 41.6738 211.134 40.607C210.046 39.5403 209.186 38.2602 208.567 36.7736C207.947 35.287 207.638 33.6353 207.638 31.8321C207.638 30.029 207.947 28.3773 208.567 26.8907C209.186 25.4041 210.046 24.124 211.134 23.0573C212.221 21.9905 213.501 21.1647 214.967 20.5797C216.433 19.9947 218.009 19.6987 219.695 19.6987C220.728 19.6987 221.684 19.8157 222.558 20.0497C223.439 20.2837 224.244 20.6141 224.988 21.0339C225.724 21.4537 226.392 21.9492 226.99 22.5136C227.589 23.0779 228.119 23.6836 228.587 24.3443L226.123 25.7138C225.442 24.7297 224.533 23.9176 223.398 23.2706C222.262 22.6237 221.024 22.3002 219.688 22.3002C218.353 22.3002 217.204 22.5342 216.103 23.0022C215.002 23.4702 214.045 24.1309 213.24 24.9705C212.428 25.8171 211.801 26.815 211.34 27.9781C210.886 29.1412 210.652 30.4213 210.652 31.8321C210.652 33.243 210.879 34.4956 211.34 35.6656C211.794 36.8355 212.428 37.8472 213.24 38.6869C214.052 39.5265 215.002 40.1872 216.103 40.6552C217.204 41.1232 218.401 41.3572 219.688 41.3572C220.975 41.3572 222.262 41.0406 223.398 40.4074C224.533 39.7743 225.442 38.9553 226.123 37.9436L228.622 39.3132C227.637 40.6483 226.426 41.7564 224.981 42.6373C223.542 43.5182 221.774 43.9587 219.688 43.9587L219.695 43.9656Z" fill="#2A4293"/>
<path d="M238.153 43.5455V22.6923H230.734V20.0908H248.532V22.6923H241.078V43.5455H238.16H238.153Z" fill="#2A4293"/>
<path d="M252.4 43.5455V20.0908H267.768V22.6923H255.318V30.2559H267.52V32.8574H255.318V40.944H267.768V43.5455H252.4Z" fill="#2A4293"/>
<path d="M272.406 43.5455V20.0908H281.828C282.998 20.0908 284.044 20.2766 284.96 20.6552C285.875 21.0337 286.639 21.543 287.265 22.183C287.885 22.83 288.359 23.5801 288.69 24.4335C289.02 25.2869 289.185 26.1954 289.185 27.1589C289.185 28.1224 289.02 29.0309 288.69 29.8843C288.359 30.7377 287.878 31.4878 287.245 32.1348C286.611 32.7817 285.841 33.291 284.925 33.6626C284.01 34.0411 282.978 34.227 281.828 34.227H275.325V43.5455H272.406ZM281.477 31.6255C282.881 31.6255 284.017 31.2125 284.87 30.3936C285.724 29.5746 286.157 28.4941 286.157 27.1589C286.157 25.8237 285.73 24.7432 284.87 23.9242C284.017 23.1052 282.881 22.6923 281.477 22.6923H275.325V31.6255H281.477Z" fill="#2A4293"/>
<path d="M304.161 43.9656C302.475 43.9656 300.899 43.6696 299.433 43.0846C297.967 42.4996 296.687 41.6738 295.6 40.607C294.512 39.5403 293.652 38.2602 293.033 36.7736C292.413 35.287 292.103 33.6353 292.103 31.8321C292.103 30.029 292.413 28.3773 293.033 26.8907C293.652 25.4041 294.512 24.124 295.6 23.0573C296.687 21.9905 297.967 21.1647 299.433 20.5797C300.899 19.9947 302.475 19.6987 304.161 19.6987C305.194 19.6987 306.15 19.8157 307.024 20.0497C307.905 20.2837 308.71 20.6141 309.454 21.0339C310.19 21.4537 310.858 21.9492 311.456 22.5136C312.055 23.0779 312.585 23.6836 313.053 24.3443L310.589 25.7138C309.908 24.7297 308.999 23.9176 307.864 23.2706C306.728 22.6237 305.489 22.3002 304.154 22.3002C302.819 22.3002 301.67 22.5342 300.569 23.0022C299.467 23.4702 298.511 24.1309 297.706 24.9705C296.894 25.8171 296.267 26.815 295.806 27.9781C295.352 29.1412 295.118 30.4213 295.118 31.8321C295.118 33.243 295.345 34.4956 295.806 35.6656C296.26 36.8355 296.894 37.8472 297.706 38.6869C298.518 39.5265 299.467 40.1872 300.569 40.6552C301.67 41.1232 302.867 41.3572 304.154 41.3572C305.441 41.3572 306.728 41.0406 307.864 40.4074C308.999 39.7743 309.908 38.9553 310.589 37.9436L313.087 39.3132C312.103 40.6483 310.892 41.7564 309.447 42.6373C308.008 43.5182 306.24 43.9587 304.154 43.9587L304.161 43.9656Z" fill="#2A4293"/>
<path d="M322.626 43.5455V22.6923H315.207V20.0908H333.005V22.6923H325.551V43.5455H322.633H322.626Z" fill="#2A4293"/>
<path d="M336.866 43.5455V20.0908H347.313C348.318 20.0908 349.233 20.2353 350.059 20.5313C350.878 20.8272 351.573 21.2333 352.13 21.7632C352.695 22.2931 353.128 22.9263 353.431 23.6627C353.734 24.3991 353.885 25.2043 353.885 26.0715C353.885 26.8217 353.775 27.503 353.548 28.1086C353.328 28.7212 353.018 29.2511 352.633 29.7053C352.247 30.1596 351.807 30.5381 351.311 30.834C350.816 31.13 350.3 31.3295 349.763 31.4465C350.396 31.5429 350.988 31.7631 351.539 32.1141C352.089 32.4651 352.571 32.8987 352.977 33.4149C353.39 33.931 353.713 34.516 353.961 35.1698C354.209 35.8237 354.333 36.505 354.333 37.207C354.333 38.143 354.181 39.0033 353.879 39.7741C353.576 40.5449 353.128 41.2125 352.543 41.7768C351.958 42.3411 351.25 42.7747 350.417 43.0775C349.584 43.3804 348.627 43.5318 347.554 43.5318H336.866V43.5455ZM346.817 30.249C348.153 30.249 349.164 29.8912 349.839 29.1754C350.52 28.4596 350.857 27.5649 350.857 26.4844C350.857 25.4039 350.52 24.5299 349.839 23.7935C349.157 23.0571 348.153 22.6854 346.817 22.6854H339.784V30.249H346.817ZM346.955 40.9372C348.338 40.9372 349.412 40.5793 350.176 39.8635C350.94 39.1478 351.318 38.1567 351.318 36.8904C351.318 36.3536 351.222 35.8374 351.036 35.3419C350.85 34.8464 350.575 34.4197 350.21 34.0549C349.846 33.6902 349.398 33.4011 348.855 33.174C348.318 32.9538 347.685 32.8368 346.955 32.8368H339.784V40.9234H346.955V40.9372Z" fill="#2A4293"/>
<path d="M369.68 43.9656C367.946 43.9656 366.363 43.6627 364.931 43.0502C363.5 42.4377 362.275 41.5912 361.256 40.5038C360.238 39.4164 359.446 38.1294 358.882 36.6497C358.318 35.17 358.035 33.5665 358.035 31.8321C358.035 30.0978 358.318 28.4942 358.882 27.0146C359.446 25.5349 360.238 24.2548 361.256 23.1605C362.275 22.0731 363.5 21.2197 364.931 20.6141C366.363 20.0015 367.946 19.6987 369.68 19.6987C371.415 19.6987 372.997 20.0015 374.429 20.6141C375.86 21.2266 377.086 22.0731 378.104 23.1605C379.123 24.2479 379.914 25.5349 380.478 27.0146C381.043 28.4942 381.325 30.0978 381.325 31.8321C381.325 33.5665 381.043 35.17 380.478 36.6497C379.914 38.1294 379.123 39.4095 378.104 40.5038C377.086 41.5912 375.86 42.4446 374.429 43.0502C372.997 43.6627 371.415 43.9656 369.68 43.9656ZM369.68 41.3641C370.995 41.3641 372.178 41.1232 373.231 40.6414C374.284 40.1597 375.186 39.4921 375.936 38.6387C376.686 37.7853 377.264 36.7736 377.677 35.6174C378.09 34.4543 378.29 33.1948 378.29 31.839C378.29 30.4832 378.083 29.2169 377.677 28.04C377.264 26.87 376.686 25.8583 375.936 25.0187C375.186 24.1722 374.284 23.5115 373.231 23.0297C372.178 22.548 370.995 22.3071 369.68 22.3071C368.366 22.3071 367.175 22.548 366.108 23.0297C365.042 23.5115 364.133 24.1722 363.383 25.0187C362.633 25.8652 362.055 26.87 361.662 28.04C361.263 29.21 361.064 30.4763 361.064 31.839C361.064 33.2017 361.263 34.4612 361.662 35.6174C362.062 36.7805 362.633 37.7853 363.383 38.6387C364.133 39.4921 365.042 40.1597 366.108 40.6414C367.175 41.1232 368.366 41.3641 369.68 41.3641Z" fill="#2A4293"/>
<path d="M405.654 43.9656C403.919 43.9656 402.337 43.6627 400.905 43.0502C399.474 42.4377 398.248 41.5912 397.23 40.5038C396.211 39.4164 395.42 38.1294 394.856 36.6497C394.291 35.17 394.009 33.5665 394.009 31.8321C394.009 30.0978 394.291 28.4942 394.856 27.0146C395.42 25.5349 396.211 24.2548 397.23 23.1605C398.248 22.0731 399.474 21.2197 400.905 20.6141C402.337 20.0015 403.919 19.6987 405.654 19.6987C407.388 19.6987 408.971 20.0015 410.403 20.6141C411.834 21.2266 413.059 22.0731 414.078 23.1605C415.096 24.2479 415.888 25.5349 416.452 27.0146C417.016 28.4942 417.299 30.0978 417.299 31.8321C417.299 33.5665 417.016 35.17 416.452 36.6497C415.888 38.1294 415.096 39.4095 414.078 40.5038C413.059 41.5912 411.834 42.4446 410.403 43.0502C408.971 43.6627 407.388 43.9656 405.654 43.9656ZM405.654 41.3641C406.968 41.3641 408.152 41.1232 409.205 40.6414C410.258 40.1597 411.16 39.4921 411.91 38.6387C412.66 37.7853 413.238 36.7736 413.651 35.6174C414.064 34.4543 414.263 33.1948 414.263 31.839C414.263 30.4832 414.057 29.2169 413.651 28.04C413.238 26.87 412.66 25.8583 411.91 25.0187C411.16 24.1722 410.258 23.5115 409.205 23.0297C408.152 22.548 406.968 22.3071 405.654 22.3071C404.339 22.3071 403.149 22.548 402.082 23.0297C401.015 23.5115 400.107 24.1722 399.357 25.0187C398.606 25.8652 398.028 26.87 397.636 28.04C397.237 29.21 397.037 30.4763 397.037 31.839C397.037 33.2017 397.237 34.4612 397.636 35.6174C398.035 36.7805 398.606 37.7853 399.357 38.6387C400.107 39.4921 401.015 40.1597 402.082 40.6414C403.149 41.1232 404.339 41.3641 405.654 41.3641Z" fill="#2A4293"/>
<path d="M437.092 20.0908V22.6923H424.786V29.4094H431.29C432.439 29.4094 433.472 29.5952 434.387 29.9737C435.303 30.3523 436.073 30.8615 436.706 31.5016C437.34 32.1485 437.821 32.8987 438.152 33.7521C438.482 34.6055 438.647 35.5139 438.647 36.4775C438.647 37.441 438.482 38.3494 438.152 39.2028C437.821 40.0562 437.347 40.8064 436.727 41.4533C436.108 42.1003 435.337 42.6096 434.422 42.9812C433.506 43.3597 432.467 43.5455 431.29 43.5455H421.868V20.0908H437.099H437.092ZM424.786 32.0109V40.944H430.939C432.343 40.944 433.479 40.5311 434.332 39.7121C435.186 38.8931 435.619 37.8126 435.619 36.4775C435.619 35.1423 435.192 34.0618 434.332 33.2428C433.479 32.4238 432.343 32.0109 430.939 32.0109H424.786Z" fill="#2A4293"/>
<path d="M442.508 43.5455V20.0908H451.93C453.1 20.0908 454.146 20.2766 455.061 20.6552C455.977 21.0337 456.741 21.543 457.367 22.183C457.986 22.83 458.461 23.5801 458.792 24.4335C459.122 25.2869 459.287 26.1954 459.287 27.1589C459.287 28.1224 459.122 29.0309 458.792 29.8843C458.461 30.7377 457.98 31.4878 457.346 32.1348C456.713 32.7817 455.942 33.291 455.027 33.6626C454.112 34.0411 453.079 34.227 451.93 34.227H445.426V43.5455H442.508ZM451.579 31.6255C452.983 31.6255 454.119 31.2125 454.972 30.3936C455.825 29.5746 456.259 28.4941 456.259 27.1589C456.259 25.8237 455.832 24.7432 454.972 23.9242C454.119 23.1052 452.983 22.6923 451.579 22.6923H445.426V31.6255H451.579Z" fill="#2A4293"/>
<path d="M477.181 43.5455L475.109 38.3426H463.437L461.366 43.5455H458.028L467.45 20.0908H471.07L480.533 43.5455H477.195H477.181ZM469.266 23.1121L464.27 35.7342H474.222L469.266 23.1121Z" fill="#2A4293"/>
<path d="M490.195 43.9658C489.163 43.9658 488.199 43.8625 487.291 43.6698C486.389 43.4702 485.557 43.195 484.793 42.844C484.029 42.493 483.361 42.08 482.79 41.612C482.212 41.144 481.744 40.6416 481.365 40.0979L483.086 38.2328C483.788 39.1482 484.772 39.8984 486.038 40.4833C487.305 41.0683 488.661 41.3643 490.12 41.3643C491.971 41.3643 493.416 40.972 494.462 40.1874C495.508 39.4028 496.025 38.3292 496.025 36.9665C496.025 36.237 495.866 35.6107 495.55 35.0877C495.233 34.5577 494.806 34.131 494.263 33.8007C493.726 33.4703 493.079 33.2295 492.329 33.0643C491.579 32.8991 490.76 32.8165 489.865 32.8165H485.082V30.215H489.865C490.636 30.215 491.372 30.1393 492.06 29.9879C492.749 29.8365 493.354 29.6025 493.87 29.2859C494.387 28.9693 494.8 28.5702 495.102 28.0884C495.405 27.6066 495.557 27.0285 495.557 26.3472C495.557 25.6659 495.412 25.1153 495.116 24.6266C494.82 24.1311 494.421 23.7182 493.905 23.3809C493.389 23.0437 492.79 22.7822 492.109 22.6101C491.427 22.4312 490.705 22.3486 489.927 22.3486C487.277 22.3486 485.061 23.2984 483.279 25.1979L481.661 23.3672C482.549 22.3348 483.719 21.4746 485.158 20.7795C486.603 20.0912 488.255 19.7402 490.133 19.7402C491.283 19.7402 492.363 19.8779 493.389 20.1601C494.407 20.4422 495.302 20.8483 496.073 21.3713C496.844 21.9013 497.449 22.5551 497.903 23.3397C498.351 24.1242 498.578 25.012 498.578 25.9962C498.578 26.8427 498.413 27.5791 498.082 28.2123C497.752 28.8455 497.346 29.3823 496.85 29.8296C496.355 30.277 495.811 30.6348 495.213 30.9032C494.614 31.1717 494.049 31.3575 493.506 31.4469C494.043 31.4951 494.634 31.6465 495.261 31.9012C495.894 32.1627 496.479 32.5206 497.016 32.9886C497.552 33.4566 498.007 34.0416 498.371 34.7435C498.736 35.4455 498.915 36.2645 498.915 37.2074C498.915 38.1916 498.709 39.0931 498.289 39.9121C497.869 40.7311 497.277 41.44 496.513 42.0387C495.749 42.6375 494.82 43.1055 493.747 43.4427C492.666 43.7799 491.475 43.952 490.161 43.952L490.195 43.9658Z" fill="#2A4293"/>
<path d="M514.318 43.9656C512.583 43.9656 511 43.6627 509.569 43.0502C508.137 42.4377 506.912 41.5912 505.894 40.5038C504.875 39.4164 504.084 38.1294 503.519 36.6497C502.955 35.17 502.673 33.5665 502.673 31.8321C502.673 30.0978 502.955 28.4942 503.519 27.0146C504.084 25.5349 504.875 24.2548 505.894 23.1605C506.912 22.0731 508.137 21.2197 509.569 20.6141C511 20.0015 512.583 19.6987 514.318 19.6987C516.052 19.6987 517.635 20.0015 519.066 20.6141C520.498 21.2266 521.723 22.0731 522.742 23.1605C523.76 24.2479 524.552 25.5349 525.116 27.0146C525.68 28.4942 525.962 30.0978 525.962 31.8321C525.962 33.5665 525.68 35.17 525.116 36.6497C524.552 38.1294 523.76 39.4095 522.742 40.5038C521.723 41.5912 520.498 42.4446 519.066 43.0502C517.635 43.6627 516.052 43.9656 514.318 43.9656ZM514.318 41.3641C515.632 41.3641 516.816 41.1232 517.869 40.6414C518.922 40.1597 519.823 39.4921 520.574 38.6387C521.324 37.7853 521.902 36.7736 522.315 35.6174C522.728 34.4543 522.927 33.1948 522.927 31.839C522.927 30.4832 522.721 29.2169 522.315 28.04C521.902 26.87 521.324 25.8583 520.574 25.0187C519.823 24.1722 518.922 23.5115 517.869 23.0297C516.816 22.548 515.632 22.3071 514.318 22.3071C513.003 22.3071 511.812 22.548 510.746 23.0297C509.679 23.5115 508.771 24.1722 508.02 25.0187C507.27 25.8652 506.692 26.87 506.3 28.04C505.901 29.21 505.701 30.4763 505.701 31.839C505.701 33.2017 505.901 34.4612 506.3 35.6174C506.699 36.7805 507.27 37.7853 508.02 38.6387C508.771 39.4921 509.679 40.1597 510.746 40.6414C511.812 41.1232 513.003 41.3641 514.318 41.3641Z" fill="#2A4293"/>
<path d="M530.532 43.5455V20.0908H540.979C541.984 20.0908 542.9 20.2353 543.725 20.5313C544.544 20.8272 545.24 21.2333 545.797 21.7632C546.361 22.2931 546.795 22.9263 547.098 23.6627C547.401 24.3991 547.552 25.2043 547.552 26.0715C547.552 26.8217 547.442 27.503 547.215 28.1086C546.995 28.7212 546.685 29.2511 546.299 29.7053C545.914 30.1596 545.474 30.5381 544.978 30.834C544.483 31.13 543.966 31.3295 543.43 31.4465C544.063 31.5429 544.655 31.7631 545.205 32.1141C545.756 32.4651 546.238 32.8987 546.644 33.4149C547.057 33.931 547.38 34.516 547.628 35.1698C547.876 35.8237 547.999 36.505 547.999 37.207C547.999 38.143 547.848 39.0033 547.545 39.7741C547.242 40.5449 546.795 41.2125 546.21 41.7768C545.625 42.3411 544.916 42.7747 544.083 43.0775C543.251 43.3804 542.294 43.5318 541.22 43.5318H530.532V43.5455ZM540.484 30.249C541.819 30.249 542.831 29.8912 543.505 29.1754C544.187 28.4596 544.524 27.5649 544.524 26.4844C544.524 25.4039 544.187 24.5299 543.505 23.7935C542.824 23.0571 541.819 22.6854 540.484 22.6854H533.45V30.249H540.484ZM540.622 40.9372C542.005 40.9372 543.079 40.5793 543.843 39.8635C544.606 39.1478 544.985 38.1567 544.985 36.8904C544.985 36.3536 544.889 35.8374 544.703 35.3419C544.517 34.8464 544.242 34.4197 543.877 34.0549C543.512 33.6902 543.065 33.4011 542.521 33.174C541.984 32.9538 541.351 32.8368 540.622 32.8368H533.45V40.9234H540.622V40.9372Z" fill="#2A4293"/>
<path d="M569.389 43.5455L567.318 38.3426H555.646L553.574 43.5455H550.236L559.658 20.0908H563.278L572.741 43.5455H569.403H569.389ZM561.475 23.1121L556.478 35.7342H566.43L561.475 23.1121Z" fill="#2A4293"/>
<path d="M592.424 43.5455V32.7817H578.708V43.5455H575.79V20.0908H578.708V30.1871H592.424V20.0908H595.342V43.5455H592.424Z" fill="#2A4293"/>
<path d="M600.828 43.5455V20.0908H603.746V38.4114L617.249 20.0908H620.236V43.5455H617.317V24.8396L603.636 43.5455H600.821H600.828Z" fill="#2A4293"/>
<path d="M624.64 43.5455L630.972 33.9792C630.174 33.9104 629.41 33.7108 628.666 33.3805C627.93 33.0501 627.276 32.6096 626.712 32.0453C626.147 31.481 625.7 30.7927 625.356 29.9737C625.019 29.1547 624.847 28.2188 624.847 27.1589C624.847 26.099 625.026 25.108 625.39 24.2408C625.755 23.3737 626.264 22.6304 626.918 22.011C627.572 21.3916 628.357 20.9167 629.258 20.5863C630.16 20.256 631.151 20.0908 632.231 20.0908H641.653V43.5455H638.735V34.227H634.021L628.04 43.5455H624.626H624.64ZM638.742 31.6255V22.6923H632.555C631.171 22.6923 630.043 23.0984 629.176 23.9174C628.308 24.7363 627.875 25.81 627.875 27.1382C627.875 28.4665 628.308 29.547 629.176 30.3798C630.043 31.2057 631.171 31.6255 632.555 31.6255H638.742Z" fill="#2A4293"/>
<path d="M105.298 85.7477V62.293H108.217V80.6135L121.72 62.293H124.706V85.7477H121.788V67.0417L108.106 85.7477H105.292H105.298Z" fill="#2A4293"/>
<path d="M155.904 85.7477V74.9838H142.187V85.7477H139.269V62.293H142.187V72.3892H155.904V62.293H158.822V85.7477H155.904Z" fill="#2A4293"/>
<path d="M181.045 85.7477L178.973 80.5447H167.301L165.229 85.7477H161.891L171.313 62.293H174.933L184.396 85.7477H181.058H181.045ZM173.13 65.3143L168.133 77.9363H178.085L173.13 65.3143Z" fill="#2A4293"/>
<path d="M189.799 86.1675C188.815 86.1675 187.913 85.9886 187.094 85.6376C186.275 85.2866 185.656 84.8393 185.229 84.3025L186.461 81.9831C186.881 82.4305 187.356 82.8021 187.886 83.1118C188.415 83.4146 189.007 83.5661 189.661 83.5661C190.129 83.5661 190.535 83.511 190.872 83.3871C191.21 83.2701 191.533 83.0774 191.843 82.809C192.146 82.5406 192.435 82.1965 192.703 81.7698C192.971 81.35 193.274 80.8338 193.598 80.2213L194.018 79.4092L185.016 62.2861H188.353L195.704 76.8077L203.054 62.2861H206.392L196.158 81.5909C195.779 82.2928 195.394 82.926 194.995 83.4904C194.596 84.0547 194.148 84.5365 193.66 84.9287C193.164 85.3279 192.614 85.6307 191.987 85.8441C191.368 86.0574 190.632 86.1607 189.792 86.1607L189.799 86.1675Z" fill="#2A4293"/>
<path d="M223.632 85.7477L214.733 75.1972L212.379 77.8675V85.7477H209.461V62.293H212.379V74.4264L222.751 62.293H226.405L216.626 73.4422L227.245 85.7477H223.625H223.632Z" fill="#2A4293"/>
<path d="M230.597 85.7477V62.293H233.515V80.6135L247.018 62.293H250.005V85.7477H247.087V67.0417L233.405 85.7477H230.59H230.597Z" fill="#2A4293"/>
<path d="M281.305 85.7477L279.234 80.5447H267.561L265.49 85.7477H262.152L271.574 62.293H275.194L284.657 85.7477H281.319H281.305ZM273.391 65.3143L268.394 77.9363H278.346L273.391 65.3143Z" fill="#2A4293"/>
<path d="M307.754 85.7477V66.443L299.77 85.7477H298.573L290.624 66.443V85.7477H287.706V62.293H291.89L299.172 79.9459L306.487 62.293H310.672V85.7477H307.754Z" fill="#2A4293"/>
<path d="M318.511 86.1675C317.526 86.1675 316.625 85.9886 315.806 85.6376C314.987 85.2866 314.368 84.8393 313.941 84.3025L315.173 81.9831C315.593 82.4305 316.067 82.8021 316.597 83.1118C317.127 83.4146 317.719 83.5661 318.373 83.5661C318.841 83.5661 319.247 83.511 319.584 83.3871C319.921 83.2701 320.245 83.0774 320.555 82.809C320.857 82.5406 321.147 82.1965 321.415 81.7698C321.683 81.35 321.986 80.8338 322.31 80.2213L322.729 79.4092L313.727 62.2861H317.065L324.416 76.8077L331.766 62.2861H335.104L324.87 81.5909C324.491 82.2928 324.106 82.926 323.707 83.4904C323.308 84.0547 322.86 84.5365 322.372 84.9287C321.876 85.3279 321.325 85.6307 320.699 85.8441C320.08 86.0574 319.343 86.1607 318.504 86.1607L318.511 86.1675Z" fill="#2A4293"/>
<path d="M338.166 85.7477V62.293H347.588C348.758 62.293 349.804 62.4788 350.72 62.8573C351.635 63.2358 352.399 63.7451 353.025 64.3852C353.645 65.0321 354.119 65.7823 354.45 66.6357C354.78 67.4891 354.945 68.3975 354.945 69.361C354.945 70.3246 354.78 71.233 354.45 72.0864C354.119 72.9398 353.638 73.69 353.005 74.3369C352.371 74.9838 351.601 75.4931 350.685 75.8648C349.77 76.2433 348.738 76.4291 347.588 76.4291H341.084V85.7477H338.166ZM347.237 73.8276C348.641 73.8276 349.777 73.4147 350.63 72.5957C351.484 71.7767 351.917 70.6962 351.917 69.361C351.917 68.0259 351.49 66.9454 350.63 66.1264C349.777 65.3074 348.641 64.8945 347.237 64.8945H341.084V73.8276H347.237Z" fill="#2A4293"/>
<path d="M369.928 86.1677C368.242 86.1677 366.666 85.8718 365.2 85.2868C363.734 84.7018 362.454 83.8759 361.366 82.8092C360.279 81.7424 359.419 80.4623 358.799 78.9758C358.18 77.4892 357.87 75.8374 357.87 74.0343C357.87 72.2311 358.18 70.5794 358.799 69.0928C359.419 67.6063 360.279 66.3262 361.366 65.2594C362.454 64.1927 363.734 63.3668 365.2 62.7818C366.666 62.1968 368.242 61.9009 369.928 61.9009C370.96 61.9009 371.917 62.0179 372.791 62.2519C373.672 62.4859 374.477 62.8162 375.22 63.236C375.957 63.6559 376.624 64.1514 377.223 64.7157C377.822 65.2801 378.352 65.8857 378.82 66.5464L376.356 67.916C375.675 66.9318 374.766 66.1197 373.631 65.4728C372.495 64.8258 371.256 64.5024 369.921 64.5024C368.586 64.5024 367.437 64.7364 366.335 65.2044C365.234 65.6724 364.278 66.3331 363.472 67.1727C362.66 68.0192 362.034 69.0171 361.573 70.1802C361.119 71.3433 360.885 72.6234 360.885 74.0343C360.885 75.4452 361.112 76.6977 361.573 77.8677C362.027 79.0377 362.66 80.0494 363.472 80.889C364.285 81.7355 365.234 82.3893 366.335 82.8573C367.437 83.3253 368.634 83.5593 369.921 83.5593C371.208 83.5593 372.495 83.2427 373.631 82.6096C374.766 81.9764 375.675 81.1574 376.356 80.1457L378.854 81.5153C377.87 82.8505 376.659 83.9585 375.214 84.8394C373.775 85.7204 372.006 86.1608 369.921 86.1608L369.928 86.1677Z" fill="#2A4293"/>
<path d="M396.755 85.7477L387.856 75.1972L385.503 77.8675V85.7477H382.584V62.293H385.503V74.4264L395.874 62.293H399.529L389.749 73.4422L400.368 85.7477H396.748H396.755Z" fill="#2A4293"/>
<path d="M412.515 86.1677C410.781 86.1677 409.198 85.8649 407.767 85.2524C406.335 84.6398 405.11 83.7933 404.092 82.7059C403.073 81.6185 402.281 80.3316 401.717 78.8519C401.153 77.3722 400.871 75.7686 400.871 74.0343C400.871 72.3 401.153 70.6964 401.717 69.2167C402.281 67.737 403.073 66.4569 404.092 65.3627C405.11 64.2753 406.335 63.4219 407.767 62.8162C409.198 62.2037 410.781 61.9009 412.515 61.9009C414.25 61.9009 415.833 62.2037 417.264 62.8162C418.696 63.4287 419.921 64.2753 420.939 65.3627C421.958 66.4501 422.749 67.737 423.314 69.2167C423.878 70.6964 424.16 72.3 424.16 74.0343C424.16 75.7686 423.878 77.3722 423.314 78.8519C422.749 80.3316 421.958 81.6117 420.939 82.7059C419.921 83.7933 418.696 84.6467 417.264 85.2524C415.833 85.8649 414.25 86.1677 412.515 86.1677ZM412.515 83.5662C413.83 83.5662 415.014 83.3253 416.067 82.8436C417.12 82.3618 418.021 81.6942 418.771 80.8408C419.521 79.9874 420.1 78.9758 420.513 77.8195C420.925 76.6564 421.125 75.397 421.125 74.0412C421.125 72.6854 420.919 71.419 420.513 70.2422C420.1 69.0722 419.521 68.0605 418.771 67.2209C418.021 66.3743 417.12 65.7136 416.067 65.2319C415.014 64.7501 413.83 64.5093 412.515 64.5093C411.201 64.5093 410.01 64.7501 408.943 65.2319C407.877 65.7136 406.968 66.3743 406.218 67.2209C405.468 68.0674 404.89 69.0722 404.498 70.2422C404.098 71.4122 403.899 72.6785 403.899 74.0412C403.899 75.4039 404.098 76.6633 404.498 77.8195C404.897 78.9826 405.468 79.9874 406.218 80.8408C406.968 81.6942 407.877 82.3618 408.943 82.8436C410.01 83.3253 411.201 83.5662 412.515 83.5662Z" fill="#2A4293"/>
<path d="M428.723 85.7476V62.2928H431.641V80.6134L445.144 62.2928H448.131V85.7476H445.213V67.0416L431.531 85.7476H428.716H428.723ZM441.93 60.1249C440.863 60.6755 439.7 60.9508 438.434 60.9508C437.168 60.9508 436.004 60.6755 434.938 60.1249C433.871 59.5744 432.976 58.8173 432.247 57.8538L433.548 56.7251C434.112 57.4959 434.8 58.1153 435.619 58.5695C436.438 59.0238 437.374 59.2578 438.434 59.2578C439.494 59.2578 440.395 59.0375 441.228 58.5902C442.061 58.1428 442.749 57.5234 443.286 56.7251L444.587 57.8538C443.885 58.8173 442.997 59.5744 441.93 60.1249Z" fill="#2A4293"/>
<path d="M473.389 86.1677C471.655 86.1677 470.072 85.8649 468.64 85.2524C467.209 84.6398 465.984 83.7933 464.965 82.7059C463.946 81.6185 463.155 80.3316 462.591 78.8519C462.026 77.3722 461.744 75.7686 461.744 74.0343C461.744 72.3 462.026 70.6964 462.591 69.2167C463.155 67.737 463.946 66.4569 464.965 65.3627C465.984 64.2753 467.209 63.4219 468.64 62.8162C470.072 62.2037 471.655 61.9009 473.389 61.9009C475.123 61.9009 476.706 62.2037 478.138 62.8162C479.569 63.4287 480.794 64.2753 481.813 65.3627C482.831 66.4501 483.623 67.737 484.187 69.2167C484.752 70.6964 485.034 72.3 485.034 74.0343C485.034 75.7686 484.752 77.3722 484.187 78.8519C483.623 80.3316 482.831 81.6117 481.813 82.7059C480.794 83.7933 479.569 84.6467 478.138 85.2524C476.706 85.8649 475.123 86.1677 473.389 86.1677ZM473.389 83.5662C474.703 83.5662 475.887 83.3253 476.94 82.8436C477.993 82.3618 478.895 81.6942 479.645 80.8408C480.395 79.9874 480.973 78.9758 481.386 77.8195C481.799 76.6564 481.999 75.397 481.999 74.0412C481.999 72.6854 481.792 71.419 481.386 70.2422C480.973 69.0722 480.395 68.0605 479.645 67.2209C478.895 66.3743 477.993 65.7136 476.94 65.2319C475.887 64.7501 474.703 64.5093 473.389 64.5093C472.074 64.5093 470.884 64.7501 469.817 65.2319C468.75 65.7136 467.842 66.3743 467.092 67.2209C466.341 68.0674 465.763 69.0722 465.371 70.2422C464.972 71.4122 464.772 72.6785 464.772 74.0412C464.772 75.4039 464.972 76.6633 465.371 77.8195C465.77 78.9826 466.341 79.9874 467.092 80.8408C467.842 81.6942 468.75 82.3618 469.817 82.8436C470.884 83.3253 472.074 83.5662 473.389 83.5662Z" fill="#2A4293"/>
<path d="M504.827 62.2861V64.8876H492.522V71.6047H499.025C500.175 71.6047 501.207 71.7905 502.122 72.169C503.038 72.5476 503.808 73.0569 504.442 73.6969C505.075 74.3438 505.557 75.094 505.887 75.9474C506.217 76.8008 506.382 77.7093 506.382 78.6728C506.382 79.6363 506.217 80.5447 505.887 81.3981C505.557 82.2515 505.082 83.0017 504.462 83.6486C503.843 84.2956 503.072 84.8049 502.157 85.1765C501.241 85.555 500.202 85.7408 499.025 85.7408H489.603V62.2861H504.834H504.827ZM492.522 74.2062V83.1394H498.674C500.078 83.1394 501.214 82.7264 502.067 81.9074C502.921 81.0884 503.354 80.0079 503.354 78.6728C503.354 77.3376 502.928 76.2571 502.067 75.4381C501.214 74.6191 500.078 74.2062 498.674 74.2062H492.522Z" fill="#2A4293"/>
<path d="M508.626 83.5661C509.328 83.5661 509.954 83.4422 510.505 83.1944C511.055 82.9467 511.551 82.4787 511.998 81.7904C512.446 81.1022 512.824 80.1387 513.141 78.9068C513.457 77.6748 513.746 76.0644 514.001 74.0685L515.439 62.2861H529.789V85.7408H526.871V64.8876H518.041L516.878 74.275C516.548 76.8559 516.135 78.9205 515.632 80.4828C515.13 82.0451 514.531 83.2426 513.836 84.0891C513.141 84.9356 512.363 85.4931 511.496 85.7615C510.629 86.0299 509.665 86.1675 508.612 86.1675V83.5661H508.626Z" fill="#2A4293"/>
<path d="M552.019 85.7477L549.947 80.5447H538.275L536.203 85.7477H532.865L542.287 62.293H545.907L555.37 85.7477H552.032H552.019ZM544.104 65.3143L539.108 77.9363H549.059L544.104 65.3143Z" fill="#2A4293"/>
<path d="M568.233 86.1677C566.547 86.1677 564.971 85.8718 563.505 85.2868C562.039 84.7018 560.759 83.8759 559.672 82.8092C558.584 81.7424 557.724 80.4623 557.105 78.9758C556.485 77.4892 556.176 75.8374 556.176 74.0343C556.176 72.2311 556.485 70.5794 557.105 69.0928C557.724 67.6063 558.584 66.3262 559.672 65.2594C560.759 64.1927 562.039 63.3668 563.505 62.7818C564.971 62.1968 566.547 61.9009 568.233 61.9009C569.266 61.9009 570.222 62.0179 571.096 62.2519C571.977 62.4859 572.782 62.8162 573.526 63.236C574.262 63.6559 574.93 64.1514 575.528 64.7157C576.127 65.2801 576.657 65.8857 577.125 66.5464L574.661 67.916C573.98 66.9318 573.071 66.1197 571.936 65.4728C570.8 64.8258 569.561 64.5024 568.226 64.5024C566.891 64.5024 565.742 64.7364 564.641 65.2044C563.54 65.6724 562.583 66.3331 561.778 67.1727C560.966 68.0192 560.339 69.0171 559.878 70.1802C559.424 71.3433 559.19 72.6234 559.19 74.0343C559.19 75.4452 559.417 76.6977 559.878 77.8677C560.332 79.0377 560.966 80.0494 561.778 80.889C562.59 81.7287 563.54 82.3893 564.641 82.8573C565.742 83.3253 566.939 83.5593 568.226 83.5593C569.513 83.5593 570.8 83.2427 571.936 82.6096C573.071 81.9764 573.98 81.1574 574.661 80.1457L577.159 81.5153C576.175 82.8505 574.964 83.9585 573.519 84.8394C572.08 85.7204 570.312 86.1608 568.226 86.1608L568.233 86.1677Z" fill="#2A4293"/>
<path d="M586.691 85.7477V64.8945H579.272V62.293H597.07V64.8945H589.616V85.7477H586.698H586.691Z" fill="#2A4293"/>
<path d="M600.938 85.7477V62.293H603.856V80.6135L617.359 62.293H620.346V85.7477H617.428V67.0417L603.746 85.7477H600.931H600.938Z" fill="#2A4293"/>
</g>
<defs>
<clipPath id="clip0_15_271">
<rect width="641.66" height="100.357" fill="white" transform="translate(0 0.731445)"/>
</clipPath>
</defs>
</svg>
