<svg width="589" height="571" viewBox="0 0 589 571" fill="none" xmlns="http://www.w3.org/2000/svg">
<g clip-path="url(#clip0_41_846)">
<path d="M49.0833 416.159L49.3909 428.354L41.2718 428.354L41.6409 416.823L41.3333 396.01L27.4325 396.01L27.125 416.122L27.4325 428.318L19.3135 428.318L19.6825 416.786L19.3135 389.642L49.477 389.642L49.0956 416.147L49.0833 416.159Z" fill="white"/>
<path d="M88.4977 421.691L88.9652 422.343L88.4362 428.441L64.2144 428.441L64.6203 416.909L64.2144 389.765L88.5715 389.765L89.039 390.441L88.4485 396.539L79.21 396.232L72.2473 396.232L72.0628 405.538L78.7179 405.661L85.0164 405.476L85.5084 406.091L84.9548 412.189L78.1275 412.004L72.0382 412.004L72.0382 416.073L72.1981 421.888L78.9763 421.888L88.4731 421.679L88.4977 421.691Z" fill="white"/>
<path d="M135.859 421.753L135.859 435.989L129.868 436.517L128.773 428.391L104.244 428.391L103.223 436.038L97.1334 436.567L97.1334 421.741L100.32 421.741C102.029 420.905 103.444 419.577 104.379 417.917C105.535 415.618 106.335 413.147 106.729 410.603C107.368 407.419 107.959 402.882 108.5 397.006L109.287 389.728L130.987 389.728L130.557 416.159L130.68 421.753L135.834 421.777L135.859 421.753ZM122.905 421.753L123.09 416.872L122.782 395.937L115.721 395.937L115.475 398.457C115.057 403.669 114.233 408.832 112.978 413.91C112.314 416.835 110.924 419.528 108.918 421.753L122.905 421.753Z" fill="white"/>
<path d="M177.414 428.404L169.049 428.404L168.089 423.363L167.068 419.761L159.515 419.577L152.86 419.761L151.839 422.958L150.805 428.404L142.785 428.404L155.837 389.777L165.506 389.777L177.401 428.404H177.414ZM165.42 413.455L160.93 397.375L160.376 397.375L155.099 413.455L160.253 413.578L165.407 413.455H165.42Z" fill="white"/>
<path d="M209.976 390.404L209.361 396.342L201.02 396.121L196.112 396.121L195.829 416.172L196.112 428.367L187.993 428.367L188.399 416.835L187.993 389.691L209.509 389.691L209.976 390.404Z" fill="white"/>
<path d="M245.023 394.166C247.976 397.461 249.44 402.145 249.427 408.23C249.427 414.869 247.828 419.995 244.642 423.597C242.92 425.441 240.804 426.879 238.467 427.814C236.129 428.748 233.607 429.154 231.086 429.006C228.761 429.141 226.423 428.76 224.258 427.887C222.093 427.002 220.149 425.65 218.575 423.929C215.647 420.548 214.171 415.79 214.171 409.558C214.171 403.325 215.77 398.014 218.944 394.498C220.678 392.691 222.782 391.277 225.119 390.368C227.457 389.458 229.954 389.064 232.463 389.212C234.788 389.064 237.126 389.433 239.303 390.294C241.48 391.154 243.436 392.47 245.036 394.179L245.023 394.166ZM224.726 398.739C223.053 401.714 222.302 405.132 222.573 408.537C222.573 413.701 223.286 417.376 224.701 419.577C225.476 420.708 226.534 421.605 227.776 422.195C229.019 422.773 230.384 423.019 231.75 422.896C233.066 423.007 234.395 422.786 235.6 422.257C236.818 421.728 237.876 420.905 238.688 419.86C240.398 416.848 241.173 413.393 240.927 409.939C240.927 404.849 240.25 401.223 238.897 399.047C238.11 397.928 237.052 397.043 235.809 396.465C234.567 395.887 233.201 395.654 231.848 395.777C230.52 395.641 229.167 395.838 227.936 396.354C226.706 396.871 225.611 397.694 224.787 398.739L224.726 398.739Z" fill="white"/>
<path d="M283.183 390.404L282.568 396.342L274.24 396.121L269.307 396.121L269.024 416.172L269.307 428.367L261.188 428.367L261.594 416.835L261.188 389.691L282.728 389.691L283.171 390.404H283.183Z" fill="white"/>
<path d="M293.504 416.872L293.073 389.974L301.352 389.568L300.811 415.999L301.426 415.999L317.061 389.691L325.709 389.691L325.279 416.122L325.586 428.318L317.467 428.318L317.836 416.786L317.836 402.022L317.271 402.022L301.5 428.305L293.061 428.305L293.529 416.86L293.504 416.872Z" fill="white"/>
<path d="M366.219 416.159L366.526 428.354L358.407 428.354L358.838 416.823L358.838 412.201L358.247 412.201C356.008 414.242 353.376 415.791 350.509 416.762C347.213 417.032 343.94 416.036 341.357 413.971C340.287 412.815 339.475 411.451 338.958 409.976C338.442 408.488 338.22 406.915 338.331 405.353L338.085 389.679L346.204 389.679L346.081 403.202C345.982 404.923 346.462 406.632 347.459 408.046C347.926 408.611 348.504 409.066 349.169 409.361C349.833 409.656 350.559 409.791 351.284 409.754C354.052 409.558 356.648 408.365 358.592 406.398L358.346 389.679L366.625 389.679L366.194 416.147L366.219 416.159Z" fill="white"/>
<path d="M405.571 421.691L406.039 422.343L405.51 428.441L381.288 428.441L381.694 416.909L381.288 389.765L405.756 389.765L406.223 390.441L405.633 396.539L396.394 396.232L389.432 396.232L389.247 405.538L395.902 405.661L402.201 405.476L402.681 406.091L402.139 412.189L395.324 412.004L389.136 412.004L389.136 416.073L389.296 421.888L396.075 421.888L405.571 421.679V421.691Z" fill="white"/>
<path d="M443.633 391.634L442.193 398.432L441.541 398.715C440.299 397.842 438.921 397.154 437.482 396.686C436.055 396.207 434.542 395.961 433.041 395.973C426.681 395.973 423.519 400.141 423.519 408.513C423.286 412.078 424.147 415.631 425.992 418.68C426.841 419.835 427.96 420.745 429.252 421.347C430.544 421.95 431.971 422.22 433.385 422.134C436.522 422.085 439.585 421.187 442.255 419.552L442.993 419.983L442.316 426.892C439.315 428.268 436.042 428.957 432.733 428.932C430.31 429.092 427.874 428.723 425.598 427.863C423.323 426.99 421.268 425.638 419.558 423.892C416.557 420.536 415.031 415.754 415.031 409.41C415.031 403.067 416.655 398.051 419.866 394.523C421.625 392.716 423.753 391.302 426.115 390.392C428.465 389.482 430.987 389.089 433.508 389.237C437.027 389.2 440.508 390.023 443.645 391.634L443.633 391.634Z" fill="white"/>
<path d="M486.196 426.732L486.073 427.629C483.465 428.256 480.82 428.723 478.151 429.006L477.204 428.514C471.963 421.568 467.313 414.881 463.241 408.464L463.118 416.147L463.426 428.342L455.307 428.342L455.737 416.811L455.307 389.704L463.426 389.704L463.118 407.677L473.981 393.453L476.195 389.716L484.941 389.716L471.274 408.009C475.605 413.983 480.611 420.179 486.196 426.707L486.196 426.732Z" fill="white"/>
<path d="M496.948 416.872L496.517 389.974L504.796 389.568L504.255 415.999L504.87 415.999L520.518 389.691L529.141 389.691L528.71 416.122L529.018 428.318L520.899 428.318L521.268 416.786L521.268 402.022L520.727 402.022L504.968 428.305L496.529 428.305L496.96 416.86L496.948 416.872Z" fill="white"/>
<path d="M568.051 421.691L568.518 422.343L567.99 428.441L543.755 428.441L544.186 416.909L543.755 389.765L568.236 389.765L568.703 390.441L568.113 396.539L558.874 396.232L551.911 396.232L551.727 405.538L558.382 405.661L564.68 405.476L565.172 406.091L564.619 412.189L557.804 412.004L551.715 412.004L551.715 416.073L551.899 421.888L558.677 421.888L568.051 421.679V421.691Z" fill="white"/>
<path d="M180.6 47.6865C185.25 47.6865 189.863 48.6085 194.156 50.391C198.449 52.1736 202.361 54.7921 205.646 58.0868C208.93 61.3814 211.551 65.2907 213.322 69.5935C215.106 73.8962 216.016 78.5062 216.016 83.1655C206.618 83.1655 197.613 79.4283 190.97 72.7775C184.327 66.1267 180.6 57.1033 180.6 47.6865Z" fill="white"/>
<path d="M193.972 109.289C200.332 116.223 203.665 125.394 203.272 134.798C202.866 144.203 198.757 153.054 191.831 159.422C185.484 152.488 182.138 143.318 182.531 133.913C182.937 124.508 187.046 115.657 193.972 109.289Z" fill="white"/>
<path d="M169.774 57.9884C172.149 67.0979 170.808 76.7729 166.059 84.8866C161.311 93.0003 153.536 98.9011 144.445 101.274C143.264 96.7621 142.994 92.066 143.634 87.4559C144.273 82.8458 145.811 78.3956 148.161 74.3756C150.51 70.3557 153.635 66.8397 157.337 64.0245C161.053 61.2093 165.272 59.1563 169.774 57.9884Z" fill="white"/>
<path d="M344.383 47.6373C339.758 47.1578 335.268 45.781 331.159 43.5681C327.063 41.3553 323.446 38.3557 320.506 34.7414C317.566 31.1271 315.364 26.9719 314.035 22.5094C312.707 18.0468 312.264 13.363 312.744 8.72838C317.369 9.19553 321.859 10.5847 325.955 12.7975C330.052 15.0104 333.669 18.01 336.609 21.612C339.549 25.2262 341.751 29.3814 343.079 33.844C344.408 38.3065 344.851 42.9903 344.383 47.625V47.6496V47.6373Z" fill="white"/>
<path d="M109.829 76.8343C116.472 83.4851 120.211 92.5085 120.211 101.925C120.211 111.342 116.484 120.353 109.841 127.016C106.556 123.722 103.936 119.812 102.165 115.51C100.381 111.207 99.4707 106.597 99.4707 101.938C99.4707 97.2784 100.381 92.6684 102.165 88.3656C103.948 84.0629 106.556 80.1536 109.841 76.8589L109.829 76.8343Z" fill="white"/>
<path d="M516.95 256.405C521.649 248.267 529.375 242.329 538.441 239.895C547.507 237.461 557.164 238.727 565.295 243.411C560.596 251.562 552.858 257.499 543.78 259.946C534.701 262.38 525.032 261.102 516.901 256.405L516.95 256.405Z" fill="white"/>
<path d="M451.137 211.657C459.452 207.293 469.171 206.408 478.139 209.211C487.106 212.014 494.598 218.271 498.965 226.606C494.844 228.77 490.342 230.097 485.704 230.515C481.066 230.933 476.404 230.442 471.963 229.052C467.522 227.663 463.401 225.413 459.822 222.426C456.254 219.439 453.302 215.788 451.137 211.657Z" fill="white"/>
<path d="M110.887 201.527C119.781 198.503 129.511 199.155 137.938 203.322C146.364 207.49 152.786 214.829 155.8 223.742C151.396 225.241 146.733 225.844 142.096 225.536C137.458 225.229 132.919 224.012 128.749 221.947C124.578 219.881 120.851 217.017 117.788 213.513C114.725 210.01 112.375 205.928 110.887 201.527Z" fill="white"/>
<path d="M294.156 41.8348C292.975 51.1655 288.14 59.648 280.723 65.426C273.305 71.1916 263.894 73.7732 254.569 72.5931C255.75 63.2623 260.585 54.7798 268.003 49.0019C275.421 43.2362 284.831 40.6546 294.156 41.8348Z" fill="white"/>
<path d="M406.949 134.503C402.373 133.679 397.994 131.958 394.082 129.438C390.17 126.918 386.787 123.66 384.13 119.837C381.473 116.014 379.59 111.699 378.606 107.15C377.61 102.601 377.524 97.8931 378.348 93.3076C387.599 94.9672 395.804 100.253 401.167 107.974C406.531 115.694 408.61 125.246 406.949 134.503Z" fill="white"/>
<path d="M405.227 82.6614C399.261 75.3837 396.431 66.0406 397.354 56.673C398.277 47.3054 402.865 38.6999 410.135 32.7253C416.102 40.003 418.931 49.3461 418.008 58.7137C417.086 68.0814 412.497 76.6868 405.227 82.6614Z" fill="white"/>
<path d="M486.91 164.647C487.931 160.098 489.837 155.808 492.532 151.997C495.213 148.186 498.621 144.953 502.557 142.469C506.494 139.986 510.873 138.289 515.462 137.503C520.05 136.716 524.737 136.839 529.276 137.859C527.21 147.042 521.576 155.021 513.629 160.037C505.682 165.052 496.074 166.712 486.91 164.647Z" fill="white"/>
<path d="M47.2505 150.767C51.716 149.452 56.3906 149.034 61.016 149.538C65.6414 150.042 70.1192 151.444 74.2033 153.681C78.2874 155.918 81.8918 158.93 84.8073 162.557C87.7228 166.183 89.9001 170.351 91.2164 174.826C82.1993 177.469 72.5057 176.424 64.2636 171.912C56.0215 167.4 49.8953 159.791 47.2505 150.767Z" fill="white"/>
<path d="M583.44 326.577C570.056 326.577 556.672 326.626 543.288 326.724L503.135 326.995L422.806 327.904L342.489 329.306L322.413 329.65L312.362 329.834L304.219 329.834C299.138 330.302 293.455 319.95 296.099 323.43L295.964 322.753L295.964 322.2L295.718 320.823C293.578 308.321 289.457 296.236 283.54 285.025C280.772 279.665 277.684 274.489 274.276 269.51C271.078 264.728 267.498 260.216 263.599 255.987C255.91 247.665 246.278 241.383 235.588 237.695C229.929 235.765 224.061 234.498 218.107 233.896C212.116 233.355 206.076 233.699 200.184 234.916C188.005 237.314 175.556 242.415 163.341 247.751C138.983 258.729 113.667 269.215 87.3537 275.436C61.0652 281.595 34.1739 284.779 7.18415 284.951C6.58137 284.951 6.0155 284.717 5.58494 284.287C5.16669 283.869 4.92065 283.291 4.92065 282.689C4.92065 282.086 5.15438 281.521 5.58494 281.091C6.00319 280.673 6.58137 280.427 7.18415 280.427C33.8171 280.919 60.3763 277.538 86.0374 270.383C98.8065 266.781 111.305 262.282 123.434 256.909C135.613 251.537 147.324 245.378 159.183 239.145C171.041 232.9 182.876 226.114 196.457 221.271C203.444 218.812 210.726 217.312 218.12 216.796C225.562 216.144 233.066 216.415 240.447 217.583C255.935 220.115 270.254 227.38 281.436 238.395C286.947 243.718 291.671 249.804 295.484 256.455C299.15 262.896 302.103 269.707 304.292 276.788C308.253 290.471 310.898 304.498 312.19 318.684L312.313 319.778L312.313 319.41C314.958 322.95 309.25 312.783 304.317 313.312L312.461 313.312L322.511 313.496L342.587 313.841L422.904 315.242L503.234 316.152L543.386 316.422C556.758 316.422 570.167 316.582 583.539 316.57C584.793 316.644 585.974 317.209 586.836 318.131C587.697 319.053 588.176 320.27 588.176 321.524C588.176 322.778 587.697 323.995 586.836 324.917C585.974 325.839 584.793 326.392 583.539 326.478L583.453 326.577H583.44Z" fill="white"/>
<path d="M4.90837 316.016L86.9108 314.529L168.913 312.759L250.928 310.73L291.942 309.698L302.189 309.427L304.908 309.427C303.345 309.98 308.967 308.21 300.184 310.669C298.068 311.788 296.444 313.644 295.62 315.894C295.448 316.348 295.312 316.816 295.214 317.295C295.029 318.266 295.091 318.192 295.054 318.254L295.054 317.578L294.709 312.66C294.463 309.144 294.279 305.542 294.205 301.904C294.119 298.265 294.205 294.601 293.799 290.864C293.455 287.09 293.455 283.291 293.799 279.517C294.242 275.682 294.919 271.871 295.829 268.109C297.662 260.229 300.786 252.717 305.092 245.87C309.631 238.74 315.548 232.593 322.486 227.774C329.326 223.164 337.002 219.955 345.084 218.32C352.601 216.833 360.289 216.353 367.941 216.894C369.786 216.894 371.631 217.177 373.563 217.361C375.469 217.509 377.352 217.755 379.221 218.111C382.887 218.763 386.504 219.636 390.059 220.693C404.083 225.008 416.458 231.548 428.637 237.609C440.816 243.669 452.994 249.964 465.419 255.25C471.631 257.967 477.917 260.438 484.277 262.675C490.649 264.912 497.108 266.965 503.628 268.773C529.793 275.927 556.857 279.271 583.982 278.693C584.4 278.693 584.818 278.755 585.212 278.915C585.605 279.075 585.962 279.296 586.27 279.591C586.577 279.886 586.811 280.23 586.983 280.624C587.155 281.005 587.242 281.423 587.254 281.853C587.254 282.271 587.18 282.689 587.032 283.082C586.872 283.476 586.651 283.832 586.356 284.139C586.061 284.447 585.716 284.693 585.335 284.853C584.953 285.025 584.535 285.111 584.105 285.123L583.982 285.123C556.365 284.852 528.87 281.447 502.028 274.956C488.62 271.6 475.408 267.457 462.479 262.54C449.587 257.598 436.891 252.127 424.418 246.657C418.181 243.915 411.931 241.272 405.658 238.973C399.556 236.637 393.258 234.843 386.836 233.601C383.773 233.011 380.661 232.654 377.536 232.519C376.011 232.433 374.485 232.433 372.972 232.519L370.696 232.519L368.347 232.802C362.307 233.552 356.402 235.113 350.792 237.461C340.717 241.665 332.512 249.361 327.665 259.159C326.472 261.556 325.328 264.064 324.319 266.683C323.249 269.338 322.339 272.055 321.552 274.821C320.703 277.624 320.051 280.537 319.399 283.5C318.747 286.463 317.8 289.463 316.988 292.548C316.213 295.646 315.782 298.83 315.733 302.026C315.598 305.235 315.548 308.468 315.548 311.788L315.548 319.028C315.511 319.778 315.413 320.516 315.265 321.241C314.982 322.753 314.355 324.179 313.457 325.433C312.559 326.687 311.39 327.72 310.05 328.47C301.131 330.965 306.679 329.183 304.994 329.724L302.275 329.724L292.015 329.564L251.026 328.937L169.073 327.818L87.0954 326.847L5.09289 326.195C3.75202 326.195 2.46035 325.655 1.50082 324.708C0.5536 323.761 0.0123291 322.458 0.0123291 321.118C0.0123291 319.778 0.541298 318.475 1.50082 317.516C2.44805 316.57 3.73971 316.029 5.09289 316.029L4.93297 316.029L4.90837 316.016Z" fill="white"/>
<path d="M265.013 358.245L11.8588 358.245C9.97662 358.245 8.16829 357.495 6.83971 356.155C5.51114 354.815 4.76074 353.008 4.76074 351.127C4.76074 349.246 5.51114 347.426 6.83971 346.099C8.16829 344.759 9.97662 344.009 11.8588 344.009L265.013 344.009C266.896 344.009 268.704 344.759 270.032 346.099C271.361 347.426 272.111 349.246 272.111 351.127C272.111 353.008 271.361 354.827 270.032 356.155C268.704 357.495 266.896 358.245 265.013 358.245Z" fill="white"/>
<path d="M573.562 358.245L329.941 358.245C328.059 358.245 326.251 357.495 324.91 356.155C323.581 354.815 322.831 353.008 322.831 351.127C322.831 349.246 323.581 347.426 324.91 346.099C326.238 344.759 328.047 344.009 329.941 344.009L573.562 344.009C575.444 344.009 577.253 344.759 578.593 346.099C579.922 347.426 580.672 349.246 580.672 351.127C580.672 353.008 579.922 354.827 578.593 356.155C577.265 357.495 575.457 358.245 573.562 358.245Z" fill="white"/>
<path d="M5.84327 297.699C26.5223 297.699 47.1889 296.519 67.7449 294.159C77.8937 292.979 88.0426 291.233 98.339 289.364C108.635 287.496 118.637 285.455 128.785 283.267L159.232 276.714C169.381 274.563 179.813 272.547 190.503 271.268C201.316 269.941 212.252 269.879 223.09 271.084C228.576 271.686 234.001 272.694 239.328 274.108C242.034 274.846 244.703 275.632 247.447 276.628C248.788 277.12 250.104 277.649 251.506 278.214L253.536 279.124C254.249 279.468 254.815 279.751 255.775 280.279C256.587 280.734 257.3 281.361 257.878 282.099C258.457 282.836 258.875 283.685 259.133 284.582C259.392 285.479 259.453 286.426 259.342 287.348C259.232 288.282 258.936 289.168 258.469 289.991C258.014 290.803 257.399 291.516 256.661 292.093C255.923 292.671 255.086 293.089 254.188 293.347C253.29 293.593 252.343 293.667 251.42 293.556C250.497 293.446 249.599 293.151 248.788 292.683L248.48 292.474L247.262 291.798L245.737 291.061C244.703 290.569 243.707 290.09 242.526 289.659C240.336 288.762 238.061 288.012 235.748 287.274C231.098 285.885 226.337 284.828 221.54 284.127C211.698 282.738 201.734 282.468 191.843 283.328C181.818 284.164 171.546 285.75 161.397 287.496L130.655 292.905C120.383 294.687 110.05 296.384 99.7168 297.884C89.3834 299.383 78.964 300.809 68.4707 301.682C47.5826 303.403 26.6084 303.932 5.65874 303.268C4.90834 303.268 4.19485 302.973 3.66588 302.445C3.13691 301.916 2.84167 301.203 2.84167 300.453C2.84167 299.703 3.13691 298.978 3.66588 298.449C4.19485 297.92 4.90834 297.625 5.65874 297.625L5.85557 297.662L5.84327 297.699Z" fill="white"/>
<path d="M585.089 303.342C564.139 304.006 543.165 303.477 522.277 301.756C511.796 300.883 501.364 299.445 491.055 297.957C480.746 296.47 470.389 294.761 460.092 292.979L429.35 287.569C419.202 285.824 409.053 284.238 398.904 283.402C389.013 282.529 379.049 282.8 369.22 284.189C364.41 284.902 359.662 285.947 355.012 287.336C352.711 288.073 350.423 288.823 348.246 289.708C347.127 290.139 346.069 290.618 345.023 291.11L343.522 291.848L342.304 292.524C340.717 293.47 338.835 293.753 337.039 293.323C335.243 292.892 333.693 291.786 332.697 290.225C331.713 288.664 331.356 286.783 331.725 284.975C332.094 283.168 333.152 281.57 334.677 280.525L335.009 280.316C335.957 279.788 336.535 279.505 337.248 279.161L339.278 278.251C340.594 277.685 341.935 277.157 343.338 276.665C345.995 275.669 348.677 274.87 351.457 274.145C356.783 272.731 362.221 271.711 367.695 271.121C378.532 269.916 389.469 269.977 400.294 271.305C410.972 272.584 421.33 274.6 431.552 276.751L462.011 283.304C472.16 285.455 482.309 287.496 492.458 289.401C502.606 291.27 512.755 293.015 523.076 294.196C543.62 296.556 564.274 297.736 584.953 297.736C585.704 297.736 586.417 298.031 586.946 298.56C587.475 299.088 587.77 299.814 587.77 300.551C587.77 301.289 587.475 302.027 586.946 302.555C586.417 303.084 585.704 303.379 584.953 303.379L585.089 303.342Z" fill="white"/>
<path d="M301.291 212.837C301.34 209.801 301.721 206.764 302.435 203.814C303.099 200.925 304.022 198.097 305.178 195.356C307.479 189.812 310.591 184.636 314.392 180.001C318.193 175.281 322.61 171.101 327.53 167.56C332.5 164.106 337.888 161.315 343.571 159.25C349.156 157.209 354.963 155.845 360.867 155.181C362.331 154.959 363.795 154.837 365.235 154.75C366.674 154.664 368.162 154.468 369.602 154.505L378.004 154.505C388.632 154.603 399.236 153.755 409.717 151.96C420.087 150.214 430.15 146.932 439.561 142.223C448.836 137.527 456.845 130.655 462.909 122.197C463.697 121.165 464.275 119.997 464.939 118.903C465.653 117.809 466.28 116.665 466.833 115.485C467.99 113.112 468.999 110.691 469.884 108.207C471.705 103.192 473.021 98.0037 473.821 92.7421C474.67 87.4805 474.768 82.1205 474.104 76.822C473.526 71.5235 471.84 66.3972 469.171 61.7748C469.109 61.6888 469.072 61.5904 469.06 61.4798C469.048 61.3691 469.048 61.2708 469.06 61.1724C469.085 61.0741 469.122 60.9757 469.183 60.8897C469.245 60.8036 469.318 60.7299 469.404 60.6807C469.577 60.57 469.774 60.5332 469.983 60.57C470.179 60.6069 470.364 60.7053 470.487 60.8651C473.796 65.4997 476.06 70.7982 477.105 76.3918C478.237 81.9484 478.594 87.628 478.139 93.283C477.733 98.9257 476.712 104.507 475.088 109.928C474.337 112.694 473.403 115.411 472.308 118.067C471.779 119.407 471.176 120.722 470.475 121.988C469.786 123.255 469.22 124.607 468.445 125.812C462.331 135.732 453.818 143.944 443.694 149.698C433.718 155.328 422.966 159.434 411.784 161.893C400.749 164.438 389.481 165.888 378.164 166.245L370.044 166.589C368.753 166.589 367.486 166.81 366.206 166.909C364.927 167.007 363.648 167.155 362.405 167.376C357.411 168.077 352.515 169.318 347.791 171.076C336.08 175.317 326.079 183.321 319.374 193.831C317.972 195.86 316.754 198.085 315.511 200.273C314.269 202.474 313.174 204.76 312.116 207.084C311.058 209.407 310.086 211.866 309.176 213.981L308.967 214.448C308.623 215.345 307.958 216.083 307.122 216.538C306.273 216.992 305.301 217.14 304.366 216.943C303.431 216.747 302.595 216.23 301.992 215.48C301.402 214.73 301.094 213.784 301.131 212.825L301.291 212.825V212.837Z" fill="white"/>
<path d="M8.32823 225.352C22.5735 214.903 37.5568 205.498 53.1553 197.212C68.7906 188.705 85.287 181.895 102.362 176.879C111.071 174.469 120.002 172.945 129.019 172.33C133.571 172.023 138.135 171.986 142.686 172.232L149.514 172.92C151.802 173.142 154.041 173.695 156.316 174.064C165.37 175.883 174.129 178.969 182.322 183.235C184.352 184.206 186.382 185.509 188.411 186.652C190.441 187.795 192.336 189.148 194.193 190.561C196.063 191.963 197.908 193.414 199.692 194.938C200.59 195.725 201.476 196.487 202.337 197.335C203.186 198.183 203.997 198.958 204.994 200.077C205.535 200.618 205.953 201.257 206.236 201.97C206.519 202.683 206.655 203.433 206.63 204.195C206.605 204.957 206.433 205.707 206.101 206.395C205.781 207.084 205.314 207.699 204.748 208.203C204.182 208.707 203.505 209.088 202.792 209.334C202.066 209.567 201.303 209.653 200.541 209.592C199.778 209.53 199.052 209.297 198.376 208.94C197.711 208.571 197.121 208.08 196.653 207.477L196.53 207.317L196.53 207.195C196.088 206.666 195.337 205.83 194.685 205.166C194.033 204.49 193.246 203.74 192.532 203.138C191.032 201.773 189.506 200.409 187.882 199.069C186.259 197.729 184.573 196.61 182.888 195.405C181.203 194.2 179.456 193.082 177.611 192.135C170.377 188.017 162.603 184.931 154.508 182.964C152.478 182.534 150.449 181.968 148.419 181.686L142.182 180.813C137.987 180.407 133.78 180.272 129.573 180.407C120.986 180.677 112.449 181.796 104.096 183.788C87.2799 188.004 70.9434 193.979 55.3695 201.613C39.6358 209.186 24.4679 217.89 10.0012 227.651C9.85363 227.762 9.6814 227.835 9.49688 227.872C9.31236 227.909 9.12783 227.921 8.94331 227.884C8.75879 227.848 8.58656 227.786 8.42664 227.688C8.26672 227.589 8.1314 227.466 8.03299 227.307C7.92228 227.159 7.84847 226.987 7.81156 226.803C7.77466 226.618 7.76236 226.434 7.79926 226.249C7.83617 226.065 7.89767 225.893 7.99609 225.733C8.0945 225.573 8.21751 225.438 8.37744 225.34L8.34053 225.364L8.32823 225.352Z" fill="white"/>
<path d="M48.6036 132.893C57.4608 130.643 66.4656 129.008 75.5441 127.988C80.1326 127.459 84.7334 127.201 89.3465 127.213C94.1441 127.176 98.9295 127.791 103.555 129.045C105.892 129.77 108.156 130.704 110.321 131.848C112.486 132.942 114.565 134.22 116.508 135.671C120.543 138.634 123.926 142.383 126.473 146.686C128.97 151.075 130.569 155.906 131.184 160.922C131.492 163.417 131.578 165.938 131.443 168.445C131.443 169.687 131.258 170.941 131.098 172.207C130.938 173.535 130.68 174.85 130.348 176.153C130.04 177.309 129.29 178.305 128.257 178.907C127.223 179.51 125.993 179.669 124.837 179.362C123.68 179.055 122.696 178.305 122.093 177.26C121.491 176.227 121.331 174.986 121.638 173.83L121.638 173.486C121.933 172.601 122.179 171.703 122.352 170.781C122.561 169.81 122.721 168.753 122.844 167.794C123.09 165.765 123.151 163.725 123.053 161.696C122.905 157.615 121.897 153.62 120.088 149.956C118.28 146.293 115.721 143.059 112.584 140.465C110.985 139.089 109.263 137.859 107.442 136.79C105.671 135.671 103.789 134.724 101.845 133.962C97.7485 132.561 93.4922 131.725 89.1743 131.479C84.7211 131.159 80.2556 131.098 75.7902 131.295C66.7854 131.7 57.8052 132.721 48.9358 134.319C48.8374 134.343 48.739 134.343 48.6405 134.319C48.5421 134.294 48.456 134.257 48.3699 134.196C48.2838 134.134 48.2223 134.061 48.1608 133.975C48.1116 133.888 48.0747 133.79 48.0624 133.692C48.0378 133.507 48.087 133.323 48.1977 133.163C48.2961 133.016 48.456 132.905 48.6405 132.856L48.6036 132.893Z" fill="white"/>
<path d="M62.5537 227.823C67.9172 225.758 73.4529 224.209 79.0993 223.164C84.8442 222.07 90.6997 221.689 96.543 222.045C98.0438 222.156 99.5323 222.34 101.008 222.611L103.26 223.041C104.01 223.201 104.76 223.471 105.511 223.668C108.5 224.639 111.342 226.004 113.962 227.737C116.545 229.446 118.92 231.462 121.023 233.736C122.081 234.855 123.078 236.047 123.988 237.289C124.972 238.58 125.858 239.932 126.645 241.358C127.174 242.305 127.297 243.411 127.002 244.456C126.707 245.501 126.018 246.374 125.07 246.902C124.123 247.431 123.016 247.554 121.983 247.259C120.949 246.964 120.064 246.263 119.547 245.329L119.547 245.181C118.981 244.124 118.341 243.104 117.64 242.133C116.914 241.088 116.139 240.092 115.303 239.121C113.691 237.178 111.858 235.433 109.841 233.921C107.86 232.408 105.695 231.155 103.383 230.22C100.984 229.286 98.4866 228.61 95.9525 228.192C90.5767 227.393 85.1271 227.221 79.7144 227.688C74.2033 228.118 68.7414 228.979 63.3656 230.269C63.058 230.343 62.7259 230.294 62.4553 230.122C62.1846 229.95 61.9878 229.692 61.9017 229.372C61.8033 229.077 61.8033 228.757 61.9263 228.475C62.0493 228.192 62.2707 227.958 62.5537 227.823Z" fill="white"/>
<path d="M37.4583 246.767C38.5778 241.26 40.054 235.826 41.8623 230.503C43.6337 225.118 45.7988 219.869 48.333 214.804C50.8548 209.665 53.9671 204.846 57.6084 200.433C61.348 195.921 65.9242 192.184 71.0909 189.418C71.3246 189.209 71.5953 189.062 71.9028 188.976C72.1981 188.89 72.5179 188.877 72.8254 188.926C73.133 188.988 73.4159 189.111 73.6742 189.295C73.9326 189.48 74.1294 189.725 74.2647 189.996C74.4123 190.279 74.4862 190.586 74.4862 190.893C74.4862 191.201 74.4246 191.508 74.2893 191.791C74.154 192.074 73.9572 192.319 73.7112 192.516C73.4651 192.713 73.1822 192.848 72.8746 192.909C68.1262 195.331 63.8822 198.651 60.3885 202.683C56.8334 206.826 53.758 211.362 51.2361 216.206C48.6528 221.086 46.4385 226.151 44.5933 231.351C42.6988 236.539 41.1365 241.85 39.9187 247.247C39.8818 247.407 39.8202 247.554 39.7341 247.689C39.648 247.824 39.525 247.935 39.3897 248.021C39.2544 248.107 39.1068 248.169 38.9468 248.193C38.7869 248.218 38.627 248.218 38.4671 248.193C38.3072 248.169 38.1472 248.12 38.0119 248.033C37.8766 247.947 37.7536 247.837 37.6552 247.702C37.5568 247.566 37.4952 247.419 37.4583 247.259C37.4214 247.099 37.4214 246.927 37.4583 246.767Z" fill="white"/>
<path d="M278.373 214.14C259.957 205.424 245.503 190.783 234.628 173.584C229.105 164.893 224.996 155.39 222.45 145.407C219.953 135.265 219.608 124.717 221.416 114.428C223.323 104.323 227.112 94.6722 232.586 85.9684C234.997 82.0836 237.101 78.0022 238.836 73.7732C240.509 69.5689 241.69 65.1801 242.341 60.7053C243.559 51.645 242.526 42.4125 239.34 33.844C237.753 29.4552 235.711 25.2262 233.251 21.2555C230.778 17.2355 227.899 13.486 224.664 10.0561C224.492 9.87168 224.393 9.6381 224.393 9.37994C224.393 9.12178 224.492 8.8882 224.664 8.7038C224.836 8.54398 225.07 8.44563 225.304 8.44563C225.537 8.44563 225.771 8.53169 225.943 8.7038C233.521 15.121 239.611 23.1118 243.793 32.1229C248.185 41.3184 250.104 51.4974 249.39 61.6642C249.009 66.7783 248.025 71.8432 246.463 76.7237C244.839 81.5304 242.797 86.1774 240.373 90.6276C236.018 98.5815 233.128 107.248 231.824 116.223C229.363 133.974 235.28 151.8 245.441 166.786C250.694 174.309 256.587 181.354 263.057 187.845C269.393 194.495 276.232 201.023 282.875 207.44L283.097 207.662C283.822 208.326 284.29 209.235 284.413 210.206C284.524 211.19 284.278 212.173 283.712 212.985C283.146 213.796 282.309 214.374 281.35 214.62C280.39 214.853 279.382 214.743 278.508 214.288L278.361 214.128L278.373 214.14Z" fill="white"/>
<path d="M166.637 103.941C172.026 98.852 178.57 95.1271 185.705 93.1109C189.42 92.0906 193.246 91.5865 197.096 91.6234C201.168 91.6603 205.191 92.4963 208.955 94.0575C212.793 95.7663 216.25 98.2373 219.104 101.311C221.847 104.298 224.049 107.74 225.636 111.477C227.186 115.03 228.268 118.767 228.884 122.603C229.548 126.389 229.695 130.25 229.314 134.073C229.376 135.155 229.007 136.212 228.293 137.011C227.58 137.81 226.571 138.302 225.488 138.363C224.406 138.425 223.36 138.056 222.548 137.343C221.749 136.63 221.257 135.61 221.195 134.54L221.195 134.196C220.002 127.938 218.206 121.804 215.819 115.903C214.614 113.162 213.113 110.555 211.354 108.134C209.619 105.835 207.43 103.929 204.932 102.503C202.349 101.016 199.483 100.057 196.53 99.6756C193.369 99.1716 190.158 99.0856 186.972 99.4175C180.243 100.18 173.711 102.184 167.708 105.331C167.535 105.404 167.351 105.417 167.166 105.368C166.982 105.318 166.834 105.208 166.724 105.048C166.613 104.9 166.564 104.716 166.576 104.519C166.588 104.335 166.662 104.163 166.785 104.015L166.637 103.929V103.941Z" fill="white"/>
<path d="M400.085 155.255C401.143 154.283 402.484 152.98 403.616 151.775C404.747 150.571 405.891 149.218 406.962 147.928C409.041 145.334 410.861 142.518 412.362 139.556C415.327 133.827 416.532 127.348 415.819 120.931C414.859 114.231 412.35 107.851 408.487 102.294C404.501 96.3318 399.814 90.8735 394.525 86.0299C393.27 84.7513 391.831 83.5957 390.465 82.391L388.435 80.5838L386.283 78.5554C384.88 77.1908 383.355 75.9369 382.063 74.4863L378.163 70.2204C373.304 64.2335 369.097 57.7425 365.591 50.8705C362.147 44.1091 359.33 37.0403 357.152 29.7625C354.901 22.534 353.277 15.1333 352.306 7.62197C352.306 7.44986 352.355 7.27775 352.465 7.14252C352.576 7.00729 352.736 6.90894 352.896 6.88436C353.068 6.84748 353.24 6.88436 353.4 6.97041C353.548 7.05647 353.671 7.20399 353.72 7.3638C357.115 21.7841 362.639 35.6142 370.118 48.3872C373.833 54.6323 378.188 60.4717 383.109 65.8071L386.947 69.5935C388.226 70.8597 389.69 71.8923 391.006 73.0233L393.036 74.7321L395.287 76.527C396.763 77.744 398.314 78.8628 399.728 80.1905C405.756 85.1816 411.156 90.8858 415.806 97.1924C420.776 103.782 424.159 111.441 425.672 119.554C427.112 128.074 425.648 136.839 421.514 144.424C419.521 148.075 417.037 151.456 414.146 154.443C412.719 155.881 411.206 157.246 409.619 158.512C407.97 159.815 406.236 160.996 404.427 162.053C403.554 162.569 402.521 162.741 401.537 162.532C400.552 162.323 399.667 161.758 399.076 160.934C398.486 160.11 398.215 159.102 398.338 158.094C398.461 157.086 398.941 156.164 399.704 155.5L400.085 155.291V155.255Z" fill="white"/>
<path d="M420.542 220.029C421.969 217.865 423.519 215.775 425.168 213.772C426.755 211.743 428.452 209.973 430.187 208.166C433.705 204.539 437.568 201.269 441.713 198.405C443.817 196.979 445.994 195.663 448.233 194.458C450.521 193.303 452.896 192.319 455.319 191.496C457.755 190.635 460.24 189.959 462.774 189.467C465.333 189.099 467.904 188.939 470.487 189C473.033 189.062 475.58 189.357 478.077 189.873C479.319 190.119 480.513 190.525 481.731 190.832L483.539 191.361L485.286 192.037C489.862 193.795 494.229 196.081 498.301 198.823C502.336 201.466 506.137 204.453 509.668 207.723C513.223 210.932 516.556 214.399 519.619 218.087C519.767 218.283 519.841 218.541 519.829 218.787C519.804 219.033 519.693 219.267 519.496 219.439C519.312 219.611 519.066 219.697 518.82 219.685C518.562 219.685 518.328 219.574 518.143 219.402C514.883 216.07 511.39 212.985 507.687 210.157C504.033 207.305 500.158 204.76 496.099 202.535C492.138 200.322 487.931 198.552 483.576 197.286L481.977 196.794L480.353 196.487C479.258 196.278 478.175 196.02 477.081 195.897C474.928 195.639 472.763 195.577 470.61 195.712C468.469 195.835 466.341 196.13 464.262 196.61C462.183 197.175 460.141 197.901 458.173 198.761C456.192 199.622 454.273 200.618 452.428 201.749C450.595 202.929 448.824 204.22 447.126 205.596C443.731 208.399 440.606 211.522 437.802 214.927C436.399 216.661 435.058 218.406 433.742 220.238C432.524 221.984 431.392 223.803 430.371 225.672L430.371 225.819C430.015 226.483 429.535 227.061 428.944 227.528C428.366 227.995 427.69 228.352 426.976 228.561C426.263 228.77 425.5 228.843 424.762 228.77C424.011 228.696 423.298 228.462 422.634 228.106C421.969 227.749 421.391 227.27 420.924 226.68C420.444 226.102 420.1 225.426 419.89 224.713C419.681 223.987 419.608 223.238 419.681 222.488C419.755 221.738 419.989 221.012 420.346 220.361C420.419 220.25 420.481 220.14 420.567 220.041L420.542 220.029Z" fill="white"/>
<path d="M329.781 213.685C329.572 213.181 329.265 212.714 328.871 212.333C328.477 211.952 328.01 211.645 327.506 211.448C326.989 211.251 326.448 211.153 325.894 211.178C325.34 211.202 324.811 211.325 324.307 211.559C324.024 211.694 323.754 211.866 323.495 212.063L323.188 212.309C323.225 212.186 323.274 212.063 323.323 211.94L323.754 211.067C324.061 210.452 324.406 209.85 324.75 209.26C325.439 208.043 326.189 206.875 327.001 205.744C328.6 203.47 330.372 201.318 332.303 199.314C336.141 195.38 340.422 191.901 345.072 188.963C349.673 186.099 354.508 183.616 359.527 181.538C364.472 179.473 369.528 177.678 374.67 176.166C395.177 170.068 416.311 168.359 437.076 168.728C447.471 168.913 457.829 169.785 468.051 170.966C473.009 171.371 478.003 171.961 482.973 172.269L490.44 172.515C491.683 172.515 492.937 172.662 494.18 172.515L497.87 172.367C507.724 172.404 517.491 170.683 526.742 167.302C531.195 165.507 535.28 162.901 538.786 159.619C539.536 158.721 540.348 157.848 541.098 156.914C541.787 155.943 542.414 154.935 542.98 153.89C544.1 151.8 544.789 149.513 545.01 147.165L545.01 147.006C545.047 146.723 545.182 146.465 545.404 146.28C545.625 146.096 545.908 146.01 546.191 146.034C546.449 146.059 546.695 146.182 546.88 146.366C547.064 146.551 547.175 146.809 547.187 147.067C547.237 148.432 547.114 149.796 546.843 151.136C546.683 151.812 546.56 152.476 546.376 153.165L545.699 155.095C545.195 156.361 544.604 157.59 543.928 158.77C543.214 159.926 542.402 161.008 541.615 162.151C538.047 166.245 533.73 169.613 528.907 172.097C519.337 176.621 509.016 179.325 498.449 180.087L494.537 180.518C493.233 180.665 491.941 180.641 490.637 180.702L482.826 180.985C477.61 180.985 472.431 180.764 467.239 180.616C457.091 180.026 447.139 179.841 437.15 180.124C417.369 180.407 397.748 183.505 378.84 189.332C374.252 190.844 369.737 192.602 365.333 194.594C360.954 196.622 356.771 198.909 352.687 201.281C348.603 203.654 344.568 206.199 340.767 208.903C338.737 210.268 336.953 211.694 335.046 213.108L332.242 215.345L330.839 216.501L330.089 217.115L329.646 217.521L329.277 217.828L328.785 218.259C328.514 218.48 328.207 218.677 327.899 218.824C327.395 219.045 326.841 219.181 326.288 219.193C325.734 219.205 325.181 219.107 324.664 218.91C324.147 218.714 323.667 218.406 323.274 218.025C322.868 217.644 322.548 217.177 322.327 216.673C322.13 216.181 322.019 215.652 322.031 215.112C322.031 214.583 322.142 214.054 322.351 213.55C322.56 213.059 322.856 212.616 323.237 212.235C323.618 211.854 324.061 211.559 324.565 211.362C325.058 211.165 325.586 211.055 326.128 211.067C326.657 211.067 327.186 211.178 327.678 211.387C328.17 211.596 328.613 211.891 328.994 212.272C329.375 212.653 329.671 213.108 329.867 213.599L329.781 213.685Z" fill="white"/>
<path d="M502.766 120.292C498.03 123.599 493.565 127.262 489.382 131.245C487.352 133.151 485.446 135.192 483.674 137.343C481.94 139.384 480.451 141.621 479.246 144.006C477.056 148.96 475.543 154.197 474.756 159.557C474.264 162.323 473.858 165.126 473.538 167.929C473.513 170.818 472.664 173.633 471.127 176.067L470.942 176.313C470.598 176.793 470.167 177.211 469.663 177.518C469.158 177.838 468.593 178.047 468.014 178.145C467.436 178.243 466.833 178.219 466.255 178.084C465.677 177.948 465.136 177.702 464.656 177.346C463.93 176.842 463.377 176.129 463.045 175.317C462.097 172.33 462.097 169.134 463.045 166.147C463.697 163.196 464.422 160.27 465.283 157.344C466.87 151.259 469.392 145.444 472.75 140.121C476.453 135.081 481.042 130.766 486.295 127.397C488.779 125.738 491.363 124.201 494.008 122.8C496.64 121.374 499.347 120.095 502.127 118.976C502.299 118.915 502.496 118.915 502.668 118.989C502.84 119.062 502.976 119.21 503.037 119.382C503.086 119.53 503.086 119.677 503.037 119.825C503 119.972 502.902 120.095 502.791 120.193L502.754 120.28L502.766 120.292Z" fill="white"/>
<path d="M289.764 0.651556C293.282 11.2485 297.871 21.4644 303.444 31.1517C308.77 40.8021 315.721 49.469 323.963 56.7713C328.182 60.2258 332.734 63.2746 337.519 65.8808C342.243 68.5239 347.25 70.6261 352.441 72.1382C357.546 73.6011 362.848 74.2896 368.162 74.1666C370.77 74.0929 373.366 73.7855 375.912 73.2569C377.167 72.9742 378.397 72.63 379.603 72.2243C380.722 71.8678 381.805 71.4129 382.85 70.8597L382.986 70.8597C383.773 70.4417 384.683 70.3557 385.532 70.6138C386.381 70.872 387.094 71.4498 387.525 72.2243C387.956 72.9988 388.066 73.9208 387.832 74.769C387.599 75.6296 387.033 76.3549 386.27 76.7974L386.147 76.7974C384.683 77.5351 383.158 78.1251 381.596 78.5923C380.107 79.0226 378.631 79.3668 377.155 79.6495C374.202 80.1782 371.201 80.424 368.199 80.3994C362.282 80.3257 356.414 79.3299 350.805 77.4736C345.281 75.6542 339.979 73.2323 334.997 70.2327C330.027 67.3069 325.34 63.9016 321.035 60.066C312.744 52.149 305.879 42.8797 300.737 32.6392C295.448 22.62 291.203 12.0845 288.054 1.20476C288.017 1.08183 287.993 0.958893 288.005 0.835958C288.005 0.713023 288.054 0.590088 288.116 0.479447C288.177 0.368805 288.251 0.270457 288.349 0.196696C288.448 0.122935 288.559 0.061468 288.682 0.036881C288.915 -0.0245864 289.161 5.47619e-07 289.371 0.110642C289.58 0.221283 289.74 0.405686 289.826 0.626969L289.764 0.651556Z" fill="white"/>
<path d="M438.946 43.3346C438.896 49.7026 439.253 56.0706 440.04 62.3895C440.446 65.4874 441.025 68.5608 441.75 71.5973C442.452 74.5109 443.473 77.3507 444.814 80.0306C445.552 81.2723 446.364 82.4524 447.249 83.5835C448.16 84.7759 449.119 85.9315 450.152 87.0133C452.207 89.2016 454.446 91.1808 456.869 92.9511C459.268 94.7214 461.827 96.2703 464.496 97.5612C465.812 98.2127 467.178 98.8028 468.556 99.3314C469.884 99.8355 471.237 100.253 472.615 100.598L472.775 100.598C473.821 100.844 474.743 101.483 475.309 102.405C475.887 103.315 476.072 104.421 475.826 105.478C475.58 106.535 474.94 107.445 474.03 108.011C473.119 108.588 472.012 108.773 470.967 108.527L470.831 108.527C469.072 108.06 467.362 107.445 465.689 106.72C464.09 106.044 462.54 105.281 461.027 104.446C458.025 102.774 455.184 100.819 452.539 98.6061C449.919 96.3933 447.532 93.9223 445.392 91.2423C444.321 89.9146 443.325 88.5131 442.402 87.0748C441.406 85.5996 440.557 84.0506 439.844 82.4156C437.556 76.0721 436.412 69.3722 436.473 62.6353C436.387 56.1321 436.817 49.6288 437.789 43.1993C437.789 43.1133 437.826 43.0395 437.863 42.9658C437.9 42.892 437.962 42.8305 438.023 42.7814C438.097 42.7322 438.171 42.6953 438.244 42.683C438.331 42.6584 438.404 42.6584 438.491 42.683C438.638 42.7076 438.786 42.7814 438.884 42.892C438.983 43.0026 439.044 43.1625 439.032 43.31L438.909 43.3346L438.946 43.3346Z" fill="white"/>
<path d="M331.257 165.827C333.447 163.958 335.538 162.557 337.593 161.069C339.659 159.656 341.615 158.07 343.436 156.349C347.016 152.722 349.734 148.346 351.407 143.539C354.926 133.938 353.659 122.492 346.917 114.711C345.183 112.781 343.215 111.072 341.049 109.633C338.786 108.207 336.363 107.052 333.841 106.154C328.797 104.261 323.348 103.769 318.046 104.753C307.466 106.781 298.597 115.792 293.344 125.738L293.246 125.947C293.147 126.144 292.999 126.316 292.84 126.451C292.667 126.586 292.47 126.697 292.261 126.758C292.052 126.82 291.831 126.844 291.609 126.82C291.388 126.795 291.179 126.734 290.982 126.635C290.724 126.5 290.515 126.303 290.367 126.057C290.219 125.812 290.121 125.541 290.109 125.246C288.202 117.919 284.524 111.17 279.394 105.601C276.958 103.142 274.055 101.188 270.857 99.8723C267.658 98.5569 264.226 97.8931 260.757 97.93C253.807 97.5612 246.942 99.6388 241.345 103.782C238.626 105.945 236.252 108.527 234.345 111.428C233.349 112.916 232.451 114.477 231.651 116.087C231.245 116.899 230.876 117.735 230.532 118.571C230.188 119.407 229.818 120.316 229.622 120.931L229.474 121.3C229.117 122.234 228.428 123.021 227.543 123.476C226.657 123.943 225.624 124.054 224.652 123.808C223.68 123.55 222.843 122.947 222.29 122.111C221.736 121.275 221.515 120.255 221.663 119.271C222.044 116.997 222.634 114.747 223.434 112.584C224.221 110.482 225.156 108.441 226.251 106.486C228.527 102.454 231.528 98.8643 235.108 95.9138C238.786 92.9388 243.03 90.7506 247.594 89.4843C252.035 88.3288 256.624 87.8862 261.2 88.1812C265.85 88.4763 270.401 89.681 274.596 91.7218C278.742 93.8362 282.371 96.8481 285.213 100.548C287.907 104.064 289.973 108.023 291.302 112.264C292.618 116.358 293.295 120.611 293.332 124.914L290.109 124.422C292.52 118.657 295.952 113.395 300.257 108.871C304.674 104.052 310.369 100.585 316.668 98.8766C322.966 97.1678 329.634 97.2784 335.871 99.2085C339.032 100.081 342.083 101.311 344.961 102.872C347.889 104.544 350.596 106.597 352.982 108.97C357.804 113.862 361.126 120.046 362.54 126.783C363.918 133.47 363.623 140.404 361.667 146.956C359.748 153.546 356.267 159.557 351.518 164.499C349.107 166.995 346.376 169.146 343.399 170.904C340.398 172.588 337.039 173.523 333.595 173.646C332.721 173.67 331.873 173.412 331.147 172.933C330.421 172.453 329.867 171.752 329.56 170.941C329.252 170.13 329.191 169.245 329.4 168.396C329.609 167.548 330.076 166.798 330.728 166.22L331.257 165.839L331.257 165.827Z" fill="white"/>
<path d="M133.681 49.2723C133.177 55.6035 133.005 61.9715 133.177 68.3272C133.263 74.6707 133.681 81.0018 134.432 87.2961C135.711 99.7371 138.971 111.883 144.101 123.279C145.405 126.033 146.893 128.688 148.542 131.245C149.378 132.512 150.289 133.79 151.137 135.044C151.986 136.31 153.007 137.503 153.918 138.72C157.694 143.514 162 147.891 166.724 151.751C176.429 159.299 187.341 165.138 199.003 169.036C210.776 173.301 223.077 176.965 235.317 181.477C241.407 183.739 247.496 186.234 253.585 189.037C259.662 191.815 265.555 194.999 271.201 198.577C283.183 206.014 292.938 216.55 299.458 229.077C302.656 235.47 304.821 242.329 305.867 249.41C306.556 256.43 308.118 264.027 302.053 270.555C301.242 271.416 300.134 271.92 298.953 271.969C297.772 272.006 296.628 271.588 295.755 270.776C295.411 270.445 295.115 270.076 294.882 269.658L294.193 268.392C292.778 265.724 292.028 262.749 292.003 259.725C292.064 256.909 291.929 254.082 291.597 251.291C290.908 245.649 289.334 240.166 286.91 235.027C281.67 224.59 273.735 215.751 263.931 209.432C258.813 206.076 253.499 203.015 248.037 200.261C242.538 197.433 236.855 194.889 231.024 192.541C219.436 187.758 207.245 183.861 195.153 178.833C189.039 176.313 183.072 173.412 177.303 170.154C171.509 166.798 166.072 162.864 161.065 158.402C156.009 153.988 151.47 149.022 147.508 143.6C146.549 142.236 145.577 140.871 144.691 139.531C143.793 138.191 142.908 136.728 142.047 135.278C140.349 132.364 138.848 129.34 137.556 126.23C132.796 113.936 130.139 100.93 129.683 87.7387C128.982 74.8305 129.659 61.8731 131.713 49.1125C131.762 48.8543 131.91 48.6331 132.119 48.4732C132.328 48.3257 132.587 48.252 132.845 48.2888C133.091 48.3257 133.312 48.4486 133.472 48.6453C133.632 48.842 133.706 49.0879 133.681 49.3461L133.657 49.2477L133.681 49.2723Z" fill="white"/>
<path d="M121.441 493.289L121.441 510.45L114.233 511.102L112.929 501.304L83.4663 501.304L82.2485 510.45L74.9044 511.102L74.9044 493.289L78.7179 493.289C80.76 492.293 82.4453 490.707 83.5524 488.716C84.9302 485.937 85.8898 482.974 86.3941 479.913C87.1199 476.09 87.7965 470.669 88.4239 463.649L89.3834 454.921L115.45 454.921L114.946 486.663L115.094 493.375L121.454 493.289L121.441 493.289ZM105.868 493.289L106.089 487.449L105.72 462.26L97.2318 462.26L96.9489 465.296C96.4445 471.578 95.4235 477.811 93.9227 483.933C93.1231 487.425 91.4501 490.67 89.0759 493.35L105.868 493.289Z" fill="white"/>
<path d="M139.143 487.523L138.639 455.191L148.591 454.687L147.939 486.503L148.751 486.503L167.536 454.908L177.906 454.908L177.414 486.638L177.758 501.353L167.978 501.353L168.409 487.511L168.409 469.759L167.757 469.759L148.751 501.415L138.602 501.415L139.156 487.511L139.143 487.523Z" fill="white"/>
<path d="M237.47 486.638L237.753 501.353L228.035 501.353L228.465 487.511L228.465 482.077L218.009 482.077L208.586 482.212L208.586 486.687L208.955 501.402L199.237 501.402L199.741 487.56L199.237 455.031L209.103 455.031L208.82 474.221L218.747 474.357L228.478 474.221L228.195 455.031L238.097 455.031L237.482 486.626L237.47 486.638Z" fill="white"/>
<path d="M295.509 501.427L285.557 501.427L284.425 495.329L283.183 491.002L274.104 490.781L266.121 491.002L264.878 494.825L263.66 501.39L254.016 501.39L269.713 454.933L281.301 454.933L295.497 501.427H295.509ZM281.116 483.454L275.63 464.141L274.978 464.141L268.642 483.454L274.83 483.589L281.104 483.454H281.116Z" fill="white"/>
<path d="M341.812 457.146L340.09 465.284L339.303 465.653C337.851 464.633 336.24 463.821 334.554 463.268C332.832 462.678 331.024 462.383 329.215 462.395C321.588 462.395 317.763 467.423 317.763 477.455C317.763 482.901 318.759 486.97 320.764 489.65C321.773 491.002 323.089 492.072 324.615 492.785C326.14 493.498 327.813 493.817 329.498 493.719C331.368 493.719 333.226 493.436 335.022 492.883C336.83 492.367 338.565 491.604 340.176 490.621L341.025 491.113L340.238 499.411C336.621 501.095 332.684 501.956 328.711 501.956C321.81 501.956 316.532 499.915 312.916 495.858C309.299 491.789 307.479 486.023 307.479 478.475C307.479 470.927 309.508 464.817 313.285 460.588C317.061 456.359 322.609 454.245 329.671 454.245C333.902 454.208 338.073 455.203 341.837 457.158L341.812 457.146Z" fill="white"/>
<path d="M388.312 455.695L387.746 462.973L379.037 462.543L376.134 462.543L375.765 486.638L376.134 501.415L366.391 501.415L366.895 487.572L366.526 462.604L363.648 462.604L354.803 463.034L354.151 462.248L354.803 454.97L387.71 454.97L388.325 455.708L388.312 455.695Z" fill="white"/>
<path d="M404.403 487.523L403.898 455.191L413.85 454.687L413.198 486.503L413.912 486.503L432.709 454.908L443.128 454.908L442.624 486.638L442.993 501.353L433.189 501.353L433.631 487.511L433.631 469.759L432.979 469.759L414.06 501.415L403.911 501.415L404.415 487.511L404.403 487.523Z" fill="white"/>
<path d="M464.767 487.523L464.262 455.191L474.202 454.687L473.575 486.503L474.301 486.503L493.097 454.908L503.468 454.908L502.963 486.638L503.332 501.353L493.528 501.353L493.958 487.511L493.958 469.759L493.306 469.759L474.399 501.415L464.25 501.415L464.754 487.511L464.767 487.523Z" fill="white"/>
<path d="M200.479 534.607C201.611 535.763 202.484 537.14 203.038 538.652C203.591 540.164 203.837 541.774 203.727 543.385C203.788 546.065 203.136 548.695 201.82 551.031C200.528 553.219 198.622 554.99 196.334 556.108C193.726 557.35 190.859 557.965 187.968 557.903L184.13 557.903L184.13 558.026L184.475 570.221L176.356 570.221L176.762 558.69L176.356 531.546L191.155 531.546C194.537 531.337 197.871 532.419 200.467 534.595L200.479 534.607ZM195.288 544.122C195.362 543.249 195.251 542.364 194.968 541.541C194.685 540.705 194.23 539.942 193.652 539.291C192.225 538.111 190.416 537.508 188.571 537.582L184.512 537.828L184.29 551.757L189.789 552.002C191.499 551.584 193.012 550.552 194.021 549.101C195.03 547.651 195.485 545.893 195.288 544.135V544.122Z" fill="white"/>
<path d="M243.153 535.984C246.106 539.279 247.582 543.962 247.582 550.048C247.582 556.686 245.983 561.813 242.772 565.415C241.05 567.259 238.946 568.697 236.609 569.631C234.272 570.566 231.75 570.971 229.24 570.824C226.915 570.959 224.578 570.578 222.413 569.705C220.248 568.832 218.304 567.48 216.73 565.759C213.789 562.366 212.326 557.621 212.326 551.363C212.326 545.106 213.912 539.807 217.099 536.291C218.833 534.484 220.949 533.07 223.274 532.161C225.611 531.251 228.109 530.858 230.618 531.005C232.943 530.858 235.28 531.226 237.445 532.087C239.611 532.948 241.566 534.263 243.166 535.972L243.153 535.984ZM222.856 540.582C221.17 543.557 220.408 546.962 220.678 550.367C220.678 555.531 221.355 559.219 222.708 561.432C223.483 562.55 224.553 563.448 225.783 564.025C227.026 564.603 228.391 564.849 229.745 564.726C231.061 564.837 232.389 564.628 233.607 564.099C234.825 563.571 235.883 562.747 236.707 561.702C238.147 559.674 238.86 556.379 238.86 551.757C238.86 546.679 238.147 543.04 236.732 540.865C235.969 539.795 234.948 538.934 233.755 538.369C232.574 537.803 231.258 537.545 229.954 537.631C228.625 537.496 227.284 537.705 226.054 538.234C224.824 538.762 223.754 539.586 222.93 540.631L222.843 540.594L222.856 540.582Z" fill="white"/>
<path d="M285.582 533.464L284.142 540.262L283.49 540.569C282.248 539.697 280.882 539.008 279.431 538.541C277.992 538.074 276.491 537.828 274.99 537.828C268.642 537.828 265.469 542.008 265.469 550.367C265.21 553.932 266.084 557.485 267.941 560.534C268.778 561.653 269.885 562.562 271.164 563.153C272.431 563.743 273.834 564.013 275.236 563.927C276.786 563.902 278.336 563.669 279.824 563.239C281.325 562.808 282.777 562.169 284.105 561.345L284.831 561.751L284.167 568.66C281.153 570.037 277.881 570.725 274.559 570.701C272.136 570.873 269.7 570.504 267.424 569.631C265.149 568.758 263.094 567.406 261.397 565.66C258.371 562.317 256.857 557.485 256.87 551.179C256.882 544.872 258.494 539.918 261.704 536.291C263.463 534.484 265.592 533.07 267.953 532.161C270.315 531.251 272.837 530.858 275.347 531.005C278.902 530.968 282.42 531.816 285.582 533.464Z" fill="white"/>
<path d="M323.348 533.464L321.908 540.262L321.244 540.569C320.038 539.709 318.71 539.02 317.308 538.541C315.868 538.074 314.367 537.828 312.867 537.828C306.519 537.828 303.345 542.008 303.321 550.367C303.075 553.932 303.948 557.485 305.818 560.534C306.654 561.653 307.761 562.562 309.029 563.153C310.308 563.743 311.698 564.013 313.1 563.927C314.65 563.902 316.2 563.669 317.689 563.239C319.19 562.796 320.629 562.169 321.97 561.345L322.683 561.751L322.031 568.66C319.017 570.037 315.733 570.725 312.424 570.701C310 570.873 307.565 570.504 305.289 569.631C303.013 568.758 300.959 567.406 299.261 565.66C296.235 562.317 294.722 557.485 294.734 551.179C294.734 544.872 296.358 539.918 299.569 536.291C301.328 534.484 303.456 533.07 305.818 532.161C308.167 531.251 310.702 530.858 313.211 531.005C316.742 530.981 320.223 531.829 323.348 533.464Z" fill="white"/>
<path d="M335.28 558.752L334.874 531.829L343.141 531.423L342.612 557.854L343.202 557.854L358.85 531.571L367.473 531.571L367.067 558.002L367.375 570.197L359.256 570.197L359.625 558.665L359.625 543.889L359.084 543.889L343.313 570.197L334.862 570.197L335.292 558.752H335.28Z" fill="white"/>
<path d="M382.481 558.752L382.051 531.915L390.33 531.509L389.788 557.94L390.404 557.94L406.039 531.657L414.712 531.657L414.281 558.088L414.588 570.283L406.469 570.283L406.838 558.752L406.838 543.975L406.285 543.975L390.514 570.283L382.075 570.283L382.506 558.752L382.481 558.752Z" fill="white"/>
<path d="M222.327 311.493C222.327 311.493 242.44 311.493 260.634 309.648C273.465 308.284 271.115 302.469 271.115 294.22C271.115 255.434 250.264 245.267 250.264 245.267L339.709 244.247C339.709 244.247 321.133 254.045 322.843 293.261C323.225 302.567 323.864 309.366 341.111 312.07C362.528 315.451 390.908 314.775 390.908 314.775L302.644 321.893L222.327 311.505L222.327 311.493Z" fill="white"/>
</g>
<defs>
<clipPath id="clip0_41_846">
<rect width="588.164" height="570.861" fill="white"/>
</clipPath>
</defs>
</svg>
