<svg width="402" height="389" viewBox="0 0 402 389" fill="none" xmlns="http://www.w3.org/2000/svg">
<g clip-path="url(#clip0_5_87)">
<mask id="mask0_5_87" style="mask-type:luminance" maskUnits="userSpaceOnUse" x="0" y="0" width="402" height="388">
<path d="M402 2.67797e-06L0 0L-2.5801e-06 387.308L402 387.308L402 2.67797e-06Z" fill="white"/>
</mask>
<g mask="url(#mask0_5_87)">
<path d="M33.5889 282.346L33.797 290.623L28.2496 290.623L28.4992 282.803L28.2914 268.679L18.7915 268.679L18.5835 282.32L18.7915 290.595L13.2441 290.595L13.4938 282.775L13.2441 264.362L33.8524 264.362L33.5889 282.346Z" fill="#1B1464"/>
<path d="M60.5072 286.099L60.826 286.54L60.4654 290.679L43.9207 290.679L44.1981 282.857L43.9207 264.444L60.5625 264.444L60.8817 264.899L60.4795 269.039L54.1693 268.831L49.4124 268.831L49.2876 275.147L53.8364 275.231L58.1356 275.107L58.4685 275.52L58.094 279.657L53.4342 279.534L49.2737 279.534L49.2737 282.292L49.3847 286.236L54.0167 286.236L60.5072 286.099Z" fill="#1B1464"/>
<path d="M92.8622 286.14L92.8622 295.796L88.7711 296.153L88.0222 290.637L71.2694 290.637L70.576 295.822L66.4155 296.181L66.4155 286.126L68.5927 286.126C69.7611 285.562 70.7287 284.658 71.3665 283.533C72.156 281.971 72.6985 280.295 72.9751 278.568C73.4097 276.407 73.8119 273.331 74.1817 269.342L74.7226 264.402L89.5478 264.402L89.2565 282.334L89.3397 286.126L92.8622 286.14ZM84.0142 286.14L84.139 282.829L83.931 268.623L79.1048 268.623L78.9384 270.333C78.656 273.868 78.0855 277.373 77.2327 280.816C76.78 282.797 75.8253 284.63 74.4591 286.14L84.0142 286.14Z" fill="#1B1464"/>
<path d="M121.251 290.651L115.537 290.651L114.885 287.23L114.192 284.788L109.033 284.664L104.484 284.788L103.791 286.954L103.083 290.651L97.6052 290.651L106.523 264.444L113.124 264.444L121.251 290.651ZM113.054 280.513L109.99 269.603L109.615 269.603L106.009 280.513L109.532 280.595L113.054 280.513Z" fill="#1B1464"/>
<path d="M143.495 264.871L143.079 268.899L137.379 268.747L134.023 268.747L133.829 282.346L134.023 290.623L128.476 290.623L128.753 282.803L128.476 264.388L143.176 264.388L143.495 264.871Z" fill="#1B1464"/>
<path d="M167.432 267.425C169.447 269.659 170.451 272.839 170.441 276.968C170.441 281.474 169.35 284.95 167.168 287.395C165.989 288.644 164.548 289.622 162.947 290.254C161.346 290.888 159.625 291.166 157.904 291.064C156.312 291.16 154.718 290.9 153.24 290.304C151.762 289.705 150.437 288.788 149.362 287.617C147.365 285.327 146.352 282.099 146.352 277.864C146.352 273.437 147.448 270.03 149.611 267.644C150.796 266.415 152.237 265.458 153.832 264.839C155.427 264.219 157.138 263.954 158.847 264.059C160.439 263.96 162.033 264.209 163.517 264.791C165 265.372 166.337 266.272 167.432 267.425ZM153.564 270.527C152.418 272.547 151.906 274.863 152.094 277.176C152.094 280.679 152.579 283.174 153.55 284.664C154.079 285.43 154.803 286.043 155.649 286.438C156.495 286.833 157.431 286.996 158.362 286.913C159.262 286.988 160.167 286.841 160.995 286.482C161.823 286.123 162.548 285.566 163.105 284.858C164.27 282.813 164.801 280.471 164.631 278.127C164.631 274.678 164.168 272.214 163.244 270.734C162.709 269.976 161.982 269.372 161.137 268.981C160.292 268.592 159.359 268.43 158.431 268.514C157.522 268.42 156.603 268.556 155.76 268.909C154.917 269.26 154.176 269.816 153.605 270.527L153.564 270.527Z" fill="#1B1464"/>
<path d="M193.504 264.871L193.088 268.899L187.402 268.747L184.032 268.747L183.838 282.346L184.032 290.623L178.485 290.623L178.762 282.803L178.485 264.388L193.199 264.388L193.504 264.871Z" fill="#1B1464"/>
<path d="M200.55 282.831L200.258 264.582L205.916 264.307L205.543 282.237L205.959 282.237L216.636 264.39L222.545 264.39L222.254 282.32L222.461 290.595L216.913 290.595L217.164 282.775L217.164 272.761L216.774 272.761L205.999 290.595L200.231 290.595L200.55 282.831Z" fill="#1B1464"/>
<path d="M250.225 282.346L250.434 290.623L244.886 290.623L245.178 282.803L245.178 279.671L244.776 279.671C243.25 281.055 241.451 282.109 239.492 282.761C237.24 282.946 235.003 282.27 233.236 280.872C232.509 280.088 231.95 279.166 231.596 278.161C231.24 277.153 231.096 276.086 231.17 275.023L231.003 264.388L236.551 264.388L236.468 273.561C236.398 274.73 236.73 275.889 237.411 276.844C237.727 277.227 238.127 277.532 238.583 277.734C239.039 277.935 239.536 278.027 240.032 278.003C241.92 277.872 243.694 277.062 245.025 275.727L244.858 264.388L250.516 264.388L250.225 282.346Z" fill="#1B1464"/>
<path d="M277.103 286.099L277.422 286.54L277.06 290.679L260.516 290.679L260.793 282.857L260.516 264.444L277.227 264.444L277.547 264.899L277.145 269.039L270.833 268.831L266.078 268.831L265.953 275.147L270.502 275.231L274.801 275.107L275.133 275.52L274.759 279.657L270.1 279.534L265.869 279.534L265.869 282.292L265.979 286.236L270.612 286.236L277.103 286.099Z" fill="#1B1464"/>
<path d="M303.106 265.713L302.121 270.321L301.677 270.512C300.825 269.922 299.89 269.457 298.903 269.134C297.924 268.809 296.897 268.645 295.866 268.651C291.524 268.651 289.362 271.478 289.362 277.161C289.199 279.579 289.79 281.987 291.054 284.058C291.631 284.838 292.395 285.46 293.277 285.871C294.159 286.28 295.13 286.463 296.101 286.402C298.242 286.366 300.334 285.761 302.161 284.65L302.662 284.939L302.204 289.629C300.149 290.561 297.914 291.032 295.657 291.01C293.999 291.119 292.334 290.872 290.781 290.282C289.225 289.691 287.82 288.771 286.658 287.589C284.604 285.312 283.565 282.071 283.565 277.768C283.565 273.465 284.674 270.058 286.865 267.672C288.069 266.445 289.524 265.489 291.132 264.871C292.74 264.253 294.463 263.983 296.186 264.085C298.592 264.057 300.967 264.616 303.106 265.713Z" fill="#1B1464"/>
<path d="M332.187 289.52L332.104 290.126C330.323 290.553 328.516 290.867 326.695 291.064L326.044 290.733C322.464 286.017 319.285 281.483 316.503 277.134L316.418 282.348L316.627 290.623L311.08 290.623L311.371 282.803L311.08 264.417L316.627 264.417L316.418 276.609L323.839 266.956L325.351 264.417L331.326 264.417L321.994 276.831C324.949 280.886 328.374 285.091 332.187 289.52Z" fill="#1B1464"/>
<path d="M339.523 282.831L339.232 264.582L344.89 264.307L344.516 282.237L344.932 282.237L355.625 264.39L361.519 264.39L361.227 282.32L361.436 290.595L355.889 290.595L356.138 282.775L356.138 272.761L355.764 272.761L345 290.595L339.232 290.595L339.523 282.831Z" fill="#1B1464"/>
<path d="M388.103 286.099L388.422 286.54L388.063 290.679L371.504 290.679L371.796 282.857L371.504 264.444L388.23 264.444L388.547 264.899L388.145 269.039L381.836 268.831L377.078 268.831L376.953 275.147L381.502 275.231L385.801 275.107L386.135 275.52L385.759 279.657L381.1 279.534L376.939 279.534L376.939 282.292L377.064 286.236L381.697 286.236L388.103 286.099Z" fill="#1B1464"/>
<path d="M123.427 32.3711C126.606 32.3711 129.753 32.9935 132.689 34.2032C135.625 35.4127 138.292 37.1855 140.54 39.4204C142.787 41.6552 144.569 44.3086 145.786 47.2287C147.002 50.1486 147.628 53.2783 147.628 56.439C141.209 56.439 135.054 53.9033 130.516 49.3897C125.977 44.8761 123.427 38.7543 123.427 32.3711Z" fill="#20A194"/>
<path d="M132.564 74.1587C136.904 78.861 139.188 85.0856 138.914 91.463C138.64 97.8404 135.829 103.848 131.101 108.165C126.761 103.462 124.476 97.2378 124.751 90.8604C125.025 84.4829 127.836 78.4752 132.564 74.1587Z" fill="#20A194"/>
<path d="M116.029 39.3589C117.65 45.5352 116.738 52.0989 113.493 57.6062C110.248 63.1134 104.936 67.1133 98.7258 68.7256C97.9232 65.6674 97.7338 62.4818 98.169 59.3509C98.6042 56.2201 99.6552 53.2051 101.262 50.4781C102.869 47.7511 105 45.3658 107.533 43.4579C110.067 41.5501 112.954 40.1572 116.029 39.3589Z" fill="#20A194"/>
<path d="M235.311 32.3357C232.147 32.0145 229.08 31.0767 226.28 29.5758C223.482 28.075 221.01 26.0405 219.002 23.5886C216.994 21.1369 215.492 18.3156 214.582 15.2863C213.671 12.257 213.37 9.07887 213.695 5.93359C216.857 6.25465 219.922 7.19186 222.72 8.69174C225.518 10.1916 227.99 12.2248 229.998 14.6752C232.006 17.1256 233.508 19.9452 234.42 22.973C235.331 26.0008 235.634 29.1776 235.311 32.3219L235.311 32.3357Z" fill="#20A194"/>
<path d="M75.0819 52.146C79.6205 56.6596 82.1702 62.7815 82.1702 69.1648C82.1702 75.548 79.6205 81.6697 75.0821 86.1833C72.8348 83.9484 71.0523 81.2953 69.836 78.3752C68.62 75.4551 67.9941 72.3253 67.9941 69.1648C67.9941 66.0042 68.62 62.8744 69.836 59.9543C71.0523 57.0342 72.8348 54.3811 75.0819 52.146Z" fill="#20A194"/>
<path d="M353.187 173.969C356.397 168.449 361.677 164.421 367.868 162.769C374.061 161.117 380.66 161.976 386.215 165.158C383.005 170.686 377.719 174.72 371.52 176.372C365.322 178.024 358.715 177.159 353.157 173.968L353.187 173.969Z" fill="#20A194"/>
<path d="M308.234 143.613C313.918 140.649 320.553 140.052 326.679 141.953C332.806 143.855 337.923 148.099 340.904 153.752C338.09 155.22 335.011 156.122 331.847 156.407C328.681 156.692 325.491 156.354 322.456 155.412C319.423 154.471 316.605 152.944 314.165 150.92C311.725 148.895 309.709 146.413 308.234 143.613Z" fill="#20A194"/>
<path d="M75.8064 136.733C81.8852 134.685 88.5331 135.121 94.2881 137.948C100.043 140.774 104.433 145.758 106.493 151.804C103.483 152.818 100.302 153.233 97.1309 153.024C93.9597 152.816 90.8611 151.988 88.0115 150.589C85.1619 149.19 82.6175 147.246 80.5233 144.868C78.4292 142.491 76.8263 139.727 75.8064 136.733Z" fill="#20A194"/>
<path d="M200.998 28.395C200.194 34.7279 196.893 40.4835 191.821 44.3959C186.75 48.3082 180.323 50.0567 173.956 49.2568C174.76 42.9238 178.061 37.168 183.133 33.2557C188.204 29.3434 194.63 27.5949 200.998 28.395Z" fill="#20A194"/>
<path d="M278.049 91.2652C274.922 90.706 271.935 89.5396 269.262 87.8326C266.586 86.1254 264.277 83.9113 262.462 81.3162C260.647 78.7211 259.364 75.7962 258.687 72.7081C258.01 69.6202 257.951 66.4297 258.512 63.3188C264.83 64.4481 270.437 68.0269 274.102 73.2679C277.764 78.5088 279.185 84.9826 278.049 91.2652Z" fill="#20A194"/>
<path d="M276.873 56.0934C272.801 51.1593 270.866 44.8188 271.495 38.4662C272.124 32.1137 275.263 26.2695 280.224 22.2197C284.296 27.1536 286.23 33.4943 285.603 39.8468C284.974 46.1995 281.834 52.0435 276.873 56.0934Z" fill="#20A194"/>
<path d="M332.673 111.713C333.373 108.63 334.677 105.715 336.51 103.133C338.343 100.551 340.671 98.3539 343.358 96.6662C346.046 94.9787 349.041 93.8341 352.172 93.2979C355.304 92.7615 358.512 92.8438 361.611 93.5403C360.196 99.7666 356.353 105.179 350.926 108.587C345.499 111.995 338.934 113.12 332.673 111.713Z" fill="#20A194"/>
<path d="M32.3361 102.298C35.3857 101.408 38.5816 101.125 41.7413 101.463C44.901 101.802 47.9627 102.756 50.7517 104.272C53.5406 105.787 56.0021 107.834 57.9956 110.295C59.9891 112.757 61.4755 115.585 62.3701 118.617C56.2115 120.414 49.5873 119.704 43.9547 116.644C38.3223 113.583 34.1429 108.423 32.3361 102.298Z" fill="#20A194"/>
<path d="M398.615 221.576C389.472 221.576 380.328 221.61 371.185 221.674L343.752 221.854L288.877 222.474L234.014 223.426L220.298 223.659L213.432 223.785L210.007 223.785L208.302 223.785L207.872 223.785C204.405 224.102 200.521 217.08 202.325 219.44L202.228 218.985L202.228 218.612L202.061 217.674C200.596 209.19 197.788 200.993 193.74 193.385C191.851 189.751 189.739 186.237 187.416 182.861C185.228 179.62 182.789 176.553 180.121 173.689C174.867 168.047 168.293 163.782 160.983 161.276C157.114 159.969 153.108 159.104 149.042 158.697C144.949 158.327 140.822 158.559 136.797 159.386C128.476 161.014 119.975 164.476 111.626 168.09C94.9838 175.537 77.69 182.655 59.7167 186.875C41.7608 191.052 23.3912 193.217 4.95092 193.33C4.54265 193.33 4.15106 193.168 3.86236 192.881C3.57369 192.594 3.41156 192.205 3.41156 191.799C3.41156 191.393 3.57369 191.003 3.86236 190.716C4.15106 190.429 4.54265 190.268 4.95092 190.268C23.1426 190.599 41.2863 188.304 58.8153 183.454C67.5373 181.012 76.0739 177.956 84.3608 174.31C92.6818 170.669 100.684 166.49 108.783 162.255C116.882 158.021 124.967 153.414 134.245 150.132C139.018 148.463 143.995 147.442 149.042 147.097C154.13 146.659 159.253 146.84 164.297 147.635C174.874 149.352 184.657 154.286 192.298 161.759C196.061 165.371 199.292 169.494 201.894 174.007C204.397 178.374 206.415 182.998 207.912 187.799C210.618 197.082 212.425 206.601 213.307 216.226L213.392 216.97L213.392 216.723C215.195 219.123 211.297 212.226 207.926 212.583L208.357 212.583L210.063 212.583L213.488 212.583L220.352 212.709L234.069 212.942L288.932 213.894L343.809 214.514L371.241 214.694C380.379 214.694 389.532 214.806 398.671 214.792C399.53 214.846 400.336 215.223 400.923 215.847C401.512 216.471 401.839 217.295 401.839 218.149C401.839 219.005 401.512 219.829 400.923 220.451C400.336 221.076 399.53 221.453 398.671 221.508L398.615 221.576Z" fill="#000B7A"/>
<path d="M3.41166 214.405L59.4257 213.397L115.44 212.198L171.467 210.82L199.481 210.116L206.485 209.936L208.232 209.936L208.343 209.936C207.275 210.309 211.116 209.108 205.112 210.778C203.669 211.538 202.558 212.799 201.991 214.323C201.872 214.632 201.78 214.949 201.714 215.275C201.589 215.937 201.631 215.881 201.603 215.923L201.603 215.468L201.368 212.129C201.201 209.743 201.076 207.301 201.02 204.833C200.965 202.364 201.02 199.882 200.744 197.344C200.508 194.784 200.508 192.207 200.744 189.647C201.046 187.042 201.509 184.458 202.13 181.91C203.378 176.565 205.514 171.465 208.455 166.821C211.557 161.984 215.597 157.811 220.34 154.546C225.011 151.421 230.256 149.242 235.775 148.132C240.913 147.119 246.165 146.794 251.391 147.166C252.653 147.166 253.915 147.36 255.232 147.484C256.53 147.583 257.823 147.754 259.101 147.994C261.602 148.439 264.074 149.024 266.506 149.746C276.09 152.67 284.536 157.111 292.857 161.221C301.178 165.331 309.498 169.607 317.986 173.193C322.229 175.032 326.525 176.71 330.87 178.227C335.224 179.745 339.634 181.138 344.086 182.365C361.963 187.221 380.449 189.488 398.977 189.096C399.264 189.09 399.55 189.141 399.819 189.246C400.086 189.35 400.332 189.506 400.539 189.705C400.746 189.903 400.913 190.141 401.027 190.403C401.142 190.665 401.204 190.948 401.21 191.234C401.214 191.52 401.164 191.804 401.059 192.071C400.953 192.337 400.796 192.581 400.597 192.787C400.398 192.993 400.159 193.158 399.896 193.273C399.632 193.387 399.347 193.449 399.059 193.454L398.977 193.454C380.113 193.272 361.33 190.958 342.99 186.558C333.827 184.282 324.804 181.468 315.976 178.131C307.168 174.779 298.501 171.069 289.973 167.359C285.715 165.497 281.442 163.704 277.157 162.145C272.986 160.562 268.685 159.344 264.301 158.504C262.205 158.106 260.082 157.861 257.949 157.773C256.91 157.718 255.869 157.718 254.83 157.773L253.276 157.773L251.668 157.966C247.544 158.471 243.508 159.534 239.672 161.125C232.794 163.974 227.184 169.201 223.876 175.841C223.058 177.469 222.28 179.165 221.588 180.944C220.861 182.749 220.232 184.591 219.701 186.461C219.118 188.365 218.676 190.337 218.232 192.351C217.788 194.365 217.136 196.392 216.582 198.489C216.051 200.592 215.761 202.749 215.721 204.915C215.625 207.096 215.597 209.288 215.597 211.536L215.597 215.149C215.597 215.522 215.597 215.867 215.597 216.446C215.573 216.952 215.506 217.455 215.402 217.95C215.205 218.975 214.783 219.945 214.166 220.79C213.55 221.638 212.757 222.338 211.838 222.847C205.75 224.543 209.536 223.33 208.385 223.701L208.274 223.701L206.528 223.701L199.523 223.591L171.523 223.164L115.537 222.404L59.5366 221.742L3.52255 221.301C2.60302 221.301 1.72117 220.938 1.07097 220.292C0.420768 219.645 0.0554805 218.768 0.0554805 217.854C0.0554805 216.938 0.420768 216.063 1.07097 215.414C1.72117 214.768 2.60302 214.405 3.52255 214.405L3.41166 214.405Z" fill="#000B7A"/>
<path d="M181.092 243.053L8.15457 243.053C6.86722 243.053 5.63264 242.544 4.72235 241.639C3.81208 240.733 3.30066 239.504 3.30066 238.226C3.30066 236.945 3.81208 235.716 4.72235 234.812C5.63264 233.907 6.86722 233.398 8.15457 233.398L181.092 233.398C182.379 233.398 183.614 233.907 184.524 234.812C185.435 235.716 185.946 236.945 185.946 238.226C185.946 239.504 185.435 240.733 184.524 241.639C183.614 242.544 182.379 243.053 181.092 243.053Z" fill="#000B7A"/>
<path d="M391.862 243.053L225.444 243.053C224.155 243.053 222.921 242.544 222.011 241.639C221.1 240.733 220.589 239.504 220.589 238.226C220.589 236.945 221.1 235.716 222.011 234.812C222.921 233.907 224.155 233.398 225.444 233.398L391.862 233.398C393.15 233.398 394.384 233.907 395.295 234.812C396.205 235.716 396.716 236.945 396.716 238.226C396.716 239.504 396.205 240.733 395.295 241.639C394.384 242.544 393.15 243.053 391.862 243.053Z" fill="#000B7A"/>
<path d="M4.04939 201.979C18.1786 201.979 32.2965 201.179 46.3337 199.579C53.2678 198.778 60.2021 197.592 67.2333 196.323C74.2645 195.054 81.1015 193.675 88.0358 192.185L108.838 187.744C115.772 186.282 122.901 184.917 130.195 184.048C137.585 183.144 145.055 183.102 152.454 183.924C156.199 184.331 159.907 185.019 163.548 185.979C165.393 186.475 167.224 187.013 169.096 187.689C170.011 188.02 170.913 188.379 171.869 188.765L173.256 189.385C173.742 189.62 174.13 189.813 174.782 190.172C175.337 190.484 175.826 190.902 176.219 191.402C176.611 191.902 176.902 192.475 177.072 193.086C177.243 193.698 177.291 194.337 177.213 194.967C177.135 195.597 176.933 196.205 176.619 196.758C176.305 197.31 175.885 197.795 175.382 198.186C174.879 198.577 174.304 198.866 173.689 199.035C173.074 199.205 172.431 199.253 171.798 199.175C171.165 199.098 170.553 198.898 169.997 198.585L169.789 198.447L168.957 197.992L167.917 197.495C167.21 197.164 166.53 196.834 165.726 196.544C164.228 195.937 162.675 195.427 161.094 194.93C157.913 193.987 154.669 193.273 151.386 192.792C144.666 191.846 137.858 191.665 131.097 192.254C124.246 192.82 117.228 193.896 110.294 195.082L89.2979 198.751C82.2804 199.964 75.2215 201.109 68.1625 202.131C61.1036 203.15 53.9892 204.115 46.8192 204.71C32.5484 205.875 18.2225 206.234 3.91074 205.785C3.39949 205.785 2.90914 205.584 2.54762 205.223C2.1861 204.863 1.98303 204.377 1.98303 203.868C1.98303 203.359 2.1861 202.871 2.54762 202.512C2.90914 202.152 3.3995 201.951 3.91074 201.951L4.04939 201.979Z" fill="#000B7A"/>
<path d="M399.739 205.813C385.428 206.26 371.102 205.901 356.831 204.736C349.676 204.143 342.546 203.164 335.501 202.157C328.456 201.151 321.383 199.992 314.352 198.778L293.356 195.109C286.421 193.923 279.487 192.847 272.554 192.282C265.796 191.693 258.995 191.874 252.277 192.82C248.995 193.301 245.751 194.016 242.571 194.958C241.003 195.454 239.435 195.965 237.952 196.571C237.19 196.861 236.469 197.192 235.747 197.523L234.72 198.02L233.888 198.475C232.804 199.113 231.514 199.308 230.288 199.017C229.062 198.726 227.998 197.972 227.321 196.916C226.646 195.859 226.406 194.582 226.66 193.354C226.913 192.127 227.635 191.045 228.674 190.337L228.897 190.199C229.548 189.841 229.936 189.648 230.422 189.413L231.809 188.792C232.71 188.406 233.624 188.048 234.581 187.717C236.398 187.041 238.229 186.503 240.129 186.006C243.771 185.046 247.479 184.358 251.224 183.951C258.627 183.13 266.102 183.172 273.497 184.075C280.791 184.944 287.864 186.31 294.853 187.772L315.656 192.213C322.591 193.675 329.523 195.054 336.458 196.351C343.392 197.62 350.327 198.806 357.372 199.605C371.404 201.205 385.518 202.007 399.642 202.005C400.153 202.005 400.643 202.208 401.005 202.567C401.367 202.927 401.57 203.415 401.57 203.922C401.57 204.431 401.367 204.919 401.005 205.278C400.643 205.638 400.153 205.841 399.642 205.841L399.739 205.813Z" fill="#000B7A"/>
<path d="M205.874 144.408C205.906 142.344 206.166 140.291 206.652 138.284C207.108 136.322 207.736 134.402 208.523 132.546C210.095 128.786 212.218 125.277 214.819 122.133C217.416 118.932 220.435 116.092 223.791 113.692C227.184 111.349 230.867 109.452 234.748 108.051C238.563 106.667 242.529 105.741 246.565 105.292C247.562 105.14 248.561 105.058 249.546 105.003C250.53 104.947 251.543 104.809 252.528 104.837L258.269 104.837C265.527 104.901 272.775 104.324 279.931 103.113C287.018 101.93 293.89 99.7038 300.318 96.5064C306.656 93.3206 312.127 88.66 316.265 82.9208C316.806 82.2174 317.196 81.4312 317.652 80.6863C318.137 79.9448 318.567 79.1704 318.943 78.3693C319.729 76.7634 320.422 75.1148 321.023 73.4313C322.263 70.0287 323.164 66.5131 323.713 62.9353C324.291 59.3627 324.356 55.7267 323.907 52.1357C323.51 48.5377 322.362 45.0619 320.537 41.9293C320.499 41.8695 320.472 41.8029 320.46 41.733C320.448 41.6632 320.45 41.5916 320.464 41.5224C320.48 41.4532 320.509 41.3877 320.551 41.3297C320.591 41.2718 320.643 41.2223 320.704 41.1844C320.82 41.1106 320.959 41.0825 321.096 41.1054C321.232 41.1284 321.355 41.2008 321.439 41.3085C323.702 44.4496 325.246 48.0468 325.96 51.846C326.736 55.6145 326.975 59.473 326.667 63.3078C326.386 67.1365 325.688 70.924 324.587 74.6037C324.07 76.4807 323.437 78.3234 322.687 80.1207C322.328 81.0334 321.912 81.9223 321.439 82.7827C320.967 83.6379 320.579 84.5619 320.052 85.3758C315.88 92.1073 310.065 97.6816 303.146 101.582C296.334 105.402 288.986 108.191 281.346 109.857C273.804 111.582 266.114 112.57 258.379 112.809L252.832 113.044C251.945 113.044 251.085 113.195 250.211 113.264C249.339 113.333 248.464 113.43 247.618 113.582C244.209 114.061 240.862 114.902 237.632 116.092C229.628 118.969 222.803 124.395 218.218 131.526C217.261 132.905 216.429 134.408 215.583 135.898C214.736 137.388 213.987 138.946 213.267 140.518C212.545 142.091 211.88 143.76 211.255 145.194L211.116 145.511C210.877 146.116 210.431 146.618 209.856 146.928C209.279 147.237 208.614 147.335 207.973 147.202C207.332 147.07 206.759 146.718 206.355 146.206C205.951 145.695 205.742 145.058 205.764 144.408L205.874 144.408Z" fill="#0E677D"/>
<path d="M5.74173 152.904C15.4704 145.812 25.7043 139.432 36.3628 133.815C47.0447 128.045 58.3138 123.421 69.9796 120.023C75.9296 118.387 82.0302 117.352 88.1888 116.933C91.2957 116.724 94.4124 116.701 97.522 116.864L102.182 117.333C103.749 117.485 105.274 117.857 106.828 118.105C113.015 119.336 118.996 121.43 124.593 124.326C125.98 124.988 127.367 125.871 128.753 126.643C130.14 127.416 131.43 128.34 132.706 129.291C133.982 130.243 135.244 131.222 136.464 132.257C137.074 132.795 137.685 133.305 138.267 133.884C138.85 134.463 139.404 134.988 140.084 135.746C140.451 136.112 140.74 136.549 140.931 137.03C141.123 137.511 141.213 138.025 141.197 138.543C141.181 139.059 141.059 139.568 140.838 140.036C140.618 140.505 140.303 140.923 139.914 141.266C139.524 141.609 139.069 141.869 138.575 142.03C138.08 142.191 137.558 142.25 137.04 142.204C136.522 142.157 136.02 142.005 135.563 141.758C135.106 141.511 134.705 141.174 134.384 140.767L134.301 140.656L134.301 140.574C133.996 140.215 133.483 139.65 133.039 139.194C132.595 138.739 132.054 138.229 131.569 137.815C130.543 136.891 129.502 135.967 128.393 135.057C127.283 134.146 126.132 133.388 124.981 132.574C123.83 131.76 122.638 131.002 121.376 130.353C116.432 127.559 111.12 125.465 105.593 124.133C104.206 123.843 102.82 123.457 101.433 123.264L97.1753 122.671C94.3133 122.399 91.4368 122.307 88.5631 122.395C82.6989 122.575 76.8679 123.342 71.1585 124.685C59.6681 127.545 48.512 131.599 37.8745 136.781C27.1268 141.917 16.7678 147.822 6.87895 154.449C6.77606 154.521 6.65976 154.573 6.53681 154.601C6.41387 154.628 6.28662 154.632 6.16234 154.611C6.03806 154.59 5.91927 154.544 5.81258 154.478C5.70591 154.411 5.61347 154.324 5.54063 154.221C5.46777 154.119 5.41593 154.003 5.38801 153.881C5.36009 153.759 5.35659 153.632 5.37786 153.509C5.39911 153.385 5.44465 153.267 5.51185 153.161C5.57904 153.055 5.66652 152.963 5.76943 152.89L5.74173 152.904Z" fill="#0E677D"/>
<path d="M33.2563 90.1758C39.3074 88.6515 45.4562 87.541 51.6597 86.8518C54.7902 86.4967 57.9389 86.3217 61.09 86.3277C64.3675 86.3028 67.6333 86.7203 70.7979 87.5691C72.3932 88.0597 73.9393 88.6968 75.4161 89.4724C76.8976 90.2153 78.3127 91.0829 79.6457 92.0654C82.3998 94.0746 84.7161 96.6175 86.4552 99.5409C88.1576 102.516 89.2511 105.798 89.6726 109.196C89.885 110.888 89.9453 112.596 89.8529 114.299C89.8529 115.14 89.7281 115.995 89.6171 116.851C89.5048 117.753 89.3333 118.646 89.104 119.526C88.8943 120.313 88.3791 120.984 87.6716 121.393C86.9643 121.802 86.1225 121.914 85.3318 121.706C84.5409 121.497 83.8659 120.985 83.4551 120.281C83.044 119.578 82.931 118.74 83.1407 117.954C83.1407 117.954 83.1407 117.802 83.1407 117.72C83.3457 117.12 83.5079 116.507 83.6259 115.885C83.7646 115.223 83.8755 114.506 83.9588 113.858C84.1228 112.485 84.1692 111.1 84.0974 109.72C83.9949 106.953 83.3043 104.239 82.0708 101.758C80.8374 99.2756 79.0891 97.0819 76.9414 95.3204C75.8482 94.387 74.6742 93.5515 73.4328 92.824C72.2228 92.0626 70.9408 91.4204 69.6051 90.9067C66.8104 89.9586 63.8994 89.3926 60.9513 89.2241C57.9102 89.0032 54.8584 88.9617 51.812 89.1C45.657 89.3787 39.5275 90.0651 33.4643 91.1551C33.3978 91.1691 33.3289 91.1693 33.2621 91.1557C33.1954 91.1421 33.1321 91.115 33.0762 91.0763C33.0205 91.0376 32.9733 90.9879 32.9373 90.9303C32.9015 90.8726 32.878 90.8084 32.8682 90.7414C32.8539 90.6165 32.8853 90.4906 32.9566 90.3869C33.0278 90.2829 33.1341 90.2081 33.2563 90.1758Z" fill="#0E677D"/>
<path d="M42.7837 154.573C46.4453 153.176 50.2292 152.119 54.0865 151.414C58.0101 150.669 62.0122 150.414 65.9994 150.656C67.0225 150.73 68.041 150.859 69.0504 151.042L70.5899 151.332C71.1028 151.442 71.616 151.621 72.1291 151.759C74.1685 152.416 76.1091 153.344 77.8982 154.518C79.6628 155.68 81.2828 157.046 82.7244 158.587C83.4478 159.35 84.124 160.156 84.7493 161C85.4208 161.875 86.0279 162.797 86.5659 163.759C86.9245 164.399 87.0128 165.154 86.8114 165.859C86.6098 166.564 86.135 167.161 85.4912 167.517C84.8476 167.874 84.0878 167.962 83.3791 167.761C82.6704 167.561 82.0708 167.089 81.712 166.448L81.712 166.352C81.3241 165.634 80.8887 164.943 80.4085 164.283C79.9122 163.576 79.38 162.895 78.8136 162.242C77.7097 160.927 76.458 159.742 75.083 158.711C73.7319 157.683 72.2489 156.838 70.6731 156.201C69.0333 155.568 67.3322 155.106 65.5972 154.821C61.9247 154.279 58.2016 154.164 54.5024 154.476C50.7411 154.77 47.0083 155.356 43.3385 156.228C43.1252 156.278 42.9009 156.242 42.714 156.129C42.527 156.015 42.3926 155.833 42.3399 155.621C42.2687 155.423 42.2748 155.205 42.3568 155.011C42.439 154.817 42.5914 154.661 42.7837 154.573Z" fill="#0E677D"/>
<path d="M25.6424 167.428C26.4078 163.69 27.413 160.004 28.6518 156.394C29.8592 152.74 31.3379 149.181 33.0758 145.746C34.8014 142.262 36.9281 138.99 39.4137 135.994C41.9684 132.934 45.0958 130.395 48.6221 128.519C48.7801 128.377 48.9687 128.274 49.1733 128.216C49.3779 128.158 49.5932 128.148 49.8022 128.186C50.0114 128.224 50.2088 128.31 50.3795 128.436C50.5501 128.563 50.6892 128.726 50.7861 128.914C50.883 129.103 50.935 129.311 50.9382 129.522C50.9413 129.734 50.8956 129.943 50.8044 130.134C50.7131 130.325 50.5789 130.493 50.4122 130.624C50.2454 130.756 50.0506 130.847 49.8426 130.891C46.5979 132.538 43.702 134.79 41.3136 137.526C38.8817 140.334 36.7828 143.412 35.059 146.698C33.2943 150.007 31.7785 153.441 30.5241 156.973C29.228 160.496 28.1627 164.099 27.3344 167.759C27.3131 167.866 27.2703 167.967 27.209 168.057C27.1475 168.147 27.0685 168.224 26.9768 168.283C26.885 168.342 26.7823 168.382 26.6745 168.401C26.5668 168.42 26.4564 168.418 26.3497 168.393C26.2386 168.378 26.1316 168.341 26.0352 168.284C25.9389 168.227 25.8551 168.151 25.7891 168.06C25.723 167.97 25.676 167.868 25.6506 167.759C25.6255 167.65 25.6227 167.538 25.6424 167.428Z" fill="#0E677D"/>
<path d="M190.218 145.291C177.639 139.374 167.765 129.443 160.332 117.775C156.561 111.879 153.753 105.427 152.011 98.6583C150.307 91.7768 150.066 84.6178 151.303 77.6385C152.608 70.7838 155.195 64.2338 158.931 58.329C160.582 55.6924 162.011 52.9245 163.202 50.0535C164.345 47.1998 165.15 44.2234 165.601 41.1849C166.435 35.0361 165.73 28.7777 163.549 22.9649C162.463 19.9834 161.069 17.1222 159.388 14.4272C157.699 11.7014 155.733 9.15493 153.522 6.82753C153.402 6.70625 153.335 6.54273 153.335 6.37238C153.335 6.20202 153.402 6.03852 153.522 5.91721C153.64 5.80668 153.797 5.74512 153.959 5.74512C154.121 5.74512 154.278 5.80668 154.396 5.91722C159.57 10.2712 163.73 15.693 166.586 21.8063C169.582 28.0452 170.901 34.9499 170.414 41.8468C170.154 45.3196 169.483 48.75 168.417 52.0671C167.306 55.3253 165.914 58.4818 164.256 61.5012C161.284 66.8966 159.306 72.7776 158.418 78.866C156.74 90.9068 160.775 103.003 167.723 113.168C171.31 118.271 175.338 123.052 179.761 127.457C184.088 131.967 188.762 136.395 193.297 140.753L193.449 140.905C193.949 141.354 194.267 141.969 194.344 142.635C194.421 143.301 194.252 143.972 193.868 144.522C193.484 145.073 192.912 145.466 192.258 145.628C191.604 145.79 190.913 145.709 190.315 145.401L190.218 145.291Z" fill="url(#paint0_linear_5_87)"/>
<path d="M113.886 70.5352C117.57 67.0791 122.037 64.5574 126.909 63.1837C129.443 62.4923 132.061 62.1536 134.689 62.1769C137.47 62.2046 140.22 62.7666 142.788 63.8321C145.409 64.9915 147.768 66.6664 149.722 68.756C151.592 70.7866 153.102 73.1186 154.188 75.6523C155.244 78.0641 155.989 80.5989 156.406 83.1967C156.859 85.7645 156.957 88.3815 156.698 90.9757C156.74 91.7074 156.488 92.4257 155.998 92.9727C155.508 93.5197 154.819 93.8509 154.083 93.8928C153.348 93.9349 152.626 93.6847 152.076 93.1972C151.525 92.7094 151.193 92.0246 151.15 91.2929L151.15 91.0585C150.339 86.8106 149.108 82.6527 147.475 78.6452C146.653 76.7842 145.63 75.0177 144.424 73.3765C143.239 71.8209 141.748 70.5213 140.042 69.5559C138.274 68.5463 136.323 67.8948 134.3 67.6387C132.14 67.2946 129.944 67.2343 127.768 67.4595C123.17 67.977 118.707 69.3379 114.607 71.473C114.491 71.5225 114.36 71.5307 114.238 71.496C114.116 71.4614 114.009 71.386 113.936 71.2827C113.863 71.1794 113.828 71.0543 113.837 70.9282C113.845 70.8023 113.897 70.683 113.983 70.5903L113.886 70.5352Z" fill="#0E677D"/>
<path d="M273.358 105.347C274.08 104.685 274.994 103.803 275.772 102.989C276.548 102.175 277.324 101.251 278.059 100.382C279.483 98.6199 280.721 96.7156 281.748 94.6994C283.776 90.814 284.598 86.4163 284.106 82.0655C283.446 77.5201 281.734 73.1899 279.099 69.4178C276.377 65.3708 273.173 61.6659 269.557 58.3837C268.699 57.5148 267.714 56.7286 266.785 55.9149L265.398 54.6872L263.927 53.308C262.97 52.3839 261.931 51.5287 261.043 50.5495L258.38 47.6531C255.061 43.589 252.185 39.1879 249.795 34.5227C247.443 29.9327 245.514 25.141 244.026 20.2059C242.488 15.3037 241.379 10.2782 240.712 5.18583C240.708 5.06704 240.748 4.95072 240.822 4.85803C240.897 4.76533 241.003 4.70242 241.12 4.68071C241.238 4.65901 241.359 4.67995 241.461 4.73974C241.566 4.79953 241.644 4.8942 241.682 5.00653C243.998 14.7891 247.775 24.1713 252.888 32.84C255.429 37.0747 258.402 41.0359 261.764 44.66L264.385 47.2256C265.26 48.0806 266.257 48.784 267.159 49.5564L268.546 50.715L270.086 51.9287C271.097 52.7564 272.152 53.5148 273.123 54.4115C277.239 57.7996 280.926 61.6713 284.106 65.9421C287.502 70.413 289.81 75.6063 290.845 81.1139C291.83 86.8946 290.829 92.8364 288.003 97.9821C286.638 100.462 284.946 102.749 282.968 104.782C281.993 105.762 280.962 106.683 279.876 107.54C278.753 108.425 277.567 109.227 276.327 109.94C275.73 110.289 275.026 110.404 274.349 110.262C273.674 110.121 273.075 109.734 272.671 109.177C272.265 108.619 272.086 107.932 272.164 107.249C272.242 106.566 272.574 105.937 273.095 105.485L273.358 105.347Z" fill="#0E677D"/>
<path d="M287.338 149.291C288.314 147.819 289.37 146.402 290.499 145.043C291.581 143.664 292.747 142.463 293.924 141.236C296.326 138.778 298.963 136.56 301.802 134.616C303.239 133.647 304.724 132.754 306.254 131.94C307.817 131.158 309.436 130.485 311.094 129.926C312.754 129.342 314.454 128.881 316.183 128.547C317.928 128.296 319.691 128.19 321.453 128.23C323.196 128.273 324.933 128.472 326.639 128.823C327.485 128.988 328.303 129.264 329.136 129.471L330.37 129.83L331.564 130.285C334.691 131.481 337.674 133.027 340.452 134.892C343.206 136.687 345.802 138.708 348.218 140.933C350.651 143.112 352.922 145.463 355.014 147.967C355.119 148.102 355.169 148.272 355.153 148.442C355.137 148.612 355.056 148.77 354.928 148.883C354.799 148.997 354.632 149.058 354.462 149.054C354.289 149.051 354.126 148.982 354.001 148.863C351.774 146.606 349.386 144.509 346.86 142.588C344.363 140.655 341.716 138.926 338.94 137.415C336.233 135.911 333.363 134.717 330.384 133.857L329.288 133.526L328.179 133.319C327.431 133.181 326.695 133.002 325.946 132.919C324.478 132.74 322.997 132.699 321.522 132.795C320.06 132.874 318.609 133.077 317.182 133.402C315.761 133.789 314.37 134.278 313.021 134.864C311.667 135.446 310.354 136.124 309.096 136.891C307.844 137.695 306.636 138.565 305.478 139.498C303.156 141.4 301.024 143.52 299.112 145.829C298.155 147.001 297.239 148.188 296.338 149.429C295.504 150.614 294.736 151.844 294.035 153.111L294.035 153.208C293.792 153.655 293.462 154.05 293.064 154.371C292.666 154.691 292.21 154.931 291.717 155.076C291.227 155.22 290.712 155.268 290.204 155.214C289.695 155.161 289.201 155.009 288.753 154.766C288.302 154.524 287.904 154.195 287.583 153.8C287.259 153.405 287.02 152.95 286.873 152.462C286.729 151.974 286.68 151.462 286.735 150.956C286.787 150.45 286.942 149.959 287.185 149.512C287.231 149.434 287.281 149.361 287.338 149.291Z" fill="#0E677D"/>
<path d="M225.331 144.987C225.188 144.641 224.977 144.328 224.708 144.067C224.441 143.805 224.121 143.6 223.771 143.465C223.422 143.329 223.048 143.266 222.672 143.279C222.296 143.292 221.928 143.38 221.586 143.539C221.389 143.633 221.205 143.749 221.032 143.884L220.825 144.049C220.851 143.964 220.885 143.882 220.921 143.801L221.213 143.208C221.422 142.794 221.657 142.38 221.892 141.98C222.36 141.157 222.873 140.36 223.432 139.594C224.523 138.05 225.733 136.593 227.052 135.236C229.673 132.563 232.599 130.207 235.775 128.215C238.921 126.269 242.223 124.585 245.648 123.181C249.027 121.777 252.48 120.562 255.994 119.54C270.001 115.402 284.439 114.243 298.626 114.492C305.727 114.616 312.798 115.209 319.789 116.009C323.172 116.285 326.585 116.685 329.982 116.892L335.085 117.057C335.931 117.057 336.792 117.154 337.638 117.057L340.16 116.961C346.888 116.985 353.565 115.822 359.882 113.526C362.926 112.312 365.713 110.544 368.105 108.313C368.618 107.706 369.173 107.113 369.687 106.478C370.156 105.818 370.586 105.132 370.976 104.423C371.739 103.008 372.21 101.456 372.363 99.8578L372.363 99.7474C372.385 99.5547 372.479 99.3776 372.63 99.2541C372.781 99.1304 372.974 99.07 373.169 99.0854C373.345 99.1045 373.512 99.1855 373.637 99.3142C373.76 99.4428 373.836 99.6108 373.848 99.7889C373.88 100.714 373.8 101.64 373.611 102.547C373.5 103.002 373.418 103.458 373.293 103.927L372.835 105.237C372.487 106.094 372.083 106.927 371.629 107.733C371.143 108.52 370.588 109.251 370.047 110.023C367.609 112.798 364.662 115.086 361.366 116.768C354.827 119.836 347.774 121.674 340.562 122.188L337.887 122.478C336.999 122.574 336.112 122.56 335.224 122.602L329.885 122.795C326.321 122.795 322.784 122.643 319.234 122.547C312.3 122.146 305.504 122.022 298.682 122.215C285.173 122.403 271.762 124.507 258.852 128.464C255.714 129.485 252.635 130.678 249.628 132.036C246.633 133.415 243.777 134.96 240.989 136.574C238.201 138.187 235.441 139.911 232.848 141.746C231.462 142.67 230.241 143.635 228.937 144.601L227.023 146.118L226.067 146.904L225.554 147.318L225.249 147.594L224.999 147.801L224.666 148.09C224.479 148.244 224.274 148.373 224.057 148.477C223.709 148.63 223.335 148.715 222.955 148.724C222.575 148.734 222.197 148.669 221.844 148.533C221.49 148.397 221.166 148.193 220.891 147.933C220.616 147.672 220.394 147.36 220.242 147.015C220.105 146.679 220.035 146.319 220.037 145.956C220.039 145.593 220.113 145.235 220.256 144.9C220.397 144.566 220.604 144.263 220.863 144.008C221.122 143.753 221.43 143.551 221.767 143.415C222.105 143.278 222.467 143.209 222.833 143.211C223.196 143.213 223.556 143.287 223.894 143.428C224.23 143.569 224.535 143.774 224.79 144.032C225.048 144.29 225.251 144.596 225.387 144.932L225.331 144.987Z" fill="#0E677D"/>
<path d="M343.503 81.6244C340.271 83.8668 337.216 86.352 334.364 89.0586C332.977 90.3531 331.676 91.7354 330.468 93.1964C329.284 94.5805 328.269 96.0989 327.443 97.7204C325.946 101.083 324.915 104.632 324.38 108.272C324.046 110.147 323.769 112.051 323.548 113.954C323.528 115.911 322.955 117.822 321.898 119.471L321.771 119.637C321.538 119.965 321.24 120.244 320.897 120.458C320.553 120.671 320.169 120.815 319.769 120.88C319.371 120.946 318.961 120.932 318.567 120.839C318.173 120.746 317.801 120.577 317.474 120.34C316.981 119.995 316.601 119.516 316.376 118.961C315.725 116.938 315.725 114.763 316.376 112.74C316.82 110.741 317.321 108.754 317.902 106.768C318.989 102.636 320.712 98.6959 323.005 95.086C325.532 91.6693 328.667 88.7429 332.257 86.4517C333.958 85.324 335.716 84.2835 337.525 83.3348C339.322 82.3635 341.175 81.4975 343.073 80.7418C343.193 80.6967 343.326 80.7003 343.443 80.752C343.559 80.8037 343.652 80.899 343.698 81.0175C343.73 81.1153 343.732 81.221 343.702 81.3199C343.674 81.4187 343.614 81.5059 343.531 81.5693L343.503 81.6244Z" fill="#0E677D"/>
<path d="M197.998 0.45513C200.403 7.64738 203.535 14.579 207.346 21.1439C210.988 27.6893 215.729 33.567 221.365 38.5226C224.252 40.8668 227.353 42.9357 230.629 44.7015C233.856 46.4941 237.275 47.9193 240.822 48.9496C244.31 49.9452 247.93 50.4102 251.558 50.3289C253.338 50.2822 255.111 50.0743 256.854 49.7083C257.708 49.5177 258.55 49.2829 259.379 49.0049C260.142 48.7595 260.886 48.4503 261.598 48.0808L261.694 48.0808C262.231 47.7994 262.856 47.7381 263.437 47.9101C264.018 48.0818 264.508 48.4732 264.801 49.0003C265.095 49.5271 265.169 50.1477 265.008 50.7288C264.848 51.3097 264.466 51.8051 263.941 52.1083L263.859 52.1083C262.862 52.6046 261.821 53.0108 260.751 53.322C259.738 53.6116 258.727 53.846 257.714 54.0391C255.696 54.3938 253.648 54.5646 251.598 54.5494C247.558 54.4973 243.55 53.8275 239.713 52.5633C235.94 51.3293 232.318 49.6825 228.911 47.6531C225.514 45.6658 222.318 43.3564 219.369 40.7569C213.709 35.3893 209.02 29.096 205.5 22.1509C201.89 15.3545 198.986 8.20974 196.833 0.827523C196.805 0.747929 196.795 0.663524 196.802 0.579658C196.809 0.495789 196.833 0.414301 196.874 0.340367C196.914 0.266433 196.969 0.201663 197.036 0.150187C197.103 0.0987108 197.18 0.0616466 197.262 0.0413488C197.419 -0.0029235 197.586 0.0138188 197.731 0.0881545C197.875 0.16249 197.985 0.288813 198.039 0.441333L197.998 0.45513Z" fill="#0E677D"/>
<path d="M299.902 29.4199C299.866 33.7394 300.115 38.0567 300.65 42.3434C300.931 44.4444 301.321 46.5299 301.816 48.5916C302.292 50.5723 302.995 52.4925 303.91 54.3155C304.411 55.1555 304.965 55.9618 305.574 56.7291C306.193 57.5404 306.855 58.3184 307.556 59.0601C308.957 60.543 310.493 61.8914 312.147 63.0875C313.785 64.2878 315.53 65.3359 317.361 66.2183C318.263 66.6597 319.192 67.0597 320.135 67.4184C321.041 67.7591 321.968 68.0448 322.909 68.2734L323.019 68.2734C323.737 68.4362 324.36 68.8756 324.752 69.4952C325.144 70.1146 325.27 70.8635 325.107 71.5767C324.943 72.29 324.502 72.9095 323.879 73.2989C323.256 73.6881 322.502 73.8153 321.785 73.6525L321.688 73.6525C320.491 73.332 319.317 72.9216 318.179 72.4249C317.09 71.9687 316.024 71.453 314.991 70.8803C312.939 69.742 310.999 68.4168 309.194 66.9218C307.407 65.4179 305.773 63.7458 304.312 61.9289C303.58 61.025 302.899 60.081 302.274 59.1014C301.594 58.1039 301.01 57.0466 300.525 55.9429C298.959 51.6417 298.179 47.0968 298.224 42.5228C298.161 38.1105 298.463 33.7005 299.124 29.3371C299.132 29.2812 299.15 29.2272 299.178 29.1785C299.207 29.1298 299.245 29.0873 299.289 29.0538C299.335 29.0203 299.388 28.9963 299.442 28.9834C299.498 28.9704 299.554 28.9686 299.611 28.9784C299.715 28.992 299.81 29.0428 299.88 29.1216C299.948 29.2004 299.986 29.3016 299.984 29.4061L299.902 29.4199Z" fill="#0E677D"/>
<path d="M226.344 112.519C227.842 111.25 229.271 110.299 230.672 109.292C232.085 108.33 233.419 107.26 234.666 106.092C237.11 103.634 238.971 100.666 240.115 97.4027C242.515 90.8926 241.654 83.1274 237.051 77.845C235.868 76.5315 234.521 75.3729 233.043 74.3968C231.494 73.4327 229.844 72.6419 228.119 72.0383C224.676 70.7518 220.947 70.4226 217.329 71.0865C210.105 72.4658 204.043 78.5759 200.452 85.3206L200.383 85.4584C200.313 85.5899 200.218 85.7062 200.102 85.8009C199.987 85.8957 199.854 85.9669 199.711 86.0104C199.568 86.0541 199.418 86.069 199.269 86.0549C199.12 86.0405 198.976 85.9972 198.844 85.9274C198.671 85.8362 198.525 85.7018 198.42 85.5372C198.315 85.3728 198.256 85.1839 198.247 84.9894C196.948 80.0156 194.433 75.4386 190.925 71.6658C189.26 69.9961 187.276 68.6755 185.089 67.7824C182.902 66.8893 180.558 66.4417 178.194 66.466C173.445 66.2195 168.757 67.6238 164.936 70.4384C163.074 71.9036 161.459 73.6543 160.151 75.6243C159.469 76.6369 158.853 77.692 158.307 78.7828C158.029 79.3345 157.78 79.9001 157.544 80.4654C157.308 81.031 157.058 81.6516 156.92 82.0655L156.823 82.3137C156.582 82.9514 156.112 83.4779 155.503 83.7915C154.895 84.1053 154.192 84.1841 153.529 84.0127C152.866 83.8416 152.29 83.4322 151.913 82.8639C151.535 82.2955 151.382 81.6083 151.483 80.9344C151.742 79.3876 152.146 77.8683 152.69 76.3967C153.225 74.9706 153.87 73.5873 154.617 72.2589C156.175 69.5202 158.224 67.0892 160.664 65.0868C163.175 63.0652 166.079 61.5814 169.193 60.7284C172.224 59.9454 175.36 59.6473 178.485 59.8456C181.663 60.0481 184.772 60.8632 187.638 62.2455C190.472 63.6808 192.95 65.7255 194.891 68.2315C196.735 70.6169 198.143 73.3058 199.052 76.1761C199.948 78.9493 200.416 81.8421 200.438 84.755L198.233 84.4241C199.878 80.5157 202.228 76.9397 205.167 73.8726C208.184 70.6038 212.071 68.253 216.377 67.0932C220.682 65.9336 225.231 66.0126 229.492 67.3212C231.651 67.9169 233.733 68.7495 235.705 69.8038C237.707 70.9363 239.55 72.3277 241.184 73.9416C244.478 77.2649 246.746 81.4581 247.714 86.0239C248.657 90.5635 248.452 95.2646 247.119 99.7062C245.809 104.173 243.429 108.257 240.185 111.609C238.541 113.3 236.676 114.761 234.637 115.954C232.585 117.096 230.29 117.734 227.94 117.816C227.345 117.829 226.764 117.66 226.27 117.331C225.777 117.003 225.397 116.532 225.184 115.981C224.971 115.431 224.933 114.828 225.076 114.256C225.219 113.683 225.536 113.168 225.984 112.781L226.344 112.519Z" fill="#0E677D"/>
<path d="M91.378 33.4473C91.0335 37.746 90.9177 42.0599 91.0313 46.3709C91.0876 50.6726 91.3746 54.9682 91.8912 59.2394C92.7653 67.6755 94.9942 75.9177 98.4924 83.6522C99.3867 85.5176 100.401 87.3236 101.53 89.0589C102.098 89.9139 102.722 90.7829 103.305 91.6381C103.887 92.4931 104.58 93.307 105.205 94.1345C107.788 97.3907 110.722 100.355 113.956 102.976C120.585 108.097 128.042 112.061 136.006 114.699C144.05 117.596 152.454 120.078 160.816 123.14C164.977 124.671 169.137 126.368 173.298 128.271C177.452 130.156 181.474 132.317 185.336 134.74C193.52 139.79 200.187 146.935 204.64 155.429C206.823 159.768 208.302 164.423 209.022 169.221C209.494 173.979 210.562 179.138 206.415 183.565C205.864 184.15 205.102 184.495 204.296 184.523C203.492 184.551 202.708 184.262 202.116 183.717C201.88 183.495 201.679 183.24 201.521 182.959L201.048 182.103C200.082 180.293 199.568 178.277 199.551 176.228C199.59 174.316 199.497 172.403 199.273 170.504C198.805 166.679 197.723 162.954 196.07 159.47C192.492 152.39 187.071 146.393 180.371 142.105C176.873 139.828 173.248 137.751 169.512 135.885C165.754 133.967 161.871 132.243 157.89 130.643C149.972 127.402 141.651 124.754 133.385 121.347C129.205 119.633 125.134 117.666 121.195 115.458C117.236 113.179 113.519 110.508 110.1 107.486C106.649 104.489 103.542 101.122 100.836 97.4448C100.184 96.5205 99.5187 95.5965 98.9085 94.6863C98.2982 93.7758 97.688 92.7828 97.1057 91.8035C95.9461 89.8285 94.9222 87.778 94.0407 85.6659C90.7917 77.3233 88.9728 68.4978 88.6597 59.5566C88.1815 50.7971 88.6464 42.0119 90.0466 33.3507C90.0804 33.1774 90.1799 33.0236 90.3244 32.9208C90.4689 32.8183 90.6474 32.7746 90.8233 32.7992C90.9925 32.8231 91.1459 32.9111 91.2518 33.0445C91.3577 33.178 91.4078 33.3469 91.3919 33.5163L91.378 33.4473Z" fill="url(#paint1_linear_5_87)"/>
<path d="M83.0156 334.676L83.0156 346.318L78.0923 346.758L77.2047 340.11L57.0818 340.11L56.2499 346.318L51.2295 346.758L51.2295 334.676L53.8367 334.676C55.2314 334.003 56.3839 332.92 57.1375 331.574C58.0816 329.69 58.736 327.678 59.0789 325.601C59.5782 323.008 60.0405 319.329 60.4656 314.567L61.1177 308.648L78.9245 308.648L78.5777 330.179L78.6748 334.731L83.0156 334.676ZM72.3787 334.676L72.5311 330.718L72.2816 313.628L66.4846 313.628L66.2904 315.684C65.9423 319.947 65.2514 324.177 64.2241 328.332C63.6746 330.702 62.5347 332.898 60.9094 334.717L72.3787 334.676Z" fill="#1B1464"/>
<path d="M95.109 330.76L94.7623 308.828L101.558 308.485L101.114 330.069L101.669 330.069L114.497 308.636L121.584 308.636L121.251 330.165L121.486 340.151L114.802 340.151L115.093 330.76L115.093 318.719L114.649 318.719L101.669 340.193L94.7346 340.193L95.109 330.76Z" fill="#1B1464"/>
<path d="M162.273 330.165L162.467 340.152L155.824 340.152L156.115 330.76L156.115 327.077L148.973 327.077L142.538 327.173L142.538 330.207L142.788 340.194L136.145 340.194L136.492 330.8L136.145 308.732L142.885 308.732L142.691 321.753L149.472 321.849L156.115 321.753L155.921 308.732L162.689 308.732L162.273 330.165Z" fill="#1B1464"/>
<path d="M201.923 340.193L195.127 340.193L194.35 336.056L193.504 333.118L187.305 332.966L181.855 333.118L181.009 335.711L180.177 340.165L173.589 340.165L184.309 308.648L192.228 308.648L201.923 340.193ZM192.089 328.001L188.345 314.896L187.901 314.896L183.574 328.001L187.804 328.096L192.089 328.001Z" fill="#1B1464"/>
<path d="M233.556 310.153L232.376 315.671L231.835 315.918C230.84 315.224 229.747 314.679 228.591 314.304C227.417 313.907 226.183 313.708 224.943 313.712C219.729 313.712 217.122 317.119 217.122 323.931C217.122 327.628 217.802 330.387 219.174 332.208C219.862 333.122 220.766 333.854 221.806 334.335C222.847 334.815 223.992 335.033 225.138 334.965C226.416 334.961 227.687 334.771 228.911 334.4C230.149 334.051 231.333 333.537 232.432 332.868L233.015 333.2L232.475 338.827C230.006 339.968 227.317 340.557 224.597 340.553C219.882 340.553 216.276 339.172 213.808 336.413C211.339 333.656 210.091 329.738 210.091 324.622C210.091 319.505 211.478 315.353 214.057 312.485C216.636 309.614 220.423 308.18 225.249 308.18C228.137 308.156 230.989 308.832 233.556 310.153Z" fill="#1B1464"/>
<path d="M265.314 309.173L264.926 314.111L258.976 313.822L256.993 313.822L256.743 330.166L256.993 340.194L250.337 340.194L250.683 330.8L250.434 313.863L248.464 313.863L242.418 314.153L241.974 313.616L242.418 308.677L264.898 308.677L265.314 309.173Z" fill="#1B1464"/>
<path d="M276.311 330.76L275.965 308.828L282.761 308.485L282.317 330.069L282.801 330.069L295.643 308.636L302.758 308.636L302.413 330.165L302.662 340.151L295.962 340.151L296.268 330.76L296.268 318.719L295.824 318.719L282.9 340.193L275.965 340.193L276.311 330.76Z" fill="#1B1464"/>
<path d="M317.542 330.76L317.196 308.828L323.99 308.485L323.562 330.069L324.06 330.069L336.902 308.636L343.989 308.636L343.642 330.165L343.891 340.151L337.194 340.151L337.485 330.76L337.485 318.719L337.041 318.719L324.129 340.193L317.196 340.193L317.542 330.76Z" fill="#1B1464"/>
<path d="M137.005 362.701C137.775 363.485 138.37 364.419 138.753 365.446C139.135 366.474 139.296 367.569 139.224 368.66C139.268 370.475 138.817 372.267 137.92 373.847C137.038 375.335 135.736 376.534 134.176 377.294C132.394 378.14 130.436 378.557 128.462 378.509L125.841 378.509L125.841 378.591L126.077 386.867L120.529 386.867L120.807 379.047L120.529 360.633L130.639 360.633C132.949 360.487 135.227 361.227 137.005 362.701ZM133.455 369.157C133.502 368.562 133.427 367.964 133.234 367.401C133.041 366.837 132.734 366.316 132.331 365.875C131.359 365.075 130.124 364.662 128.864 364.716L126.091 364.882L125.938 374.33L129.696 374.495C130.868 374.21 131.895 373.512 132.586 372.53C133.278 371.549 133.587 370.35 133.455 369.157Z" fill="#1B1464"/>
<path d="M166.156 363.641C168.172 365.876 169.179 369.057 169.179 373.185C169.179 377.691 168.084 381.166 165.892 383.612C164.717 384.863 163.279 385.84 161.68 386.475C160.081 387.109 158.361 387.384 156.642 387.281C155.051 387.376 153.459 387.117 151.982 386.522C150.504 385.928 149.178 385.014 148.099 383.847C146.088 381.543 145.09 378.33 145.09 374.082C145.09 369.833 146.172 366.247 148.349 363.861C149.535 362.634 150.975 361.676 152.57 361.056C154.165 360.438 155.877 360.17 157.585 360.276C159.175 360.176 160.767 360.426 162.248 361.008C163.729 361.589 165.063 362.488 166.156 363.641ZM152.288 366.757C151.136 368.772 150.619 371.082 150.804 373.392C150.804 376.895 151.266 379.397 152.191 380.895C152.724 381.655 153.45 382.263 154.295 382.654C155.14 383.047 156.074 383.211 157.003 383.129C157.905 383.207 158.812 383.059 159.643 382.7C160.473 382.341 161.201 381.783 161.76 381.074C162.744 379.696 163.23 377.462 163.23 374.33C163.23 370.883 162.744 368.417 161.774 366.937C161.25 366.213 160.551 365.63 159.741 365.247C158.932 364.864 158.037 364.691 157.142 364.744C156.234 364.657 155.319 364.798 154.48 365.155C153.641 365.51 152.907 366.073 152.343 366.785L152.288 366.757Z" fill="#1B1464"/>
<path d="M195.141 361.93L194.156 366.538L193.712 366.743C192.861 366.151 191.927 365.686 190.939 365.365C189.958 365.045 188.933 364.882 187.902 364.882C183.565 364.882 181.397 367.719 181.397 373.392C181.223 375.81 181.815 378.222 183.089 380.288C183.663 381.05 184.418 381.661 185.287 382.064C186.156 382.465 187.111 382.646 188.068 382.592C189.129 382.578 190.184 382.421 191.202 382.122C192.231 381.828 193.215 381.395 194.128 380.839L194.628 381.116L194.17 385.804C192.111 386.736 189.872 387.207 187.61 387.185C185.953 387.298 184.29 387.051 182.738 386.458C181.186 385.868 179.782 384.948 178.624 383.763C176.553 381.493 175.522 378.22 175.531 373.943C175.54 369.668 176.641 366.302 178.832 363.847C180.034 362.618 181.489 361.66 183.098 361.042C184.706 360.423 186.43 360.156 188.151 360.262C190.584 360.236 192.985 360.808 195.141 361.93Z" fill="#1B1464"/>
<path d="M220.935 361.93L219.95 366.538L219.494 366.743C218.668 366.157 217.761 365.692 216.803 365.365C215.822 365.045 214.797 364.882 213.766 364.882C209.43 364.882 207.257 367.719 207.247 373.392C207.076 375.812 207.673 378.224 208.954 380.288C209.526 381.05 210.282 381.661 211.151 382.064C212.021 382.465 212.976 382.646 213.932 382.592C214.994 382.578 216.049 382.421 217.066 382.122C218.095 381.824 219.078 381.393 219.993 380.839L220.477 381.116L220.035 385.804C217.974 386.736 215.735 387.207 213.474 387.185C211.816 387.298 210.154 387.051 208.602 386.458C207.05 385.868 205.645 384.948 204.487 383.763C202.417 381.493 201.386 378.22 201.396 373.943C201.404 369.668 202.506 366.302 204.696 363.847C205.898 362.618 207.354 361.66 208.962 361.042C210.57 360.423 212.294 360.156 214.015 360.262C216.425 360.248 218.801 360.82 220.935 361.93Z" fill="#1B1464"/>
<path d="M229.09 379.088L228.812 360.827L234.456 360.551L234.097 378.481L234.499 378.481L245.192 360.647L251.085 360.647L250.808 378.577L251.017 386.854L245.469 386.854L245.719 379.034L245.719 369.006L245.345 369.006L234.569 386.854L228.798 386.854L229.09 379.088Z" fill="#1B1464"/>
<path d="M261.334 379.087L261.043 360.882L266.701 360.605L266.327 378.537L266.743 378.537L277.422 360.703L283.344 360.703L283.052 378.633L283.259 386.907L277.712 386.907L277.963 379.087L277.963 369.061L277.587 369.061L266.811 386.907L261.043 386.907L261.334 379.087Z" fill="#1B1464"/>
<path d="M151.927 211.343C151.927 211.343 165.671 211.343 178.097 210.088C186.862 209.164 185.253 205.219 185.253 199.619C185.253 173.304 171.01 166.407 171.01 166.407L232.113 165.718C232.113 165.718 219.424 172.366 220.59 198.971C220.853 205.288 221.283 209.895 233.072 211.73C247.702 214.02 267.089 213.563 267.089 213.563L206.791 218.391L151.927 211.343Z" fill="#000B7A"/>
</g>
</g>
<defs>
<linearGradient id="paint0_linear_5_87" x1="149.348" y1="75.611" x2="196.237" y2="75.611" gradientUnits="userSpaceOnUse">
<stop offset="0.18" stop-color="#0E677D"/>
<stop offset="0.66" stop-color="#052E7B"/>
<stop offset="1" stop-color="#000B7A"/>
</linearGradient>
<linearGradient id="paint1_linear_5_87" x1="84.8459" y1="108.617" x2="209.452" y2="108.617" gradientUnits="userSpaceOnUse">
<stop stop-color="#0E677D"/>
<stop offset="0.21" stop-color="#0D637D"/>
<stop offset="0.42" stop-color="#0C577C"/>
<stop offset="0.63" stop-color="#08427C"/>
<stop offset="0.84" stop-color="#04267B"/>
<stop offset="1" stop-color="#000B7A"/>
</linearGradient>
<clipPath id="clip0_5_87">
<rect width="402" height="389" fill="white"/>
</clipPath>
</defs>
</svg>
